<?xml version="1.0" encoding="utf-8"?>
<!-- Generator: Adobe Illustrator 23.0.6, SVG Export Plug-In . SVG Version: 6.00 Build 0)  -->
<svg version="1.1" id="Layer_1" xmlns="http://www.w3.org/2000/svg" xmlns:xlink="http://www.w3.org/1999/xlink" x="0px" y="0px"
	 viewBox="0 0 175 175" style="enable-background:new 0 0 175 175;" xml:space="preserve">
<style type="text/css">
	.st0{fill:#38BA9B;}
	.st1{fill:#F9C110;}
	.st2{font-family:'CornerStoreJF';}
	.st3{font-size:39.5623px;}
</style>
<g>
	<g>
		<path class="st0" d="M52.57,12.82c-0.25,0.15-0.49,0.29-0.74,0.44l-0.39,0.03c0.02-0.07,0.05-0.14,0.07-0.21
			c-0.1,0.09-0.29,0.19-0.66,0.3c-0.08-0.17-0.17-0.35-0.25-0.52l-1.82,0.04l0-0.06l-0.4,0.02c-0.09,0.11-0.18,0.21-0.27,0.32
			l-0.02-0.3l-0.23,0.01c-0.98,0.04-1.76,0.84-1.77,1.82l-0.01,0.5l0.03,0c0.15,0.25,0.29,0.5,0.44,0.75l0.78-0.05
			c-0.42,0.14-0.85,0.27-1.27,0.41l-0.01,0.65c-1.8,1.15-3.55,2.37-5.25,3.65l0.03,0.47c-0.1-0.09-0.2-0.18-0.3-0.27
			c-0.14,0.1-0.27,0.21-0.4,0.31l0.32-0.02c-0.65,0.84,0.01,0.28-1.11,0.86c0.04-0.1,0.09-0.21,0.13-0.31
			c-0.3,0.24-0.61,0.48-0.91,0.72c0.01,0.12,0.03,0.25,0.06,0.42l-0.39,0.03l-0.01-0.17c-3.44,2.81-6.65,5.89-9.6,9.2
			c1.09,0.51,0.83,0.22,1.3,0.9c1.24-0.99,0.45-0.51,1.06-1.63c1.36,0.67,0.19-0.04,1.58,0.28c0.17,0.36,0.35,0.72,0.52,1.08
			c3.89-4.1,8.21-7.81,12.91-11.02l-0.11,5.98l0,0.96c-1.05,0.8-2.07,1.64-3.07,2.49c0.24,0.31,0.48,0.63,0.73,0.95
			c-0.79-0.6-0.34-0.07-0.76-0.92c-11.62,9.93-20.09,23.34-23.88,38.48l0.41-0.03c0.29,0.5,0.59,1,0.88,1.5
			c-1.69-0.41-1.19-0.32-1.41-0.96c-0.52,2.15-0.96,4.34-1.29,6.55l-5.61-0.15c0.32-2.28,0.75-4.54,1.26-6.76
			c-0.03-0.05-0.06-0.1-0.09-0.15l0.13-0.01c0.05-0.21,0.1-0.42,0.15-0.63l-0.33-0.14c0.32-0.68,0.36-0.9,0.68-1.26
			c0.21-0.79,0.42-1.57,0.65-2.36c0,0-0.01,0-0.01,0.01c0.01-0.01,0.01-0.02,0.02-0.03c3.55-12.06,9.88-23,18.3-32.03l-5.03,0.34
			l-0.02-0.28C18.76,43.29,12.42,55.65,9.38,69.16c1.12-0.22,2.65-0.78,3.17-0.88c-1.15,1.46-0.79,0.25,0.13,1.94
			c-1.16-0.1-2.31-0.2-3.47-0.3C8.76,72,8.39,74.1,8.1,76.23l-0.46-0.01l-2.58-0.05c-0.22,0.12-0.52,0.25-0.94,0.49
			c-1.09-0.35-1.31-0.14-1.74-0.54l-0.17,0c-0.57-0.01-1.11,0.24-1.47,0.67c-0.36,0.44-0.5,1.01-0.39,1.57l0.21,1.02
			c0.68-0.58,1.41-1.11,2.08-1.45c-0.56,1.27-0.19,1.44,0.21,3.11l-1.92,0.13l0.06,0.31c0.15,0.74,0.74,1.32,1.49,1.45l0.77,0.14
			l1.2,1.18l1.04,2.53c0.19,0.46,0.56,0.83,1.03,1.02l0.84,0.34c0.01,1.66,0.05,3.32,0.17,5c0.05,0.7,0.1,1.4,0.17,2.09l0.02-0.05
			l1.17-0.08l0.08,1.17c-0.37,0.15-0.74,0.3-1.11,0.46c0.73,6.58,2.2,12.91,4.35,18.9c0.01-0.01,0.02-0.03,0.02-0.04
			c-0.01,0.02-0.01,0.03-0.02,0.05c0.95,2.67,2.04,5.27,3.24,7.79c0.08-0.06,0.2-0.14,0.41-0.27l0.08,1.17
			c-0.08-0.19-0.17-0.31-0.26-0.41c3.61,7.45,8.29,14.27,13.83,20.26c0.21-0.16,0.42-0.32,0.63-0.49l0.05,0.78l-0.39,0.03
			c0.55,0.59,1.1,1.17,1.67,1.74c0.13-0.11,0.26-0.21,0.38-0.32c-0.08,0.23-0.14,0.39-0.18,0.52
			c12.74,12.81,29.55,21.48,48.12,23.99c0.13-0.9,0.12-0.61,1.31-1.26c-0.36-0.19-0.69-0.51-1.06-1.05
			c1.96,0.36,2.56,0.34,4.36,0.88l0.03,0.39c-1.67,0.01-2.56,0.19-3.33-0.22c-0.21,0.64-0.32,1.01-0.36,1.37
			c3.37,0.42,6.79,0.63,10.26,0.63l-0.07-1.1c-2.48-0.39-3.19-0.62-5.08-0.05c0.09-0.53,0.19-1.06,0.28-1.58
			c-1.89-0.53-6.32-0.95-9.75-2.32c-10.1-1.88-19.58-5.68-28.02-11.02l0.15,0.25c-0.38-0.24-0.43-0.34-0.42-0.43
			c-0.87-0.56-1.73-1.13-2.57-1.71l-0.66,0.04c0.02-0.15,0.04-0.31,0.06-0.46c-0.35-0.25-0.7-0.5-1.05-0.76
			c-0.44,0.99-0.99,0.01-1.34,1.38c-0.92-0.07-1.83-0.14-2.75-0.21c-0.29-0.37-0.57-0.74-0.86-1.11c2.12,0.06,2.66,0.08,4.17-0.64
			c-2.13-1.6-4.17-3.29-6.13-5.09l-0.76,0.05l-0.03-0.39l0.19-0.22c-10.8-10.12-18.84-23.23-22.71-38.12c0,0,0,0,0,0l-0.39,0.03
			l-0.03-0.39c0.09-0.07,0.18-0.14,0.27-0.21c-0.94-3.72-1.62-7.55-2.01-11.47c-0.34,0.05-0.68,0.09-0.98,0.13l0.89-1.02
			c-0.06-0.62-0.11-1.24-0.15-1.86c-0.02-0.37-0.04-0.73-0.06-1.1l4.15,4.04l0.91,0.99c0.21,0.23,0.47,0.4,0.77,0.5l0.3,0.1
			c0.29,2.19,0.68,4.34,1.16,6.46l-0.03-0.43l1.17-0.08c2.01,0.78,4.01,1.55,6.02,2.33c0.75-0.31,1.5-0.62,2.25-0.92l-0.01-0.15
			c-0.02-0.29-0.11-0.57-0.25-0.82l-2.34-3.98l-0.39-1.57c-0.13-0.52-0.48-0.96-0.96-1.21l-0.68-0.35l-0.59-0.93
			c-0.23-0.36-0.57-0.63-0.97-0.77l-3.03-1.04l-0.63-0.68c-0.02-0.03-0.05-0.05-0.07-0.08l-4.92-4.79l-0.88-1.83
			c-0.2-0.42-0.55-0.75-0.98-0.92l-2.54-1.02l-0.15-0.37c-0.22,0.38-0.43,0.75-0.65,1.13l-0.05-0.78c-0.4-0.67-0.39-0.07-0.05-0.78
			l0.7,0.29l-0.68-1.65c-0.1-0.23-0.24-0.44-0.42-0.62l-1.88-1.84c-0.04-0.04-0.09-0.08-0.14-0.12l22.03,0.57l19.67-0.24
			c0.99,0,1.79-0.79,1.83-1.77l0.62-13.23c0-0.03,0-0.06,0-0.08l0.06-26.28c-0.1-0.13-0.21-0.27-0.31-0.4l0.31-0.02l0.03-10.93
			l0.19-10.9l7.33-0.14c0.01-0.01,0.02-0.02,0.03-0.03c0.01,0.01,0.01,0.02,0.02,0.03l6.33-0.12l5.21-0.16
			c0.16-1.67,0.49-2.21,1.29-3.3c1.11,0.82,0.99,0.97,0.96,2.67c1.56-0.63,3.04-0.89,3.89-0.26l0.78-0.05
			c-0.22,0.25-0.44,0.5-0.66,0.75l7.59-0.23L82.08,29.7c0,0.05,0,0.1,0,0.15l0.26,5c0.34-0.09,0.68-0.18,1.02-0.28
			c0.15,0.25,0.29,0.5,0.44,0.75l0.78-0.05c-0.73,0.67-0.5,0.56-1.89,0.91c-0.11-0.26-0.21-0.52-0.32-0.78l0.34,6.71
			c0,0.03,0,0.06,0.01,0.09l0.14,1.4c0.05,0.51,0.31,0.98,0.72,1.29l3.1,2.38c0.04,0.03,0.09,0.07,0.14,0.1l1.41,0.89
			c0.58,0.36,1.3,0.38,1.9,0.05l0.55-0.31c0.14,0.03,0.28,0.04,0.43,0.03l1.32-0.06l-0.01,0.61c-0.01,0.51,0.19,1.01,0.56,1.37
			c0.37,0.36,0.87,0.55,1.38,0.53l2.42-0.11l1.7,0.57c0.15,0.05,0.31,0.08,0.47,0.09l2.13,0.14l1.26,0.96
			c0.28,0.22,0.61,0.34,0.94,0.37c0.02-0.04,0.03-0.08,0.05-0.12c0.02,0.04,0.05,0.08,0.07,0.12c0.53,0.02,1.07-0.19,1.45-0.61
			l0.71-0.8l0.82,0.08l1.15,1.46c0.09,0.12,0.2,0.22,0.32,0.32l0,0c-0.01,0.84,0.54,1.58,1.35,1.81l1.53,0.43
			c0.65,0.18,1.35,0,1.83-0.48l0.76-0.77l0.47,0.1c0.16,0.03,0.33,0.05,0.49,0.04l0.25-0.01l0.21,0.46c0.23,0.5,0.68,0.88,1.22,1.02
			l4.37,1.14c0.47,0.12,0.96,0.06,1.39-0.18l0.93-0.53c-1.19-0.64-2.38-1.29-3.57-1.93l-0.03-0.39l1.17-0.08
			c1.08,0.54,2.17,1.08,3.25,1.61c0.07-0.12,0.13-0.25,0.16-0.39l0.09-0.33c0.16,0.07,0.34,0.11,0.51,0.13l2.54,0.25l1.2,0.32
			l0.88-1.01c-0.03,0.41-0.06,0.81-0.09,1.22l2.52,0.68c0.5,0.14,1.03,0.06,1.47-0.21l1.2-0.74c0.43-0.27,0.73-0.7,0.84-1.19
			l0.07-0.34l1.15-0.07l0.86,0.37c0.66,0.28,1.41,0.17,1.95-0.3l0.68-0.59c0.37,0.36,0.88,0.55,1.41,0.51l2.74-0.18
			c0.58-0.04,1.12-0.35,1.43-0.84l0.09-0.13l0.62,0.67c0.15,0.17,0.34,0.3,0.54,0.4l2.47,1.22c0.14,0.07,0.29,0.12,0.44,0.15
			l1.77,0.38l0.71,0.32l1.59,1.13c0.57,0.4,1.31,0.46,1.93,0.13l1.28-0.67l0.06,0.02l0.47,2.91l0.41,6.46
			c0,0.05,0.01,0.09,0.01,0.14l0.9,6.4c0.01,0.07,0.03,0.15,0.04,0.22l0.64,2.4c0.06,0.21,0.15,0.41,0.28,0.59l1.81,2.58l0.75,2.97
			c0.07,0.28,0.21,0.55,0.4,0.77l1.31,1.5c0.25-0.32,0.5-0.62,0.75-0.91c-0.04-0.11-0.11-0.28-0.27-0.58
			c0.12,0.16,0.24,0.31,0.36,0.47c0.32-0.36,0.65-0.7,0.98-1.01c-0.23,0.46-0.46,0.93-0.68,1.39c0.07,0.09,0.13,0.17,0.2,0.26
			c-0.1-0.08-0.18-0.13-0.24-0.18c-0.19,0.39-0.38,0.77-0.57,1.16l0.89,1.01l0.2,1.56c0.05,0.4,0.23,0.77,0.51,1.05l-0.02,0.82
			c0.52,0.09,1.05,0.19,1.57,0.28l0.05,0.78c-0.38,0.16-0.76,0.31-1.14,0.47c-0.16-0.5-0.32-1-0.48-1.5l-0.07,3.6l-1.53,3.14
			c-0.32,0.65-0.23,1.43,0.23,1.99l0.58,0.7l-0.15,0.75c-0.02,0.11-0.03,0.21-0.03,0.32l-0.03,1.26l0.61-0.04l0.03,0.39l-0.65,0.04
			l-0.07,3.07l-0.75,2.03c-0.11,0.3-0.14,0.62-0.1,0.93l0.13,0.83l-2.3,0.82c-0.09,0.03-0.18,0.07-0.27,0.12l-6.45,3.5
			c-0.37,0.2-0.66,0.53-0.83,0.92l-0.4,0.95l-1.27,1.1l-1.32,1.05l-0.8,0.58c-0.1,0.07-0.19,0.15-0.27,0.24l-0.06,0.06l0.68-0.05
			l0.11,1.56l-0.87,0.06c-0.26,0.9-0.22,0.87-1.27,0.14c0.27,0.11,0.54,0.22,0.8,0.34l-0.03-0.44l-0.19,0.01
			c-0.06-0.19-0.12-0.39-0.19-0.58l-1.57,1.69c0.08-0.08,0.17-0.15,0.25-0.23c-0.6,1.31-0.29,1.11-1.59,1.59l-1.19,1.05l-3.26,2.29
			l-3.59,1.83c-0.05,0.03-0.1,0.05-0.14,0.08l-4.1,2.58c-0.1,0.06-0.2,0.14-0.28,0.22l-1.04,0.98l-3.38,2.4l-1.93,0.51
			c-0.47,0.12-0.87,0.42-1.12,0.83l-1.91,3.14l-1.85,0.27c-0.64,0.1-1.19,0.52-1.44,1.12l-0.57,1.35c-0.33,0.79-0.08,1.7,0.6,2.21
			l0.68,0.51l-0.5,2.59l-1.25,5.77c-0.01,0.06-0.02,0.13-0.03,0.2l-0.34,3.09c-0.03,0.31,0.01,0.62,0.13,0.91l0.63,1.54l1.44,4.37
			c0.05,0.08,0.09,0.16,0.14,0.24c-0.03-0.01-0.06-0.02-0.08-0.04l0.89,3.91c0.06,0.25,0.17,0.49,0.32,0.7l0.49,0.65l-0.35,0.26
			l-2.94-1.74c-0.21-0.13-0.45-0.21-0.69-0.24l-3.76-0.51c-0.13-0.02-0.25-0.02-0.38-0.01c-0.22,0.01-0.44,0.07-0.64,0.16
			l-0.37,0.17l-1.28-0.17l-2.63-1.66c-0.22-0.14-0.46-0.23-0.72-0.27l-3.35-0.5l-4.51-1.66l-1.11-1.75l-1.09-4.03
			c-0.11-0.42-0.38-0.78-0.74-1.03c0.06,2.07-0.14,3.98-1.23,5.44l-0.34,0.8c-1.98-3.57-0.17-7.55-0.09-10.81
			c-0.18-0.47-0.54-0.86-1.02-1.06l-0.03-0.01l0.42-1.87c0.13-0.56-0.01-1.14-0.38-1.59l-1.19-1.45c-0.23-0.27-0.53-0.48-0.86-0.59
			l-1.06-0.34c-0.05,0.11-0.12,0.26-0.27,0.5c0.05-0.18,0.09-0.36,0.14-0.54l-0.57-0.18l-2.05-2.3l-1.84-2.94l-0.38,0.03l-0.03-0.39
			c0.03-0.05,0.05-0.11,0.08-0.16l-0.45-0.72c-0.17-0.28-0.42-0.51-0.71-0.66l-1.94-1.02l0-0.17c0.01-0.31-0.07-0.61-0.21-0.88
			l-4.06-7.87l-0.68-2.6c-0.09-0.33-0.27-0.64-0.52-0.87l-0.85-0.81l-0.07-0.38c-0.08-0.45-0.33-0.86-0.69-1.14l-3.95-3.07
			c0.05,0.05,0.1,0.11,0.18,0.18c-0.15-0.08-0.29-0.17-0.44-0.25c-0.09,0.47-0.18,0.48-0.86,1.07c0.21-0.4,0.41-0.81,0.62-1.21
			c-0.18-0.1-0.36-0.2-0.53-0.31c0.31,0.1,0.49,0.15,0.6,0.18c0.01-0.01,0.01-0.03,0.02-0.04l-1.12-1.17l-0.01-0.09
			c-0.04-0.56-0.32-1.07-0.78-1.39l-1.84-1.3c-0.26-0.19-0.57-0.3-0.89-0.33l-4.63-0.46c-0.05,0-0.1-0.01-0.15-0.01l-4.52-0.09
			l-1.74-1.11c-0.54-0.34-1.22-0.39-1.79-0.11l-2.99,1.42l-2.33,1.14c-0.32,0.16-0.59,0.4-0.77,0.71l-1.38,2.29
			c-0.11,0.19-0.19,0.4-0.24,0.61l-0.03,0.16c0.07,0,0.14,0,0.22,0l0.44,0.75c-0.28,0.05-0.56,0.11-0.83,0.16l-0.22,1.15l-2.41,3.92
			l-0.64,0.73l-0.46-0.14l-1.08-0.59c-0.13-0.07-0.27-0.13-0.42-0.17l-1.15-0.3l-1.74-0.86c-0.1-0.19-0.22-0.37-0.38-0.52
			l-1.29-1.23c-0.2-0.19-0.44-0.33-0.7-0.42l-3.21-1.06l-4.3-3.92c-0.05,0.07-0.09,0.15-0.14,0.23c0.78,0.72,1.19,2.42,1.04,3.84
			c0.37-0.29,0.74-0.57,1.11-0.86l0.39-0.03c-0.08,0.79-0.15,1.57-0.23,2.36c0.37-0.29,0.74-0.57,1.11-0.86l0.13,1.95
			c-1.04,0.21-0.1-0.13-1.14,0.47c-1.84-0.76-1.99-0.63-2.18-3.37c-1.12-0.7-0.39,0.4-1.22-0.7c-0.41,0.53-2.37,5.56-2.59,7.99
			c-0.11,0.07-0.23,0.13-0.34,0.2c1.55,2.76,3.26,5.41,5.13,7.93c0.4-0.11,0.81-0.22,1.21-0.33c-0.36,0.17-0.71,0.34-1.07,0.51
			c0.87,1.17,1.78,2.32,2.72,3.44c0.15-0.58,0.3-1.16,0.45-1.75c0.18,0.77,0.36,1.54,0.55,2.31l-0.49,0.03
			c1.51,1.75,3.1,3.44,4.76,5.04c-0.12-0.8,0.01-1.66,0.61-2.28c0.2,1.03,0.4,2.06,0.6,3.09c-0.02,0.09-0.05,0.18-0.07,0.27
			c2.03,1.88,4.16,3.64,6.38,5.28c0.2-0.05,0.42-0.1,0.69-0.16c-0.07,0.17-0.14,0.34-0.21,0.51c0.06,0.04,0.12,0.09,0.18,0.13
			c0.02-0.08,0.04-0.17,0.06-0.25l2.33-0.16l-1.13,1.3c0.68,0.47,1.36,0.92,2.05,1.37c-0.3-2.36-0.81-3.86-2.26-5.31
			c1.27-0.83,0.88-1.47,1.79-2.47c0.44,2.77,0.88,5.54,1.32,8.31c7.43,4.63,15.71,7.99,24.52,9.77l-0.02-0.29l1.17-0.08
			c-0.22,0.28-0.3,0.41-0.35,0.47l0.56-0.04c-0.1,0.06-0.16,0.11-0.21,0.15c6.02,1.12,12.27,1.51,18.65,1.08
			c0.17-0.01,0.35-0.03,0.52-0.04c0-0.45-0.01-0.9-0.01-1.35l1.5-0.88c-0.15,0.63-0.21,1.35-0.22,2.12
			c0.23-0.02,0.45-0.04,0.68-0.06l0.44,0.69c0.22,0.35,0.55,0.61,0.93,0.75l5.28,1.94c0.12,0.04,0.24,0.08,0.37,0.09l3.15,0.47
			l0.03,0.02c-3.99,0.9-8.1,1.52-12.3,1.8c-4.16,0.28-8.27,0.24-12.3-0.11c3.07,0.82,7.13,1.33,8.43,3.19
			c0.4,0.1,0.8,0.21,1.19,0.31c-1.01,0.4-1.43,0.17-1.92,0.5c1.61-0.02,3.23-0.07,4.86-0.18c6.66-0.45,13.09-1.68,19.21-3.59
			l1.09,0.15l0.01-0.01l0.01,0.02l1.54,0.21l1.62,0.96c-0.2-0.17-0.4-0.35-0.6-0.52l0.78-0.05l-0.05-0.78l0.78-0.05
			c-0.22,0.52-0.43,1.04-0.65,1.56l1.8,1.06c0.33,0.2,0.7,0.28,1.07,0.25c0.34-0.02,0.68-0.14,0.97-0.35l1.98-1.45
			c0.21-0.15,0.39-0.35,0.52-0.58l0.59-1.03c0.01-0.02,0.02-0.04,0.03-0.06l0,0c0.86-0.3,1.38-1.19,1.22-2.09l-0.36-2.19
			c6.98-3.48,13.39-7.9,19.07-13.08l-0.3-0.26l0.64-0.04c1.65-1.52,3.24-3.1,4.76-4.74l0.12-0.28l0.05,0.09
			c3.48-3.78,6.61-7.88,9.35-12.24c0.41-1.45,0.48-2.55,1.66-3.45c-0.04,0.3-0.08,0.6-0.12,0.9c3.52-6.07,6.3-12.61,8.21-19.48
			l-0.41-0.69l0.84-0.96c2.15-8.38,3.03-17.23,2.42-26.33c-0.47-7.02-1.81-13.78-3.89-20.19l-0.57,0.66l-0.39,0.03
			c0.17-0.67,0.35-1.34,0.52-2c-1.38-4.02-3.05-7.89-5-11.6l-0.53,0.31c0.07-0.32,0.14-0.63,0.2-0.95
			c-0.52-0.97-1.06-1.93-1.62-2.87c-0.01,0-0.01,0.01-0.02,0.01c0.15,0.25,0.29,0.5,0.44,0.75l0.03,0.39l-1.56,0.11
			c-0.38-1.38-0.35-1.1-0.91-1.89l1.56-0.1c0.15,0.25,0.29,0.5,0.44,0.75c0-0.01,0.01-0.01,0.01-0.02c-1.02-1.74-2.1-3.43-3.24-5.09
			c-0.07,0.09-0.15,0.17-0.22,0.26l-0.04-0.65c-0.89-1.28-1.82-2.53-2.78-3.76l-1.33,0.78l-0.05-0.78l1.31-0.09
			c-4-5.09-8.58-9.71-13.62-13.74l-0.26,0.29c0.25,0.22,0.5,0.44,0.75,0.66l-0.36,0.42c-0.14-0.34-0.28-0.69-0.42-1.03l-0.21,0.24
			c-0.4-0.1-0.8-0.21-1.19-0.31c0.5-0.14,1.01-0.27,1.51-0.41c-2.2-1.75-4.49-3.39-6.85-4.91c-0.73,1.06-1.94,1.59-3.3,2.31
			c2.6,1.61,5.11,3.36,7.5,5.25c1.86,0.16,1.02,0.45,3.4-0.38l0.11,1.56l-0.39,0.03c-0.18-0.34-0.89-0.3-1.74-0.09
			c5.39,4.43,10.19,9.56,14.27,15.26l0.6-0.04c-0.12,0.13-0.23,0.26-0.35,0.39c6.53,9.22,11.16,19.91,13.31,31.53
			c0.46-0.69,0.92-1.38,1.37-2.07c-0.17,1.21-0.53,2.46-1.11,3.58c0.18,1.08,0.34,2.17,0.47,3.27c0.16-0.18,0.31-0.36,0.47-0.54
			c0.28,0.24,0.55,0.48,0.83,0.73c-0.12,0.14-0.24,0.28-0.36,0.42c-0.3-0.08-0.59-0.15-0.89-0.23c0.13,1.12,0.24,2.25,0.32,3.39
			c0.64-1.46,0.63-0.14,0.28-1.58l1.61,0.67c-0.11,0.27-0.22,0.54-0.34,0.8l-1.55,0.1c0.02,0.21,0.04,0.41,0.05,0.62
			c1.43,21.2-5.6,41.05-18.18,56.26l0.32,0.54c-0.49,0.42-0.98,0.85-1.48,1.27c0.18-0.35,0.36-0.7,0.54-1.05
			c-4.28,5.05-9.19,9.57-14.6,13.44c0.1,0.23,0.19,0.47,0.29,0.7l-0.39,0.03l-0.04-0.62c-3.16,2.25-6.5,4.28-9.99,6.06l-1.55-3.55
			l-0.37-1.71c9.68-5.04,18.07-12.15,24.63-20.69c-0.97-2.32-2.34-4.89-1.07-7.3c0.72,1.96,1.43,3.91,2.15,5.87
			c4.22-5.77,7.63-12.14,10.06-18.96l1.89-1.03l1.77-0.63l-0.06,0c-0.06-3.15-0.36-6.98,1.37-8.69c0.06,1.8,0.43,4.69-0.44,5.11
			c-0.17,1.15-0.35,2.3-0.53,3.45l1.49-0.53c0.84-0.3,1.35-1.15,1.22-2.03l-0.29-1.87l0.38-1.02c-0.02-0.03-0.04-0.07-0.07-0.11
			c0.03,0.01,0.06,0.03,0.1,0.04l0.29-0.79c0.07-0.19,0.11-0.4,0.12-0.61l0.11-4.87l0.29-1.45c0.11-0.54-0.03-1.11-0.38-1.54
			l-0.38-0.46l1.19-2.44c0.12-0.24,0.18-0.51,0.19-0.78l0.02-0.95c-0.11,0.04-0.21,0.09-0.32,0.13L169,90.6l0.39-0.03l0.08-4.06
			c0.01-0.53-0.21-1.04-0.6-1.41l-0.23-1.48c-0.05-0.36-0.2-0.71-0.44-0.98l-2.26-2.59c-0.21,0.18-0.45,0.3-0.92,0.6l-0.08-1.17
			l0.47-0.03l-0.02-0.02l-0.72-2.87c-0.04-0.14-0.1-0.28-0.17-0.41c-0.74-4.81-1.91-9.46-3.51-13.9l-0.23-3.56
			c0-0.06-0.01-0.12-0.02-0.18l-0.09-0.54c-0.04-0.01-0.07-0.01-0.11-0.02c0.02-0.09,0.04-0.17,0.07-0.26l-0.53-3.28
			c-0.11-0.68-0.58-1.24-1.23-1.46l-1.87-0.65c-0.16-0.05-0.32-0.08-0.49-0.09c-0.48-0.88-0.97-1.75-1.48-2.61
			c-0.16,0.18-0.31,0.36-0.47,0.54l-0.05-0.78l0.36-0.02c-0.23-0.38-0.46-0.76-0.7-1.14c0.05,0.98,0.21,1.95,0.44,2.72
			c-0.53-0.09-1.06-0.19-1.58-0.28c0.27-0.54-0.05-3.18-0.24-4.57c-1.82-2.7-3.8-5.27-5.94-7.7c-0.19,0.2-0.56,0.34-1.27,0.27
			c-1.05-0.11-0.57,0.28-1.61-0.67c1.01,0.06,1.68-0.1,2.18-0.39c-4.13-4.55-8.8-8.58-13.92-11.99l-0.57,0.65
			c-0.1-0.4-0.19-0.81-0.29-1.21c-0.9-0.58-1.81-1.14-2.74-1.69c-1.64,1.93-4.25,3.87-6.23,4.69c1.26-1.84,3.2-3.82,5.33-5.22
			c-12.19-6.93-26.47-10.5-41.51-9.53c-0.09-0.29-0.24-0.56-0.45-0.77c-0.36-0.36-0.86-0.56-1.37-0.54l-21.01,0.64l-0.34,0.01
			c2.65-0.99,5.37-1.85,8.15-2.57l-0.63,0.04c0.09-0.53,0.19-1.05,0.28-1.58c0.28,0.47,0.56,0.95,0.84,1.42
			C75.4,9,79.24,8.33,83.18,7.94c0.04-0.09,0.07-0.18,0.11-0.27c0.63-0.3,1.26-0.61,1.89-0.91C85,7.22,85.04,7.54,85,7.78
			c0.21-0.02,0.42-0.04,0.63-0.05c0.46-0.03,0.92-0.05,1.38-0.08c-0.08-0.2-0.17-0.4-0.25-0.61c0.11-0.27,0.22-0.54,0.34-0.8
			l0.78-0.05c-0.11,0.27-0.22,0.54-0.34,0.8l0.03,0.39c0.76-0.31,1.52-0.62,2.28-0.94c-0.21,0.37-0.43,0.75-0.64,1.12
			c0.33-0.01,0.65-0.01,0.98-0.02c-0.19-0.07-0.21-0.26,0.08-0.74l1.56-0.11l0.05,0.78c-0.37-0.01-0.74,0.04-1.04,0.07
			c1.09,0,2.18,0.01,3.26,0.05c0.04-0.09,0.08-0.19,0.12-0.28c0.18,0.15,0.3,0.24,0.38,0.3c10.78,0.47,21.06,3.11,30.4,7.52
			c0.06-0.31,0.11-0.61,0.17-0.92l1.17-0.08c-0.62,0.94-0.32,1.04-0.71,1.3c2.22,1.07,4.38,2.24,6.48,3.5l-0.17-0.15
			c1.66-0.61,2.35-1.46,3.41-2.23c-5.66-3.55-11.76-6.43-18.18-8.55c0.07,0.16,0.13,0.32,0.2,0.48l-1.17,0.08l-0.05-0.78
			c0.04-0.02,0.09-0.05,0.13-0.08c-0.21-0.07-0.42-0.13-0.62-0.19c-0.72,0.9-0.46,0.59-0.18,1.87l-1.53,0.49l-0.11-1.56l-2.33,0.16
			c-0.18-1.35-0.04-1.68,0.28-2.06c-3.03-0.78-6.12-1.39-9.27-1.83c0.02,0.84-0.81,1.58-1.67,2.27l-0.39,0.03
			c-0.3-0.63-0.61-1.26-0.91-1.89c0.2-0.23,0.4-0.46,0.61-0.69c-3.2-0.35-6.46-0.51-9.75-0.48c0.21,0.51,0.23,0.48-0.64,1.06
			c-0.24,0.28-0.48,0.55-0.72,0.83c0.02-0.86-0.08-1.37-0.13-1.86c-1.17,0.03-2.34,0.08-3.51,0.16c-0.72,0.05-1.43,0.11-2.15,0.17
			C84.62,4.35,86,4.5,87.38,4.66c-1,0.81-1.71,0.59-3.06,0.99c-1.33-0.33-0.08-0.21-1.53,0.49c0.08-0.64,0.17-1.29,0.25-1.93
			c-0.8,0.08-1.59,0.16-2.37,0.26c0.42,0.54,0.12,1.1-0.58,2.24l-0.39,0.03c0.2-1.41,0.36-1.54,0.16-2.16
			C74.46,5.3,69.23,6.54,64.22,8.23c0.64,0.84,0.34,0.01,0.04,1.11l-0.39,0.03c0.1-0.37,0.19-0.74,0.29-1.12
			c-3.74,1.27-7.36,2.79-10.83,4.55L52.57,12.82z M30.91,30.75c0.11-0.27,0.22-0.54,0.34-0.8l0.78-0.05
			C31.66,30.17,31.28,30.46,30.91,30.75z M2.72,79.1L2.7,78.71c0.37-0.29,0.74-0.57,1.11-0.86c0.16,0.38,0.31,0.76,0.47,1.14
			L2.72,79.1z M35.07,147.26l0.8,0.34c-0.24,0.28-0.48,0.55-0.73,0.83c-0.4-0.1-0.8-0.21-1.19-0.31
			C34.33,147.84,34.7,147.55,35.07,147.26z M31.36,144.39l1.56-0.11c-0.51,0.17-1.02,0.33-1.53,0.49L31.36,144.39z M26.27,138.48
			l1.56-0.1c-0.51,0.17-1.02,0.33-1.53,0.49L26.27,138.48z M25.54,133.45l0.08,1.17l-0.8-0.34C25.06,134,25.3,133.72,25.54,133.45z
			 M23.81,136.69l-0.39,0.03c0.1-0.4,0.21-0.8,0.31-1.19L23.81,136.69z M22.4,133.27c0.43-1.2-0.05-0.47,0.7-1.22
			C22.87,132.45,22.64,132.86,22.4,133.27z M21.73,129.01c0.16,0.38,0.31,0.76,0.47,1.14C21.46,129.42,21.34,130.14,21.73,129.01z
			 M22.61,130.52l-0.34,0.8c-0.41-0.23-0.81-0.47-1.22-0.7L22.61,130.52z M16.76,119.19c0.17,0.51,0.33,1.02,0.49,1.53
			c-0.42-0.49-0.85-0.99-1.27-1.48L16.76,119.19z M19.7,99.06l0.44,0.75C19.41,99.34,19.89,99.41,19.7,99.06z M10.42,94.6
			c-0.29-0.5-0.59-1-0.88-1.5l0.78-0.05c0.16,0.51,0.33,1.02,0.49,1.53L10.42,94.6z M12.02,89.42c-0.59,0.48,0.09,0.39-1.14,0.47
			l-0.03-0.39L12.02,89.42z M11.03,86.36c-0.1,0.4-0.21,0.8-0.31,1.19c-0.38,0.16-0.76,0.31-1.14,0.47L11.03,86.36z M8.7,86.51
			c0.16,0.38,0.31,0.76,0.47,1.14c-0.4-0.1-0.8-0.21-1.19-0.31C8.21,87.07,8.45,86.79,8.7,86.51z M21.45,72.76
			c0.29,0.37,0.57,0.74,0.86,1.11C21.3,73.16,21.68,73.28,21.45,72.76z M21.26,64.17c0.3-1.06-0.43-0.38,0.7-1.22
			C21.72,63.36,21.49,63.76,21.26,64.17z M23.68,71.04l-0.03-0.39c0.51-0.16,1.02-0.33,1.53-0.49C24.47,71,25.07,70.59,23.68,71.04z
			 M29.94,59.68l0.78-0.05C30.05,60.03,30.65,60.01,29.94,59.68z M37.99,68.9l-0.8-0.34c0.24-0.28,0.48-0.55,0.73-0.83L37.99,68.9z
			 M36.5,38.18c0.24-0.28,0.48-0.55,0.73-0.83l1.25,1.09c-0.75,0.82-0.39,0.17-0.67,1.61c-0.53-0.09-1.06-0.19-1.58-0.28
			C36.31,39.24,36.4,38.71,36.5,38.18z M40.59,72.64c-0.37,0.29-0.74,0.57-1.11,0.86c-1.07-1.59-1.06-2.96-0.26-3.89
			c0.59,1.7,0.1,1.28,1.69,1.84C40.8,71.84,40.69,72.24,40.59,72.64z M38.8,37.64c0.84,0.65,0.27-0.01,0.86,1.11l-0.78,0.05
			L38.8,37.64z M41.72,60.45c-0.28-0.24-0.55-0.48-0.83-0.73l0.78-0.05L41.72,60.45z M43.73,78.68l-0.03-0.39l1.09-1.25
			c0.16,0.51,0.33,1.02,0.49,1.53L43.73,78.68z M42.49,40.13l-0.08-1.17l1.25,1.09L42.49,40.13z M46.38,48.41l-0.39,0.03
			c0.1-0.4,0.21-0.8,0.31-1.19L46.38,48.41z M45.55,45l-0.08-1.17l0.78-0.05C46.02,44.19,45.79,44.59,45.55,45z M45.81,37.17
			l-1.61-0.67l1.56-0.11L45.81,37.17z M46.5,32.77c-0.89-0.34-1.19-1.19-2.1-2.2l1.95-0.13L46.5,32.77z M48.39,37.72l0.78-0.05
			C48.5,38.07,49.1,38.05,48.39,37.72z M48.88,24.84c-0.27-0.11-0.54-0.22-0.8-0.34c0.1-0.4,0.21-0.8,0.31-1.19l0.78-0.05
			C49.07,23.79,48.98,24.32,48.88,24.84z M50.28,16.54c-0.15-0.25-0.29-0.5-0.44-0.75L51,15.71C50.76,15.99,50.52,16.26,50.28,16.54
			z M164.97,83.06c0.11-0.27,0.22-0.54,0.34-0.8C165.17,82.62,165.64,82.49,164.97,83.06z M120.73,157.17
			c0.11-0.27,0.22-0.54,0.34-0.8c0.15,0.25,0.29,0.5,0.44,0.75L120.73,157.17z M29.09,122.26c-0.6-0.74-0.34-0.58-0.47-1.14
			l0.8,0.34L29.09,122.26z M30.1,125.71c0.23-0.41,0.47-0.81,0.7-1.22c0.17,0.64,0.35,1.28,0.52,1.92
			C30.91,126.18,30.51,125.95,30.1,125.71z M31.81,122.08c0.23-0.41,0.47-0.81,0.7-1.22c0.16,0.38,0.31,0.76,0.47,1.14L31.81,122.08
			z M38.3,125.55c-0.67,0.4-0.07,0.39-0.78,0.05L38.3,125.55z M39,130.19l0.32,4.67c-1.55-0.62-1.13-2.88-1.48-4.59L39,130.19z
			 M34.71,118.76l0.08,1.17l-0.39,0.03C34.51,119.55,34.61,119.16,34.71,118.76z M34.46,132.45l0.78-0.05
			c0.17,0.51,0.33,1.02,0.49,1.53C34.75,133.24,35.08,133.74,34.46,132.45z M34.97,122.65c-0.37,0.28-0.74,0.57-1.11,0.86
			l-0.08-1.17c0.38-0.16,0.76-0.31,1.14-0.47C35.06,122.64,35.44,122.02,34.97,122.65z M39.89,137.56
			c-0.38,0.16-0.76,0.31-1.14,0.47c-0.16-0.38-0.31-0.76-0.47-1.14l1.5-0.88L39.89,137.56z M56.39,109.87
			c0.23-0.41,0.47-0.81,0.7-1.22C56.66,109.85,57.14,109.12,56.39,109.87c-0.09,0.53-0.19,1.06-0.28,1.58l-0.39,0.03
			c-0.16-0.51-0.33-1.02-0.49-1.53L56.39,109.87z M58.13,138.73c-0.95-0.78-1.28-1.8-0.55-2.31l-0.05-0.78
			C57.73,136.67,57.93,137.7,58.13,138.73z M51.26,114.91c-0.23,0.41-0.47,0.81-0.7,1.22l-0.44-0.75
			C50.5,115.22,50.88,115.06,51.26,114.91z M47.2,121.49c-0.14,0.37,0.33,0.24-0.34,0.8C46.97,122.02,47.09,121.76,47.2,121.49z
			 M44.65,127.08l1.56-0.11c-0.93,1.19-1.2,1.14-1.35,3.22c-0.4-0.1-0.8-0.21-1.19-0.31C44,128.94,44.33,128.01,44.65,127.08z
			 M47.46,139.78l0.05,0.78c-0.28-0.24-0.55-0.48-0.83-0.73L47.46,139.78z M45.69,130.91c-0.51,0.16-1.02,0.33-1.53,0.49l-0.03-0.39
			L45.69,130.91z M42.61,131.51c-0.67,0.4-0.07,0.39-0.78,0.05L42.61,131.51z M43.84,143.94c-0.4-0.1-0.79-0.21-1.19-0.31
			l-0.03-0.39l1.17-0.08L43.84,143.94z M44.85,141.52l0.13,1.94l-1.25-1.09C44.1,142.09,44.47,141.81,44.85,141.52z M45.37,143.44
			c0.56,0.79,0.53,0.52,0.91,1.89C44.35,144.5,44.76,144.91,45.37,143.44z M47.88,146.01c-0.25,0.15-0.5,0.29-0.75,0.44l-0.44-0.75
			c0.49-0.42,0.98-0.85,1.48-1.27c0.13,1.48-0.06,0.68,0.52,1.92C47.84,146.14,48.55,146.57,47.88,146.01z M46.16,126.19l-0.39,0.03
			c0.67-1.6,1.6-3.32,3.24-4.13C48.06,123.46,47.11,124.83,46.16,126.19z M48.2,136.27c0.11-0.27,0.22-0.54,0.34-0.8
			c0.28,0.24,0.55,0.48,0.83,0.73L48.2,136.27z M49.98,136.49c-0.23,0.41-0.47,0.81-0.7,1.22
			C49.58,136.64,48.85,137.32,49.98,136.49z M50.19,139.6l-0.39,0.03c0.28-1.44-0.08-0.79,0.67-1.61
			C50.38,138.54,50.28,139.07,50.19,139.6z M48.92,135.44l-0.08-1.17c0.53,0.09,1.05,0.19,1.58,0.28L48.92,135.44z M48.96,133.04
			c0.1-0.4,0.21-0.8,0.31-1.19c0.23-0.41,0.47-0.81,0.7-1.22c-0.42,1.2,0.05,0.47-0.7,1.22l0.8,0.34l0.44,0.75L48.96,133.04z
			 M49.76,121.65c-0.4-0.1-0.8-0.21-1.19-0.31l1.81-2.08c2.16-4.56,1.81-4.47,4.92-8.15l0.21,3.11c-2.31,0.55-2.51,3.14-5.13,5.04
			C50.17,120.06,49.97,120.86,49.76,121.65z M55.92,129.11l-0.39,0.03l-0.08-1.17C55.61,128.35,55.76,128.73,55.92,129.11z
			 M54.51,122.5c0.8,1.05-1.34,0.97-2.26,1.33c-0.28-0.24-0.55-0.48-0.83-0.73C52.45,122.9,53.48,122.7,54.51,122.5z M53.22,138.22
			c0.16,0.38,0.31,0.76,0.47,1.14C53.09,138.62,53.35,138.79,53.22,138.22z M54.88,133.81l0.78-0.05l0.44,0.75
			C54.9,134.09,55.63,134.56,54.88,133.81z M55.56,129.52l0.78-0.05C55.68,129.89,56.27,129.83,55.56,129.52z M58.34,150.38
			c-0.4-0.94-1.07-0.55-0.08-1.17L58.34,150.38z M59.46,140.98l-1.56,0.11l-0.03-0.44l-0.19,0.01c0.05-0.19,0.1-0.38,0.15-0.57
			l-0.04-0.56c0.05,0.03,0.1,0.07,0.16,0.1c0.01-0.06,0.03-0.11,0.04-0.17l0.19,0.32c0.42,0.27,0.83,0.54,1.25,0.81L59.46,140.98z
			 M58.58,130.83c0.14-1.23-0.45-0.23,0.31-1.19l0.44,0.75C59.09,130.53,58.84,130.68,58.58,130.83z M61.1,133.39l0.78-0.05
			C61.21,133.74,61.81,133.73,61.1,133.39z M65.47,151.86c-0.25,0.15-0.5,0.29-0.75,0.44c-0.66-1.74-0.74-4.13,0.46-4.72
			L65.47,151.86z M64.72,146.44c-0.49-1.79,0.04-3.09-0.62-3.48l1.09-1.25c0.11,2.3,0.09,2.67,0.65,3.86
			C65.46,145.86,65.09,146.15,64.72,146.44z M65.52,140.91l-0.78,0.05c-0.44-2.07-0.65-4.3,0.41-5.5L65.52,140.91z M66.71,141.22
			l-0.39,0.03c0.61-1.42-0.26-0.46,1.09-1.25C67.18,140.41,66.94,140.81,66.71,141.22z M67.27,111.93c-1.21-0.41-0.47,0.04-1.22-0.7
			c0.4,0.1,0.8,0.21,1.19,0.31L67.27,111.93z M70.37,114.4l0.78-0.05C70.48,114.75,71.08,114.73,70.37,114.4z M74.87,155.18
			l-0.39,0.03l-0.1-1.56C75.27,154.54,74.61,153.6,74.87,155.18z M72.88,134.16l-0.08-1.17l0.8,0.34
			C73.36,133.61,73.12,133.88,72.88,134.16z M73.48,128.7c-0.27-0.11-0.54-0.22-0.8-0.34c-0.16-0.51-0.33-1.02-0.49-1.53
			c0.54,0.35,1.09,0.71,1.63,1.06C73.7,128.17,73.59,128.43,73.48,128.7z M77.2,151.85l0.78-0.05
			C77.31,152.2,77.9,152.18,77.2,151.85z M76.96,142.48c-0.28-0.24-0.55-0.48-0.83-0.73c0.37-0.29,0.74-0.57,1.11-0.86
			C77.15,141.43,77.05,141.96,76.96,142.48z M76.17,136.67c0.24-0.28,0.48-0.55,0.73-0.83l0.44,0.75L76.17,136.67z M78.87,136.1
			c-0.37,0.29-0.74,0.57-1.11,0.86C78.41,136.12,77.73,136.67,78.87,136.1z M78.39,137.75c1.21,0.41,0.46-0.04,1.22,0.7
			C79.2,138.22,78.79,137.98,78.39,137.75z M84.76,156.86c-1.27-0.41-0.88,0.18-1.61-0.67c0.92,0.07,1.83,0.14,2.75,0.21
			C85.52,156.55,85.14,156.71,84.76,156.86z M85.96,139.97l0.78-0.05C86.09,140.35,86.68,140.28,85.96,139.97z M87.77,155.09
			l0.78-0.05C87.89,155.47,88.48,155.4,87.77,155.09z M88.3,139.82l-0.8-0.34l-0.03-0.39c0.12-0.14,0.24-0.28,0.36-0.41
			c0.28,0.24,0.55,0.48,0.83,0.73C88.54,139.54,88.42,139.68,88.3,139.82z M89.02,138.99c-0.55-0.48-1.11-0.97-1.66-1.45l0.73-0.83
			c0.7,0.73,1.4,1.47,2.1,2.2L89.02,138.99z M97.57,170.01c-0.25,0.15-0.5,0.29-0.75,0.44c0.11-1.53-0.15-2.03,0.57-3.16
			L97.57,170.01z M103.16,168.91c1.21,0.41,0.46-0.04,1.22,0.7C103.97,169.37,103.56,169.14,103.16,168.91z M154.22,33.76
			c-0.16-0.38-0.31-0.76-0.47-1.14C154.82,33.24,154.29,32.61,154.22,33.76z M150.56,31.66l-1.61-0.67l0.36-0.42
			c0.53,0.09,1.05,0.19,1.58,0.28C150.79,31.12,150.67,31.39,150.56,31.66z M151.89,33.92l0.78-0.05
			C152.01,34.29,152.6,34.22,151.89,33.92z M153.29,37.34c0.4-1.21,0.46-0.75,0.26-1.97l0.78-0.05
			C154.11,37.1,154.45,36.47,153.29,37.34z M154.54,38.43c0.22-0.54,0.45-1.07,0.67-1.61C155.18,37.73,155.62,37.5,154.54,38.43z
			 M158.74,42.83c0.87,0.67,0.27,0.29,0.88,1.5C158.77,43.63,159.21,44.22,158.74,42.83z M165.52,56.44
			c-0.27-0.11-0.54-0.22-0.8-0.34l-0.13-1.95c0.79,0.54,0.74,0.65,1.27,1.48C165.75,55.91,165.63,56.18,165.52,56.44z M165.65,52.53
			c-0.11,0.27-0.22,0.54-0.34,0.8c-0.29-0.5-0.59-1-0.88-1.5l0.75-0.44c-0.77,0.18-1.54,0.36-2.31,0.55
			c0.36-1.13,0.3-0.59,0.28-1.58c1.45-0.29,0.81,0.21,1.89-0.91C165.79,50.54,165.88,51.17,165.65,52.53z M168.87,68.28
			c0.58-1.46-0.09-3.11,1.27-4.38c0.22,1.39,0.03,1.07-0.62,2.39C169.92,67.47,169.92,67.39,168.87,68.28z M171.7,69.65
			c-0.11,0.27-0.22,0.54-0.34,0.8c-0.49-1.33-0.24-1.23,1.04-2.02C172.17,68.84,171.93,69.24,171.7,69.65z M170.16,113.58
			c-0.12,0.14-0.24,0.28-0.36,0.42c-0.16-0.38-0.31-0.76-0.47-1.14C169.61,113.1,169.88,113.34,170.16,113.58z M168.86,111.71
			l-0.39,0.03c-0.28-0.24-0.55-0.48-0.83-0.73C168.85,111.42,168.11,110.98,168.86,111.71z M163.55,122.57
			c0.41,0.23,0.81,0.47,1.22,0.7c-0.49,0.42-0.98,0.85-1.48,1.27l-0.44-0.75C163.08,123.38,163.31,122.98,163.55,122.57z
			 M163.34,125.32l0.13,1.95l-0.78,0.05C162.91,126.65,163.13,125.99,163.34,125.32z M159.14,132.64l0.08,1.17
			c-0.29-0.37-0.57-0.74-0.86-1.11L159.14,132.64z M152.25,140.53c0.37-0.29,0.74-0.57,1.11-0.86c-0.23,0.41-0.47,0.81-0.7,1.22
			l-0.39,0.03L152.25,140.53z M124.46,148.71l0.78-0.05C124.59,149.08,125.18,149.02,124.46,148.71z M128.76,142.95
			c-0.28-0.24-0.55-0.48-0.83-0.73c1.21,0.41,0.46-0.04,1.22,0.7L128.76,142.95z M128.39,140.18c0.65-0.83-0.03-0.29,1.11-0.86
			C129.13,139.61,128.76,139.9,128.39,140.18z M132.03,147.76l0.78-0.05C132.14,148.1,132.73,148.09,132.03,147.76z M129.84,132.66
			c-0.25,0.15-0.5,0.29-0.75,0.44l-0.03-0.39c0.37-0.29,0.74-0.57,1.11-0.86l1.61,0.67L129.84,132.66z M140.09,131.24
			c-1.53,0.16-1.8,0.93-2.36-0.23C138.51,131.09,139.3,131.16,140.09,131.24z M133.53,138.33l0.75-0.44
			c0.85,0.71,0.41,0.12,0.88,1.5C133.59,138.39,134.31,139.98,133.53,138.33z M137.76,137.26c0.1-0.4,0.21-0.8,0.31-1.19
			c0.4,0.1,0.8,0.21,1.19,0.31L137.76,137.26z M140.67,139.8c-0.29-0.37-0.57-0.74-0.86-1.11l1.94-0.13L140.67,139.8z M141.8,133.47
			l1.56-0.11C142.33,134.29,142.95,134.29,141.8,133.47z M143.53,132.91l-0.39,0.03c0.16-1.44,0.33-2.89,0.49-4.33
			c0.38-0.16,0.76-0.31,1.14-0.47C144.36,129.73,143.95,131.32,143.53,132.91z M145.45,123.85l0.78-0.05
			C145.58,124.22,146.17,124.15,145.45,123.85z M146.78,131.96l-0.05-0.78l0.78-0.05C147.26,131.41,147.02,131.69,146.78,131.96z
			 M147.91,122.45l-0.39,0.03c0.01-1.51-0.36-0.45,0.28-1.58c0.29,0.37,0.57,0.74,0.86,1.11
			C148.41,122.16,148.16,122.31,147.91,122.45z M152.68,123.69l0.78-0.05C152.79,124.04,153.38,124.03,152.68,123.69z M158.75,112.4
			c0.23-0.41,0.47-0.81,0.7-1.22l0.78-0.05C159.55,112.35,160.19,111.76,158.75,112.4z M164.28,96c0.11-0.27,0.22-0.54,0.34-0.8
			l0.78-0.05C165.03,95.43,164.66,95.71,164.28,96z M167.24,92.66c-0.28,2.74-0.57,5.49-0.85,8.23l-0.39,0.03
			c-0.57-1.29-0.45-9.66,1.57-11.44c-0.11,1.02-0.21,2.04-0.32,3.06c0.2-0.49,0.41-0.97,0.61-1.46c0.16,0.38,0.31,0.76,0.47,1.14
			C167.96,92.36,167.6,92.51,167.24,92.66z M166.82,87.23l0.03,0c-0.14-0.67,0.27-1.5,0.79-2.45c0.01-1.51-0.36-0.45,0.28-1.58
			c0.16,0.51,0.33,1.02,0.49,1.53l-0.78,0.05l0.24,3.5c-0.36-0.15-0.61-0.33-0.78-0.53c-0.08,0.09-0.15,0.17-0.23,0.26L166.82,87.23
			z M162.16,78.89c0.11-0.27,0.22-0.54,0.34-0.8c0.15,0.25,0.29,0.5,0.44,0.75L162.16,78.89z M162.31,75.37l0.05,0.78l-0.83-0.73
			L162.31,75.37z M161.67,77.36c0.15,0.25,0.3,0.5,0.44,0.75c-1.2-0.42-0.47,0.05-1.22-0.7L161.67,77.36z M157.66,55.8
			c-0.65,0.43-0.06,0.36-0.78,0.05L157.66,55.8z M155.84,52.02c0.29,0.37,0.57,0.74,0.86,1.11c-0.38,0.16-0.76,0.31-1.14,0.47
			C155.66,53.07,155.75,52.54,155.84,52.02z M148.35,50.96c-1.21-0.41-0.46,0.04-1.22-0.7c0.4,0.1,0.8,0.21,1.19,0.31L148.35,50.96z
			 M150.65,44.55c0.82,1.14,2.66,4.9,0.78,5.81l-0.08-1.17c-0.55-0.5-0.58-1.48-0.3-1.39c-0.79-0.73-0.89,0.02-1.49-2.01
			C150.91,45.01,150.04,45.97,150.65,44.55z M148.53,41.9l0.97-0.07c-0.32,0.33-0.45,0.5-0.56,0.57l0.02,0.3l-1.56,0.1
			c-0.04-0.15-0.08-0.29-0.12-0.44l-0.1,0.01L147.17,42l0.02,0c-0.1-0.37-0.2-0.73-0.3-1.1C148.56,41.25,148.11,41.34,148.53,41.9z
			 M148.06,46.68l-0.75,0.44c-1.23,0.09-0.55,0.09-1.19-0.31c-1.52-0.64-0.81-0.11-1.25-1.09C146.76,46.07,147.3,45.42,148.06,46.68
			z M144.63,42.22c-0.14,0.37,0.33,0.24-0.34,0.8C144.41,42.76,144.52,42.49,144.63,42.22z M142.22,47.07
			c-0.14,0.37,0.33,0.24-0.34,0.8C142,47.61,142.11,47.34,142.22,47.07z M137.91,35.25l0.03,0.39c-1.21-0.41-0.46,0.04-1.22-0.7
			C137.11,35.04,137.51,35.15,137.91,35.25z M135.38,49.88c0.11-0.27,0.22-0.54,0.34-0.8C135.57,49.45,136.04,49.32,135.38,49.88z
			 M134.95,31.93l-0.78,0.05c0.1-0.53,0.19-1.05,0.28-1.58C135.35,31.29,134.68,30.35,134.95,31.93z M133.88,30.39
			c0.15,0.25,0.29,0.5,0.44,0.75c-0.12,0.14-0.24,0.28-0.36,0.42l-0.39,0.03C133.67,31.18,133.77,30.78,133.88,30.39z M135.89,40.08
			c-1.07,1.12-1.06,1.17-1.97-0.26L135.89,40.08z M129.63,42.79l-0.39,0.03c0.65-0.83-0.03-0.29,1.11-0.86L129.63,42.79z
			 M133.18,37.47l0.08,1.17l-0.39,0.03C132.98,38.26,133.08,37.87,133.18,37.47z M133.06,41.39l0.05,0.78l-0.83-0.73L133.06,41.39z
			 M132.93,45.3c-0.23,0.41-0.47,0.81-0.7,1.22c0.16,0.38,0.31,0.76,0.47,1.14c-0.6-0.74-0.34-0.58-0.47-1.14
			C132.66,45.33,132.18,46.06,132.93,45.3z M129.47,26.05c0.4,0.1,0.79,0.21,1.19,0.31c-0.24,0.28-0.48,0.55-0.73,0.83
			c-0.27-0.11-0.54-0.22-0.8-0.34C129.25,26.58,129.36,26.32,129.47,26.05z M130.33,27.16c0.85,0.88,0.48,0.41,0.55,2.31
			c-0.27-0.11-0.54-0.22-0.8-0.34c-1.11,0.07-0.88,0.3-1.97-0.26C129.63,28.33,129.55,28.24,130.33,27.16z M128.3,26.13l0.03,0.39
			c-1.23-0.13-0.32,0.55-1.19-0.31L128.3,26.13z M129.02,51.04c-0.08,0.79-0.15,1.57-0.23,2.36c-0.25,0.15-0.5,0.29-0.75,0.44
			C128.36,52.91,128.69,51.97,129.02,51.04z M118.21,56.12l-0.05-0.78l0.78-0.05C118.7,55.56,118.45,55.84,118.21,56.12z
			 M117.74,43.25l-0.08-1.17c0.66,0.09,1.31,0.17,1.97,0.26C119,42.65,118.37,42.95,117.74,43.25z M116.33,33.97
			c0.53,0.09,1.05,0.19,1.58,0.28l0.03,0.39C116.49,34.38,117.14,34.71,116.33,33.97z M122.02,28.45c-0.61,0.56-1.23,1.13-1.84,1.69
			C120.79,29.07,120.85,29.05,122.02,28.45z M119.72,32.18c0.28,0.24,0.55,0.48,0.83,0.73l-0.36,0.42c-0.27-0.11-0.54-0.22-0.8-0.34
			C119.5,32.71,119.61,32.45,119.72,32.18z M120.22,48.11c1.43,1.47,2.48,0.93,3.35,3.29c-0.79-0.08-1.57-0.15-2.36-0.23
			C120.57,49.79,120.03,49.46,120.22,48.11z M118.6,27.17l0.08,1.17c-0.28-0.24-0.55-0.48-0.83-0.73
			C118.1,27.47,118.35,27.32,118.6,27.17z M118.25,33.45c-1.23-0.13-0.31,0.55-1.19-0.31l1.17-0.08L118.25,33.45z M116.22,26.55
			l1.17-0.08c-0.42,1.79-0.11,1.41-1.81,2.08l-0.08-1.17l0.78-0.05L116.22,26.55z M115.9,24.57l0.08,1.17
			c-0.38,0.16-0.76,0.31-1.14,0.47C115.26,25.31,115.19,25.21,115.9,24.57z M116.11,33.54l0.05,0.78l-0.83-0.73L116.11,33.54z
			 M116.57,51.88l2.41,1.01c-0.96,0.74-2.08,0.35-3.55-0.54C115.81,52.19,116.19,52.03,116.57,51.88z M104.83,40.16l-0.8-0.34
			c-0.37-1.71-0.34-3.24,0.52-3.94c0.27,0.11,0.54,0.22,0.8,0.34C104.52,37.94,104.61,37.45,104.83,40.16z M104.47,40.58l0.08,1.17
			l-0.39,0.03C104.27,41.37,104.37,40.98,104.47,40.58z M104.13,35.52c0.18-1.42,0.08-1.18,0.65-2c-0.1,0.4-0.21,0.8-0.31,1.19
			l0.05,0.78L104.13,35.52z M105.17,33.5c-1.26-1.07-0.96-1.26-1.04-3.84l1.17-0.08C105.25,30.89,105.21,32.19,105.17,33.5z
			 M103.74,27l-0.11-1.56c0.84,0.99,0.82,0.88,0.91,1.89C104.28,27.23,104.01,27.11,103.74,27z M106.74,50.98
			c0.11-0.27,0.22-0.54,0.34-0.8c0.15,0.25,0.3,0.5,0.44,0.75L106.74,50.98z M106.78,45.89l0.78-0.05
			C106.89,46.24,107.49,46.23,106.78,45.89z M107.87,44.65c-0.37,0.29-0.74,0.57-1.12,0.86l-0.39,0.03c0.3-3.28,0.6-6.55,0.9-9.83
			L107.87,44.65z M105.71,21.4c0.11-0.27,0.22-0.54,0.34-0.8C105.9,20.97,106.38,20.84,105.71,21.4z M107.76,31.37
			c-0.28-0.37-0.57-0.74-0.86-1.11l0.78-0.05L107.76,31.37z M108.38,26.3c-0.15-0.25-0.29-0.5-0.44-0.75
			c0.25-0.15,0.5-0.29,0.75-0.44C108.65,25.68,108.88,25.49,108.38,26.3z M106.62,23.29l-0.11-1.56l1.17-0.08
			C107.27,23.18,107.74,22.47,106.62,23.29z M107.52,27.87l-0.39,0.03c0.1-0.4,0.21-0.8,0.31-1.19c0.15,0.25,0.29,0.5,0.44,0.75
			C107.76,27.59,107.64,27.73,107.52,27.87z M107.78,25.9l-0.39,0.03c0.1-0.4,0.21-0.8,0.31-1.19L107.78,25.9z M112.86,49
			c-0.67,1.22-0.02,0.66-1.48,1.27l-0.05-0.78C111.84,49.33,112.35,49.17,112.86,49z M112.03,39.73l-0.05-0.78l0.78-0.05
			C112.51,39.18,112.27,39.45,112.03,39.73z M114.57,51.23c-0.79-0.08-1.57-0.15-2.36-0.23l0.73-0.83l1.61,0.67L114.57,51.23z
			 M112.76,21.7l0.11,1.56l-0.39,0.03C112.57,22.76,112.67,22.23,112.76,21.7z M113.49,35.28c-0.62,1.57-0.93,1.83-2.57,2.52
			C111.78,36.96,112.64,36.12,113.49,35.28z M109.44,18.8c-0.65,0.43-0.06,0.36-0.78,0.05L109.44,18.8z M108.02,26.71
			c0.25-0.15,0.5-0.29,0.75-0.44c0.16,0.38,0.31,0.76,0.47,1.14C108.83,27.18,108.43,26.95,108.02,26.71z M108.06,18.45
			c0.15,0.25,0.29,0.5,0.44,0.75c-1.2-0.42-0.47,0.05-1.22-0.7L108.06,18.45z M105.89,18.26c0.28,0.37,0.57,0.74,0.86,1.11
			C105.9,18.73,106.47,19.39,105.89,18.26z M106.42,17.39c-0.11,0.27-0.22,0.54-0.34,0.8l-0.83-0.73L106.42,17.39z M105.42,25.66
			l-0.2,0.01l0.06,0.83c-0.27-0.11-0.54-0.22-0.8-0.34l-0.03-0.39c0.01-0.02,0.02-0.04,0.02-0.06l-0.21,0.01l0.31-0.23
			c0.19-0.44,0.37-0.89,0.56-1.33l0.06,0.86c0.06-0.05,0.13-0.1,0.19-0.15L105.42,25.66z M104.21,22.28
			c-0.15-0.25-0.29-0.5-0.44-0.75l1.17-0.08C104.69,21.73,104.45,22.01,104.21,22.28z M103.19,18.83l-0.05-0.78
			c0.89,0.86,0.17-0.06,0.47,1.14l-1.17,0.08C102.69,19.13,102.94,18.98,103.19,18.83z M104.97,42.11c-0.14,1.57,0.11,1.16-0.65,2
			c0.16,0.38,0.31,0.76,0.47,1.14l-1.56,0.11C103.72,43.56,103.63,43.15,104.97,42.11z M104.5,46.83c-0.21,0.8-0.41,1.59-0.62,2.39
			c-0.17-0.64-0.35-1.28-0.52-1.92C103.74,47.14,104.12,46.98,104.5,46.83z M103.91,49.6l0.08,1.17l-0.39,0.03
			C103.7,50.4,103.81,50,103.91,49.6z M94.36,32.72c0.11-0.27,0.22-0.54,0.34-0.8c0.16,0.51,0.33,1.02,0.49,1.53
			C94.91,33.2,94.63,32.96,94.36,32.72z M96.38,42.3l1.17-0.08c0.15,0.25,0.29,0.5,0.44,0.75L96.38,42.3z M97.2,31.3
			c-0.4-0.1-0.8-0.21-1.19-0.31l-0.03-0.39c0.37-0.29,0.74-0.57,1.11-0.86l0.8,0.34l0.03,0.39C97.69,30.74,97.44,31.02,97.2,31.3z
			 M97.91,33.26l-0.73,0.83l-0.11-1.56C97.36,32.77,97.63,33.02,97.91,33.26z M101.52,43.12l0.78-0.05
			C101.63,43.47,102.22,43.46,101.52,43.12z M101.12,22.88c0.16,0.38,0.31,0.76,0.47,1.14l-0.39,0.03L101.12,22.88z M101.49,34.19
			c0.11-0.27,0.22-0.54,0.34-0.8C101.69,33.76,102.16,33.63,101.49,34.19z M101.33,31.86c-0.65,0.43-0.06,0.36-0.78,0.05
			L101.33,31.86z M97.53,16.09c0.41,0.23,0.81,0.47,1.22,0.7l-1.17,0.08L97.53,16.09z M97.74,42.26c1.52,0.41,0.81-0.05,1.64,1.06
			C98.47,42.91,98.38,42.96,97.74,42.26z M96.76,22c0.23-0.41,0.46-0.81,0.7-1.22C98.25,21.74,97.53,21.4,96.76,22z M94.98,15.82
			l0.08,1.17l-0.8-0.34C94.5,16.37,94.74,16.09,94.98,15.82z M96.5,18.11c-0.51,0.16-1.02,0.33-1.53,0.49
			c-0.29-0.37-0.57-0.74-0.86-1.11C94.91,17.7,95.7,17.91,96.5,18.11z M93.51,17.09c-0.6-0.74-0.34-0.58-0.47-1.14
			C93.2,16.33,93.35,16.71,93.51,17.09z M93.78,18.3c0.28,0.24,0.55,0.48,0.83,0.73l-1.56,0.11C93.29,18.85,93.53,18.57,93.78,18.3z
			 M93.83,27.62c0.15,0.25,0.29,0.5,0.44,0.75l-1.17,0.08C93.34,28.17,93.59,27.9,93.83,27.62z M82.87,42.09
			c0.11-0.27,0.22-0.54,0.34-0.8c0.28,0.24,0.55,0.48,0.83,0.73L82.87,42.09z M83.96,40.84l-0.39,0.03
			c-0.14-0.12-0.28-0.24-0.41-0.36l-0.03-0.39l0.36-0.42l0.78-0.05C84.17,40.05,84.07,40.45,83.96,40.84z M93.11,40.17
			c-0.81,0.33-0.79-0.43-0.75,0.44c-0.82-0.6-1.64-1.19-2.47-1.79l-0.78,0.05l-0.03-0.39c1.53,0.3,1.18,0.06,2.02,1.04
			c0.98-1.55,0.11-2.46-1.32-2.26c-0.24,0.28-0.48,0.55-0.73,0.83l-1.17,0.08c0.73-0.67,0.5-0.56,1.89-0.91
			c0.63-1.25,0.48-1.06,1.84-1.69c0.59,1,1.18,2,1.77,3.01C91.97,37.85,92.95,39.67,93.11,40.17z M90.85,27.09l0.78-0.05
			c-0.24,0.28-0.48,0.55-0.73,0.83L90.85,27.09z M90.31,30.65c-0.65,0.43-0.06,0.36-0.78,0.05L90.31,30.65z M89.66,35.33l0.05,0.78
			l-1.17,0.08L89.66,35.33z M88.08,32.36c-0.1,0.4-0.21,0.8-0.31,1.19c-0.16-0.38-0.31-0.76-0.47-1.14L88.08,32.36z M87.74,35.85
			c0.3,1.2-0.42,0.29,0.47,1.14c-1.09,0.81-0.75,0.49-2.7,0.57c-0.16-0.38-0.31-0.76-0.47-1.14C85.94,36.23,86.84,36.04,87.74,35.85
			z M84.05,18.95l1.17-0.08c-0.34,0.67-0.69,1.35-1.04,2.02l-0.39,0.03C83.88,20.27,83.96,19.61,84.05,18.95z M83.81,38.51
			c0.11-0.27,0.22-0.54,0.34-0.8l0.78-0.05C84.55,37.94,84.18,38.22,83.81,38.51z M120.01,10.22c-0.11,0.27-0.22,0.54-0.34,0.8
			l-0.83-0.73L120.01,10.22z M82.07,6.97c-0.65,0.43-0.06,0.36-0.78,0.05L82.07,6.97z M76.8,6.88c0.15,0.25,0.29,0.5,0.44,0.75
			C76.5,7.17,76.98,7.23,76.8,6.88z M74.6,6.3c0.16,0.38,0.31,0.76,0.47,1.14c-0.27-0.11-0.54-0.22-0.8-0.34
			C74.37,6.84,74.48,6.57,74.6,6.3z M53.36,15.94c-0.28-0.24-0.55-0.48-0.83-0.73c-0.3-0.46-0.19-0.37,0.36-0.41l-0.05-0.78
			c0.29,0.5,0.59,1,0.88,1.5L53.36,15.94z"/>
		<path class="st0" d="M115.04,7.35c-0.55-0.17-1.11-0.33-1.67-0.48c0.01,0.22,0.03,0.56,0.02,1.11l0.39-0.03
			C114.21,7.76,114.63,7.55,115.04,7.35z"/>
		<path class="st0" d="M100.67,4.38c0.09,0.89-0.3,1.53,0.82,0.89c-0.02-0.41-0.05-0.63-0.05-0.79
			C101.19,4.45,100.93,4.41,100.67,4.38z"/>
		<path class="st0" d="M25.87,120.92L24.6,121c0.22,0.43,0.44,0.85,0.66,1.28C25.38,121.97,25.6,121.57,25.87,120.92z"/>
		<path class="st0" d="M151.06,47.8c0.07,0.06,0.14,0.13,0.22,0.22C151.19,47.89,151.12,47.82,151.06,47.8z"/>
		<path class="st0" d="M76.49,160.46c0.11,0.02,0.22,0.04,0.33,0.06l0.12-0.01C76.9,160.48,76.79,160.42,76.49,160.46z"/>
		<path class="st0" d="M22.97,117.56c0.43,0.98,0.89,1.95,1.36,2.91c1.53-2.11,2.85-3.09,4.2-6.37c-0.64,0.17-1.28,0.35-1.92,0.52
			c0.37-1.43,0.37-1.1,1.04-2.02l-2.33,0.16l-0.16-2.33c0.51-0.16,1.02-0.33,1.53-0.49c1.24,1.05,0.63,0.35,0.91,1.89
			c0.54-0.18,1-0.44,1.42-0.73l-0.81-1.43l-0.09-1.38c-2.5,1.98-5.52-2.52-9.47-3.62c0.68,2.88,1.52,5.69,2.52,8.43
			c0.09-0.02,0.18-0.04,0.27-0.06l0.05,0.78l-0.03,0.06c0.4,1.07,0.83,2.13,1.29,3.17c0.62-0.52,0.94-0.57,2.43-0.75
			c-0.46,1.22,0.47,0.19,1.25,1.09l0.03,0.39C24.66,117.81,24.2,118.3,22.97,117.56z M24.44,111.25c-0.24,0.28-0.48,0.55-0.73,0.83
			c-0.87-0.97,0.07-1.38-1.69-1.84l-0.13-1.95l2.33-0.16C23.58,109.36,23.17,110.17,24.44,111.25z"/>
		<path class="st0" d="M27.96,106.09l-0.09-1.3l-2.15,2.46C27.15,106.38,26.99,105.71,27.96,106.09z"/>
	</g>
	<polygon class="st1" points="110.82,104.5 113.93,104.58 111.97,107.01 112.86,109.99 109.95,108.88 107.39,110.65 107.54,107.54 
		105.07,105.64 108.08,104.83 109.11,101.89 	"/>
	<text transform="matrix(1 0 0 1 28.0188 101.7137)" class="st0 st2 st3">Austin</text>
</g>
</svg>
