<?xml version="1.0" encoding="utf-8"?>
<!-- Generator: Adobe Illustrator 23.0.6, SVG Export Plug-In . SVG Version: 6.00 Build 0)  -->
<svg version="1.1" id="Layer_1" xmlns="http://www.w3.org/2000/svg" xmlns:xlink="http://www.w3.org/1999/xlink" x="0px" y="0px"
	 viewBox="0 0 175 175" style="enable-background:new 0 0 175 175;" xml:space="preserve">
<style type="text/css">
	.st0{fill:#7251A3;}
	.st1{clip-path:url(#SVGID_2_);}
	.st2{fill:#AA4C9C;}
	.st3{fill:#415BA1;}
	.st4{fill:#5555A5;}
	.st5{fill:#C76BA7;}
	.st6{fill:#7284C1;}
	.st7{fill:#6C4D9F;}
	.st8{fill:#5B7ABD;}
	.st9{font-family:'MyriadPro-Semibold';}
	.st10{font-size:12.3137px;}
</style>
<g>
	<g>
		<path class="st0" d="M119.28,52.12c0.07,0.08,0.21-0.16,0.26-0.18C119.36,51.88,119.23,52.17,119.28,52.12z"/>
		<polygon class="st0" points="117.53,51.54 117.62,51.48 117.24,51.53 		"/>
		<path class="st0" d="M116.26,50.54c-0.17,0.47,0.51,0.3,0.63,0.61l-0.03,0.11l0.34-0.22C116.87,50.88,116.37,50.8,116.26,50.54z"
			/>
		<path class="st0" d="M116.18,49.19c-0.07,0.18-0.25,0.01,0.13,0.17c0-0.02,0-0.04,0-0.06C116.28,49.28,116.23,49.25,116.18,49.19z
			"/>
		<path class="st0" d="M116.3,49.31C116.45,49.4,116.31,49.1,116.3,49.31L116.3,49.31z"/>
		<path class="st0" d="M115.59,48.93h0.28c0.02-0.11-0.12-0.25-0.02-0.27C115.6,48.6,115.58,48.71,115.59,48.93z"/>
		<path class="st0" d="M115.21,49.09l0.13,0.01C115.36,49.05,115.34,49.01,115.21,49.09z"/>
		<path class="st0" d="M115.64,49.13l-0.29-0.02c-0.02,0.08-0.1,0.2,0.12,0.02C115.38,49.23,115.49,49.14,115.64,49.13z"/>
		<path class="st0" d="M115.72,49.26c0.04,0.16,0.13,0.3-0.15,0.3C115.96,49.76,116.11,49.45,115.72,49.26z"/>
		<path class="st0" d="M115.9,50.88l0.04,0.21l0.21-0.03C116.04,51.08,115.97,50.76,115.9,50.88z"/>
		<path class="st0" d="M114.57,47.92c-0.07,0.08-0.09,0.27-0.15,0.38h0.2C114.59,48.19,114.49,48.06,114.57,47.92z"/>
		<path class="st0" d="M114.41,48.3h-0.3C114.29,48.45,114.37,48.41,114.41,48.3z"/>
		<polygon class="st0" points="114.87,49.5 115.42,49.43 114.81,49.45 		"/>
		<polygon class="st0" points="113.78,47.36 114.03,47.25 113.62,47.41 		"/>
		<path class="st0" d="M113.23,47.03c0.19-0.1,0.06-0.36,0.21-0.39c-0.16-0.07-0.37-0.01-0.57,0.04
			C113.04,46.69,113.16,46.79,113.23,47.03z"/>
		<path class="st0" d="M112.57,46.75c0.09,0,0.19-0.03,0.3-0.07C112.79,46.69,112.69,46.7,112.57,46.75z"/>
		<path class="st0" d="M113.79,48.02c0.02-0.06,0.08-0.21,0-0.35l-0.08,0.29L113.79,48.02z"/>
		<path class="st0" d="M113.71,47.97L113.71,47.97c-0.08-0.08-0.13-0.12-0.17-0.15C113.57,47.84,113.61,47.89,113.71,47.97z"/>
		<path class="st0" d="M113.82,48.04l-0.02-0.01C113.78,48.05,113.78,48.06,113.82,48.04z"/>
		<path class="st0" d="M114.49,48.91c-0.21,0.04-0.55,0.01-0.45,0.38C114.23,49.19,114.16,48.98,114.49,48.91z"/>
		<path class="st0" d="M113.71,48.39l0.18,0.2c0.03-0.07,0.06-0.18,0.17-0.2H113.71z"/>
		<polygon class="st0" points="113.56,48.39 113.71,48.39 113.65,48.32 		"/>
		<path class="st0" d="M112.82,47.21c-0.17,0.04-0.28-0.01-0.4-0.07c0.1,0.12,0.22,0.22,0.34,0.31
			C112.82,47.39,112.95,47.3,112.82,47.21z"/>
		<path class="st0" d="M113.23,47.61h-0.03C113.21,47.63,113.21,47.64,113.23,47.61z"/>
		<polygon class="st0" points="111.21,46.42 111.21,46.47 111.23,46.44 		"/>
		<path class="st0" d="M112.74,47.52c0.07,0.11,0.16,0.09,0.26,0.06c-0.09-0.02-0.17-0.06-0.25-0.11
			C112.71,47.48,112.7,47.51,112.74,47.52z"/>
		<path class="st0" d="M112.16,46.66c0.02,0.08,0.06,0.16,0.09,0.24C112.24,46.79,112.22,46.61,112.16,46.66z"/>
		<path class="st0" d="M113.22,47.52c0.01,0,0.02,0,0.02,0C113.24,47.44,113.23,47.47,113.22,47.52z"/>
		<path class="st0" d="M113.22,47.52c-0.07,0-0.15,0.03-0.22,0.06c0.07,0.02,0.13,0.03,0.21,0.03
			C113.21,47.57,113.21,47.54,113.22,47.52z"/>
		<path class="st0" d="M109.91,47.77c0.15-0.21,0.53-0.27,0.6,0.1c0.31-0.03,0.63-0.85,0.69-1.38c-0.07,0.09-0.12,0.18-0.43,0.18
			c0,0.17,0.31,0.58,0.01,0.67c-0.36-0.07-0.19-0.22-0.26-0.43c-0.04,0.35-0.62,0.18-0.8,0.64l0.34,0.01
			C110.04,47.61,109.88,47.66,109.91,47.77z"/>
		<path class="st0" d="M111.61,46.75l0.11,0.03c-0.08-0.1-0.1-0.24-0.13-0.49c-0.22,0.01-0.3,0.08-0.36,0.15l0.44,0.3L111.61,46.75z
			"/>
		<path class="st0" d="M112.14,47.03c-0.22,0.2-0.51,0.17-0.54,0.51c0.28,0.15,0.31-0.09,0.54-0.09c-0.47-0.2,0.21-0.06-0.02-0.38
			c0.11,0.01,0.2,0.04,0.28,0.08c-0.06-0.08-0.11-0.16-0.16-0.25v0.02l0,0l0,0c0,0.04-0.01,0.07-0.01,0.03h-0.01
			C112.2,46.99,112.17,47.01,112.14,47.03c-0.09-0.12,0.02-0.08,0.08-0.08l0.03-0.03l0,0l-0.52-0.13
			C111.8,46.88,111.92,46.94,112.14,47.03z"/>
		<path class="st0" d="M113.47,49.64c0-0.03,0.01-0.04,0.02-0.07C113.44,49.59,113.42,49.6,113.47,49.64z"/>
		<path class="st0" d="M113.39,49.38c0.06-0.01,0.15-0.09,0.22,0c0.03,0.12-0.08,0.11-0.12,0.19c0.1-0.02,0.33-0.02,0.21-0.27
			l-0.06,0.01c-0.11-0.19-0.12-0.64-0.08-0.65C113.48,48.92,113.42,49.1,113.39,49.38z"/>
		<path class="st0" d="M112.74,48.25l-0.43-0.11l0.04,0.33l0.07-0.13C112.59,48.52,112.65,48.33,112.74,48.25z"/>
		<polygon class="st0" points="111.24,46.27 111.44,46.05 111.02,46.28 		"/>
		<polygon class="st0" points="110.75,46.01 110.89,45.8 110.69,45.87 		"/>
		<path class="st0" d="M80.9,42.58l-0.11,0.08C80.84,42.64,80.87,42.6,80.9,42.58z"/>
		<path class="st0" d="M81.74,42.49v-0.13C81.72,42.44,81.71,42.49,81.74,42.49z"/>
		<path class="st0" d="M98.19,40.59c-0.11-0.28-0.21-0.71-0.27-0.42l-0.02,0.29C98.04,40.45,98.12,40.5,98.19,40.59z"/>
		<path class="st0" d="M88.79,40.74l0.04,0.09c0.04-0.09,0.09-0.18,0.13-0.27C88.91,40.63,88.86,40.68,88.79,40.74z"/>
		<path class="st0" d="M88.6,41.92l-0.21-0.2C88.43,41.78,88.5,41.85,88.6,41.92z"/>
		<path class="st0" d="M76.41,43.8l-0.06,0.31C76.56,44.06,76.42,43.93,76.41,43.8z"/>
		<path class="st0" d="M105.66,43.44c-0.1-0.17-0.19-0.26-0.29-0.31C105.48,43.35,105.52,43.63,105.66,43.44z"/>
		<path class="st0" d="M80.82,39.51c-0.07,0.06-0.09,0.12-0.08,0.19C80.81,39.65,80.85,39.58,80.82,39.51z"/>
		<path class="st0" d="M104.96,42.93c0.01,0.03,0.03,0.06,0.04,0.09c0.12,0,0.25,0.01,0.37,0.09
			C105.29,42.95,105.17,42.82,104.96,42.93z"/>
		<path class="st0" d="M61.1,50.76c-0.02,0-0.03,0-0.06-0.01C61.06,50.78,61.09,50.78,61.1,50.76z"/>
		<path class="st0" d="M55.31,51.64c0.02-0.04,0.09-0.1,0.15-0.16C55.41,51.49,55.36,51.53,55.31,51.64z"/>
		<path class="st0" d="M108.87,44.8C108.98,44.83,108.89,44.77,108.87,44.8L108.87,44.8z"/>
		<path class="st0" d="M108.82,46.06c-0.03,0.01-0.08,0.04-0.11,0.1C108.76,46.1,108.79,46.07,108.82,46.06z"/>
		<path class="st0" d="M103.18,44.11L103.18,44.11C103.18,44.17,103.18,44.16,103.18,44.11z"/>
		<path class="st0" d="M108.96,44.99c-0.02-0.06-0.06-0.1-0.09-0.15C108.88,44.88,108.9,44.92,108.96,44.99z"/>
		<path class="st0" d="M109,44.85c0.03,0.03,0.06,0.06,0.08,0.07C109.12,44.9,109.12,44.86,109,44.85z"/>
		<path class="st0" d="M108.71,44.73c0.07,0.02,0.11,0.07,0.16,0.11c-0.01-0.03-0.01-0.04,0-0.06
			C108.84,44.77,108.79,44.76,108.71,44.73z"/>
		<path class="st0" d="M68.64,45.52c-0.01,0-0.02-0.01-0.03-0.01C68.56,45.66,68.6,45.62,68.64,45.52z"/>
		<polygon class="st0" points="94.58,42.78 94.59,42.77 94.58,42.76 		"/>
		<path class="st0" d="M94.14,42.91c0.24-0.31,0.33-0.25,0.43-0.15l0.03-0.84L94.14,42.91z"/>
		<path class="st0" d="M78.9,43.01l0.33,0.2c-0.25,0.47-0.51,0.37-0.19,0.69c-0.13-0.89,1.02-0.27,0.91-1.17l0.21,0.16
			c-0.06,0-0.06,0.06-0.1,0.06c0.42,0.36,0.16-0.69,0.63-0.64c0.17,0.04,0.3,0.17,0.2,0.28l0.33-0.26c0.1,0,0.1,0.17,0,0.16
			l0.53-0.13v0.02c0.06-0.15,0.21-0.38,0.29-0.48c0.16,0.11-0.06,0.1-0.01,0.21l0.28-0.25c0.15,0.21-0.08,0.47-0.29,0.46
			c0.38,0.85,0.22-0.26,0.89,0.19l-0.27,0.15c0.24,0.49,0.43,0.26,0.78,0.57c-0.09-0.17-0.71-0.74-0.4-1
			c0.1,0.06,0.22,0.09,0.38-0.11c0.02,0.31,0.19,0.24,0.4,0.2l0.01,0.43c0.22-0.13,0.19-0.35,0.31-0.55
			c0.26,0.02,0.34,0.35,0.4,0.63c0.42,0.04-0.31-0.51,0.17-0.62c0.35,0.15,0.58-0.06,1-0.31c0.25,0.15-0.03,0.26,0.06,0.38
			l0.21-0.34c0.06,0.01,0.03,0.11,0.03,0.17c0.18-0.13,0.01-0.43,0.29-0.54c0.08-0.46,0.58,0.69,0.94,0.16
			c0.09,0.12-0.04,0.26-0.02,0.43c0.49-0.35,0.42-0.25,0.84-0.72l0.33,0.3c-0.24-0.34,0.1-0.69,0.4-0.98
			c-0.08-0.16-0.16-0.3-0.2-0.37l0.47-0.19c0.06,0.08,0,0.21-0.09,0.38c0.03-0.03,0.07-0.07,0.09-0.09c0.16,0.17,0.06,0.4-0.08,0.63
			c-0.04-0.09-0.1-0.18-0.15-0.27c-0.12,0.25-0.25,0.53-0.24,0.78c0.03-0.04,0.09-0.09,0.16-0.1c-0.03,0.07-0.06,0.12-0.04,0.17
			s0.07-0.04,0.15-0.15l0.08,0.48l0.03-0.18l0.56,0.34c0.45-0.44,0.89-1.12,1.59-1.24c-0.2,0.31-0.1,0.56-0.16,0.97
			c-0.13-0.47-0.54,0.13-0.87,0.02c0.18,0.06,0.11,0.25,0.07,0.31l0.65-0.35c-0.04,0.34,0.1,0.27,0.25,0.43
			c-0.04-0.67,0.51-0.37,0.79-0.54c-0.01,0.22-0.1,0.44-0.39,0.35c0.27,0.54,0.54-0.71,0.81-0.25c-0.08,0-0.11-0.04-0.16,0.07
			c0.2-0.17,0.61,0.04,0.47,0.22l-0.08-0.01c0.48,0.13,1.48,0.24,1.66-0.29c-0.01,0.07-0.19,0.65-0.24,0.76c0,0,0.3-0.42,0.62-0.83
			c0.31-0.42,0.64-0.83,0.64-0.83c-0.18,0.46-0.12,1.64-0.57,1.83c0.1,0.09,0.22,0.2,0.51,0.09c-0.07-0.08-0.04-0.73,0.07-0.74
			c0.18,0.58,0.15,0.33,0.4,0.85c-0.09-0.12,0.2-0.84,0.39-0.78c-0.06,0.1-0.16,0.73-0.25,0.8l0.64-0.63
			c-0.15,0.1-0.17,0.61-0.12,0.83c-0.01-0.16,0.39,0.12,0.53,0.09l-0.15-0.22c0.48,0.26,0.78-0.87,1.29-0.67
			c-0.1,0.13-0.42,0.87-0.18,1.03c0.22-0.34,1.05-1.61,1.62-1.75l0.02,0.24l0.44-0.13c-0.4,0.47-1.38,1.45-1.84,1.81
			c0.15,0.22-0.02,0.26,0.27,0.33c0.04,0.22-0.25,0.25-0.34,0.24l0.62,0.31c0.1-0.44,0.64-0.28,0.73-0.63c0,0-0.21,0.04-0.43,0.11
			c-0.21,0.06-0.43,0.11-0.43,0.11c0.09-0.43,0.81-1.1,1.26-0.85c0.07,0.21-0.34,0.72-0.37,0.87c0.11-0.12,0.54-0.11,0.54,0
			l-0.27,0.16c0.2,0.25,0.62-0.4,0.79,0.11c0.1,0.07,0.12,0.65,0.24,0.42c0-0.54,0.49-2.03,0.74-2.35c0.03,0.04,0.43,0.67,0.46,0.94
			c0.03,0.44-0.61,0.79-0.57,1.17c0.04-0.11,0.2-0.21,0.26-0.25c0.08,0.13-0.18,0.34,0.09,0.37c0.2-0.4,0.49,0.21,0.26-0.31
			c0.29-0.03,0.22,0.17,0.52,0.27c0.02-0.31,0.62-0.81,0.92-0.82c-0.06,0.1-0.06,0.26-0.06,0.34c0.47,0.26,0.66,0.56,1.11,0.76
			c0,0.12,0.16,0.34-0.01,0.47c0.1-0.04,0.22-0.16,0.37-0.1c0.11,0.47-0.34-0.08-0.33,0.44c0.12-0.24,0.52-0.17,0.79-0.24
			c0.11-0.39-0.43-0.27-0.7-0.21c0.22-0.51,0.82-0.89,1.43-0.91c0.44,0.06,0.01,0.4,0.11,0.37c0.65,0.45,1.03-0.56,1.44,0.1
			c0.07,0.44-0.31,0.63-0.38,0.89c-0.36-0.03-0.36-0.44-0.57-0.54l0.18,0.28c-0.15,0.06-0.39,0.03-0.45-0.11
			c0.04,0.38,1.15,0.66,1.54,1.2c0.15-0.06,0.37-0.08,0.36-0.25l-0.19-0.04c-0.02-0.34,0.51-0.18,0.36-0.42
			c0.33-0.06,0.74-0.2,0.99,0.11l-0.15,0.39c0.06-0.11-0.09-0.33-0.24-0.27c0.22-0.09,0.21,0.75,0.62,0.38l-0.08-0.38
			c0.33-0.04,0.82-0.25,1.03,0.03c0.08-0.43-0.09,0-0.06-0.53c-0.12,0.61-0.71-0.46-0.73,0.25c0.07-0.6-0.24-0.42-0.29-0.97
			c-0.06,0.12-0.02,0.28-0.24,0.09c-0.03,0.03-0.08,0.06-0.11,0.08L109,45.01l0.01,0.02c-0.02,0.01-0.02,0.01,0,0.01
			c0.03,0.08,0.04,0.17,0.02,0.25c-0.27,0.2-0.65,0-0.85,0.07c-0.11-0.13,0.13-0.1,0.12-0.27L108,45.2
			c0.12-0.27-0.16-0.64,0.27-0.62l-0.3-0.17c-0.1-0.25-0.33-0.44-0.54-0.4c-0.11-0.13-0.52,0.1-0.28-0.03l-0.56-0.09l0.02-0.07
			c-0.46-0.29-1.21-0.01-1.55-0.75c-0.2,0-0.4,0-0.65-0.19l0.04-0.26c-0.25-0.01-0.55-0.52-0.74-0.31c0.03-0.76-1-0.56-1.35-0.82
			l-0.13,0.31c-0.26-0.11-0.55-0.11-0.92-0.11l-0.08,0.29c-0.36,0.12-0.66-0.46-1.12-0.6c0.07-0.1,0.17-0.02,0.22,0.07
			c-0.34-0.84-1.3,0.12-1.65-0.49c-0.16,0.07-0.24,0.01-0.3-0.09c0.01,0,0.02,0,0.03-0.01c-0.01-0.01-0.03-0.01-0.04-0.02
			c-0.04-0.07-0.08-0.13-0.13-0.2c0.03,0.09,0.07,0.16,0.1,0.19c-0.1-0.02-0.25-0.02-0.42,0l0.02-0.33c-0.01,0-0.02,0-0.03,0
			c-0.11-0.16-0.15,0.11-0.13,0.37c-0.09,0.03-0.17,0.07-0.24,0.13c0.02-0.53-0.42,0.07-0.43-0.52c-0.16,0.22-0.78,0.03-0.98,0.56
			c0.01-0.07-0.02-0.11,0.06-0.1c-0.15-0.1-0.29-0.19-0.47-0.07l0.02-0.42l-0.46,0.46c-0.16-0.28-0.22-0.45,0.06-0.71
			c-0.61,0.36-0.45,0.09-0.98,0.46l0.07-0.26c-0.16-0.02-0.46,0.27-0.52,0.03c-0.27-0.54-1.72-0.31-2.56-0.9
			c0.09,0.79-0.38-0.4-0.48,0.2c-0.03-0.18-0.16-0.29,0.01-0.45c-0.48,0.15-0.69-0.34-1.05,0.13c-0.04-0.19,0.12-0.26,0.08-0.37
			c-0.04,0.03-0.16,0.15-0.2,0.03c-0.04-0.11,0.08-0.15,0.16-0.22c-0.48,0-0.57,0.55-0.64,1.08c-0.22-0.27-0.35-0.24-0.54,0.09
			c-0.08-0.18-0.2-0.37,0.09-0.4c-0.16-0.06-1-0.3-1.03,0.12c-0.04-0.11-0.22-0.03-0.27,0.01c-0.37-0.03-0.4-0.07-0.76-0.03
			l0.1,0.07c-0.15,0.51-0.3,0.11-0.6,0.17l0.01-0.06c-0.67-0.37-0.28,0.16-0.96-0.24L85.29,40c-0.03,0.69-0.6-0.37-0.98-0.09
			l0.15,0.17c-0.19,0.25-0.64-0.9-0.87-0.97c-0.06-0.06,0.07-0.1,0.13-0.15c-0.6-0.37-0.04,0.42-0.45,0.54
			c-0.09-0.22,0.06-0.57-0.24-0.6c-0.16-0.19-0.74,0.81-1.17,0.43c0.1,0.16,0.2,0.33,0.02,0.47c-0.28,0.09-0.88-0.55-1.07,0.02
			c-0.04-0.04-0.07-0.09-0.07-0.12c-0.2,0.16-0.7,0.33-0.78,0.65c-0.38-1.05-1.28,0.76-1.45-0.22l-0.67,0.18v-0.1
			c-0.45,0.03-0.55,0.31-0.64,0.58c-0.11-0.04-0.07-0.16-0.07-0.2c-0.67-0.06-0.73,0.01-1.14,0.62l-0.13-0.3
			c-0.09,0.2-1.03-0.26-1.55,0.29c0-0.03-0.01-0.1,0.02-0.16c-0.57,0.55-1.93-0.37-1.8,0.87l-0.35,0.43
			c0.6-0.11,0.09,0.52,0.38,0.63c-0.19,0.15-0.7-0.15-0.44-0.29l0.07,0.04c-0.1-0.62-0.79,0.03-0.91-0.37
			c-1.1,0.46-2.33,0.56-3.35,1.02l0.31,0.39L67.9,43.9c-0.13-0.06-0.28-0.29-0.02-0.38c-0.25-0.19-0.33,0.4-0.29,0.51
			c-0.58,0.04-0.04-0.6-0.2-0.54l-0.19,0.12l0.07,0.03c-0.09,0.26-0.01,0.45-0.31,0.57c-0.24,0.01-0.22-0.22-0.31-0.2
			c-0.01-0.03-0.04-0.03-0.12,0.04l-0.46,0.18l0.35,0.26c-0.11,0.27-0.42,0.19-0.02,0.47c-0.61-0.46-1.73,0.63-2,0.55
			c-0.13,0.39-0.39,0.53-0.73,0.69c0.12,0.02,0.38,0.37,0.08,0.48c-0.35-0.82-0.7-0.03-1.25-0.45c0.42,0.25-0.73,0.56-0.1,0.89
			c-0.26,0.08-0.19-0.27-0.47-0.34c-0.35,0.64-1.32,0.56-1.9,1.12c0.06,0.1,0.27,0.18,0.22,0.42l-0.67-0.24
			c-0.1,0.13,0.27,0.63-0.2,0.46c0.09,0.06,0.22,0.15,0.16,0.24c-1.61,0.45-2.23,2.25-4.11,2.47c0.31,0.03,0.21,0.13,0.1,0.26
			c0.11-0.03,0.19,0.21,0.3,0.33L55,51.96c0.2,0.4-0.51,0.51-0.27,0.87l0.1-0.2c0.15,0.55,1.03,0.54,1.44,1.03
			c-0.16-0.62,1.12,0.09,0.97-0.82c0.17,0.03,0.07,0.21,0.2,0.29c-0.09-0.28-0.01-0.43,0.28-0.52l0.02,0.07
			c0.56-0.54,0.98-0.55,1.78-0.93l-0.25-0.21c0.17-0.08,0.26-0.02,0.38-0.02c-0.12-0.51-0.43,0.3-0.6-0.24
			c0.57,0.35,1.07-0.79,1.63-0.3c0.24-0.17-0.28-0.25-0.04-0.42l0.18,0.11l-0.09-0.25c0.18-0.08,0.4,0.08,0.51,0.2
			c-0.04,0.01-0.08,0.11-0.11,0.15c0.34,0.06,0.52-0.45,0.63-0.44l-0.29,0.06c0.54-0.61,1.48-0.9,1.91-1.65l-0.12-0.09
			c0.36-0.54,0.48-0.1,0.97-0.54v0.04c0.03-0.19,0.15-0.35,0.3-0.42c-0.06,0.24,0.43,0.13,0.35,0.4c0.4-0.56,0.16-0.35,0.25-1.03
			l0.2,0.17c0.01-0.26-0.03-0.37,0.22-0.58c-0.13,0.31,0.36,0.22,0.24,0.62c0.83,0.15,0.62-0.96,1.26-0.39
			c-0.03-0.74-0.69-0.08-0.61-0.28c-0.24-0.13-0.01-0.56,0.21-0.6c0.2-0.08,0.72,0.61,1.19,0.36c-0.04,0.02-0.03,0.07-0.08,0.09
			c0.26,0.07,0.25-0.39,0.6-0.24c-0.04-0.43,0.3-0.11,0.11-0.6l-0.39,0.31c0.19-0.24,0.18-0.9,0.73-0.83
			c0.01,0.11-0.06,0.29-0.11,0.4c0.19,0.09,0.19-0.2,0.39-0.11c0.18,0.49-0.49,0.35-0.61,0.83c0.22,0.15,0.35-0.57,0.45,0
			c-0.1-0.74,0.52-0.13,0.62-0.79l0.1,0.29c0.03-0.07,0.08-0.26,0.18-0.29l-0.01,0.45c0.12-0.44,0.63,0.04,0.82-0.22
			c-0.54,0.22-0.27-0.3-0.58-0.42c0.52-0.66,0.71,0.61,1.39,0.17c-0.08,0.08-0.45-0.02-0.35-0.22c0.17,0,0.4,0.04,0.55,0.16
			c0.47-0.26-0.19-0.27-0.06-0.54c0.3,0.29,0.19-0.25,0.37-0.45l0.11,0.3c0.65-0.01-0.08-0.67,0.53-0.63l-0.07,0.49l0.24-0.2
			l0.07,0.36c0.2-0.36,0.31-0.33,0.64-0.33c-0.13-0.19-0.15-0.56,0.11-0.66c0.24,0.12,0,0.33,0.35,0.16
			c-0.02,0.21-0.03,0.48-0.28,0.26c0.01,0.1-0.02,0.21,0,0.33c0.26,0.15,0.48-0.12,0.62-0.16c-0.06,0-0.12,0-0.17-0.02l0.39-0.58
			c0.12,0.09,0.08,0.2,0.04,0.31c0.1-0.07,0.12-0.22,0.28-0.3c0.03,0.26,0.12,0.52-0.07,0.7l0.42-0.43c0.07,0.1,0.35,0.22,0.3,0.34
			c0.31,0.07,0.54-0.7,0.98-0.6c0.01-0.06,0.03-0.11,0.1-0.17c0.37-0.02,0.75,0.21,1.09-0.24L78,43.72c0.3-0.18-0.45-0.49,0.06-0.8
			c0.36-0.24,0.22,0.36,0.39,0.45c0.15-0.27,0.39-0.8,0.82-0.48C79.11,43,79.01,42.95,78.9,43.01z M82.99,42.21
			c-0.08,0.08-0.21,0.3-0.29,0.12C82.75,41.95,82.84,42.12,82.99,42.21z M89.37,41.4c-0.07,0.1-0.16,0.04-0.26-0.09
			C89.21,41.3,89.28,41.31,89.37,41.4z M107.59,44.43c0,0-0.01,0-0.01,0.01C107.46,44.24,107.5,44.31,107.59,44.43z M107.88,44.73
			c0.06-0.02,0.08-0.06,0.08-0.11c-0.07,0.06-0.15,0.02-0.22-0.04C107.72,44.66,107.74,44.74,107.88,44.73z M66.61,44.1l0.1,0.04
			C66.61,44.3,66.61,44.2,66.61,44.1z"/>
		<path class="st0" d="M88.62,41.78c-0.02-0.06-0.02-0.11-0.02-0.18C88.56,41.66,88.56,41.73,88.62,41.78z"/>
		<path class="st0" d="M76.42,43.73h-0.01c0,0.02,0,0.04,0,0.06L76.42,43.73z"/>
		<path class="st0" d="M101.29,44.72c-0.06-0.07-0.08-0.13-0.08-0.2C101.18,44.58,101.19,44.65,101.29,44.72z"/>
		<path class="st0" d="M110,45.26l-0.26-0.06c0.11,0.04,0.11,0.13,0.15,0.21C109.93,45.34,109.94,45.22,110,45.26z"/>
		<path class="st0" d="M110.87,48.09c0.06-0.01,0.07,0.03,0.12,0.02l0.07-0.13C110.93,47.91,110.77,47.96,110.87,48.09z"/>
		<path class="st0" d="M109.68,46.3c-0.11,0.25,0.07,0.25,0.24,0.29c-0.01,0-0.02-0.01-0.02-0.01
			C110.13,46.28,109.9,46.29,109.68,46.3z"/>
		<path class="st0" d="M109.96,46.61c0.06,0.02,0.1,0.04,0.15,0.08C110.2,46.56,110.06,46.63,109.96,46.61z"/>
		<path class="st0" d="M108.42,44.81c0.04,0.1,0.21-0.28,0.2-0.16C108.86,44.39,107.91,44.75,108.42,44.81z"/>
		<polygon class="st0" points="109.36,47.14 109.48,46.82 109.25,47 		"/>
		<path class="st0" d="M108.28,46.25l0.2,0.21c0.02-0.06,0.07-0.07,0.12-0.07C108.46,46.3,108.33,46.16,108.28,46.25z"/>
		<path class="st0" d="M108.61,46.39c0.08,0.04,0.16,0.08,0.22,0.06C108.79,46.43,108.69,46.39,108.61,46.39z"/>
		<polygon class="st0" points="108.98,47.03 108.95,46.92 108.79,46.81 		"/>
		<path class="st0" d="M105.64,44.81l-0.31-0.03c-0.08,0.09-0.03,0.19,0.09,0.19C105.52,44.92,105.64,44.92,105.64,44.81z"/>
		<path class="st0" d="M106.06,46.05c-0.04-0.1-0.01-0.17,0-0.29l-0.19,0.36L106.06,46.05z"/>
		<path class="st0" d="M105.24,45.73c-0.08,0.09-0.54,0.12-0.18,0.25C105.14,45.89,105.44,45.93,105.24,45.73z"/>
		<polygon class="st0" points="101.26,43.5 101.34,43.53 101.56,42.89 		"/>
		<path class="st0" d="M97.01,43.83c0.29,0.25,0.19-0.38,0.44-0.1c0.12-0.13-0.2-0.22-0.09-0.34
			C97.12,43.49,97.03,43.38,97.01,43.83z"/>
		<path class="st0" d="M97.37,43.39c0.04-0.01,0.08-0.03,0.13-0.07C97.42,43.35,97.39,43.37,97.37,43.39z"/>
		<polygon class="st0" points="54.41,51.97 54.13,52.04 54.41,52.09 		"/>
		<path class="st0" d="M54.41,52.67l-0.35-0.27l0.16,0.39C54.26,52.72,54.32,52.62,54.41,52.67z"/>
		<path class="st0" d="M83.67,43.03l0.01-0.1c-0.04-0.11-0.09-0.11-0.2-0.12L83.67,43.03z"/>
		<polygon class="st0" points="80.68,43.03 80.73,43.03 80.58,42.66 		"/>
		<path class="st0" d="M78.31,43.98c0.1-0.01,0.2-0.12,0.3-0.12C78.41,43.97,78.19,43.5,78.31,43.98z"/>
	</g>
	<g>
		<g>
			<defs>
				<circle id="SVGID_1_" cx="88.12" cy="87.3" r="71.76"/>
			</defs>
			<clipPath id="SVGID_2_">
				<use xlink:href="#SVGID_1_"  style="overflow:visible;"/>
			</clipPath>
			<g class="st1">
				
					<rect x="19.91" y="75.54" transform="matrix(1 -2.923511e-03 2.923511e-03 1 -0.2604 0.0702)" class="st2" width="7.93" height="27.13"/>
				
					<rect x="21.48" y="69.84" transform="matrix(1 -2.918629e-03 2.918629e-03 1 -0.2162 0.0697)" class="st2" width="4.59" height="8.54"/>
				
					<rect x="8.66" y="90.31" transform="matrix(1 -2.920313e-03 2.920313e-03 1 -0.2865 0.0378)" class="st3" width="8.3" height="15.62"/>
				
					<rect x="31.94" y="81.56" transform="matrix(1 -2.928607e-03 2.928607e-03 1 -0.2628 0.1106)" class="st2" width="11.4" height="16.48"/>
				
					<rect x="23.89" y="89.08" transform="matrix(1 -2.915913e-03 2.915913e-03 1 -0.272 0.084)" class="st4" width="9.55" height="8.49"/>
				<polygon class="st5" points="51.96,96.64 46.75,96.65 46.71,78.31 51.92,83.13 				"/>
				<polygon class="st2" points="50.42,98.01 45.21,98.02 45.16,79.68 50.37,84.5 				"/>
				
					<rect x="44.34" y="91.9" transform="matrix(1 -2.928793e-03 2.928793e-03 1 -0.2771 0.1769)" class="st4" width="31.84" height="5.58"/>
				
					<rect x="52.98" y="78.29" transform="matrix(1 -2.906855e-03 2.906855e-03 1 -0.2471 0.1601)" class="st5" width="3.97" height="13.63"/>
				
					<rect x="56.02" y="82.55" transform="matrix(1 -2.931258e-03 2.931258e-03 1 -0.2554 0.1726)" class="st2" width="5.51" height="9.35"/>
				
					<rect x="60.96" y="71.63" transform="matrix(1 -2.934527e-03 2.934527e-03 1 -0.2397 0.1878)" class="st2" width="5.82" height="20.26"/>
				
					<rect x="61.99" y="68.97" transform="matrix(1 -2.909500e-03 2.909500e-03 1 -0.2051 0.1861)" class="st2" width="3.78" height="3.23"/>
				
					<rect x="63.16" y="86.25" transform="matrix(1 -2.925485e-03 2.925485e-03 1 -0.2603 0.1999)" class="st4" width="10.1" height="5.63"/>
				
					<rect x="72.54" y="61.44" transform="matrix(1 -2.931977e-03 2.931977e-03 1 -0.2326 0.2307)" class="st4" width="12.02" height="35.99"/>
				
					<rect x="85.81" y="33.72" transform="matrix(1 -2.851010e-03 2.851010e-03 1 -0.1142 0.2469)" class="st6" width="1.48" height="12.88"/>
				
					<rect x="90.45" y="33.7" transform="matrix(1 -2.940365e-03 2.940365e-03 1 -0.1176 0.2683)" class="st6" width="1.48" height="12.88"/>
				
					<rect x="157.27" y="92.43" transform="matrix(1 -2.925010e-03 2.925010e-03 1 -0.28 0.4867)" class="st3" width="17.93" height="7.06"/>
				
					<rect x="167.48" y="79.77" transform="matrix(1 -2.919834e-03 2.919834e-03 1 -0.261 0.5006)" class="st3" width="7.71" height="19.7"/>
				
					<rect x="12.01" y="97.37" transform="matrix(1 -2.925638e-03 2.925638e-03 1 -0.2979 0.2844)" class="st7" width="170.11" height="9.17"/>
				
					<rect x="152.9" y="85.98" transform="matrix(1 -2.929096e-03 2.929096e-03 1 -0.2729 0.4657)" class="st7" width="11.89" height="14.84"/>
				
					<rect x="143.19" y="79.85" transform="matrix(1 -2.923514e-03 2.923514e-03 1 -0.2595 0.4306)" class="st7" width="7.93" height="18.25"/>
				
					<rect x="143.96" y="67.8" transform="matrix(1 -2.921724e-03 2.921724e-03 1 -0.2166 0.4301)" class="st7" width="6.26" height="13.13"/>
				
					<rect x="90.61" y="91.74" transform="matrix(1 -2.925346e-03 2.925346e-03 1 -0.2762 0.2898)" class="st2" width="16.66" height="5.63"/>
				
					<rect x="95.24" y="88.69" transform="matrix(1 -2.928332e-03 2.928332e-03 1 -0.2655 0.2935)" class="st2" width="9.72" height="4.27"/>
				
					<rect x="96.54" y="86.15" transform="matrix(1 -2.914214e-03 2.914214e-03 1 -0.2555 0.2919)" class="st8" width="7" height="3.35"/>
				
					<rect x="95.22" y="75.43" transform="matrix(1 -2.929579e-03 2.929579e-03 1 -0.2377 0.2884)" class="st2" width="6.19" height="11.68"/>
				
					<rect x="96.99" y="69.75" transform="matrix(1 -2.851002e-03 2.851002e-03 1 -0.2077 0.2787)" class="st2" width="1.3" height="6.51"/>
				<path class="st6" d="M79.84,97.42c0,0,4.08-24.49,4.62-50.82l9.17-0.02c0,0,1.45,31.1,5.05,50.78L79.84,97.42z"/>
				
					<rect x="85.52" y="48.89" transform="matrix(1 -2.926200e-03 2.926200e-03 1 -0.1444 0.2608)" class="st3" width="7.06" height="1.18"/>
				
					<rect x="85.53" y="51.55" transform="matrix(1 -2.926200e-03 2.926200e-03 1 -0.1522 0.2608)" class="st3" width="7.06" height="1.18"/>
				
					<rect x="85.54" y="54.34" transform="matrix(1 -2.926145e-03 2.926145e-03 1 -0.1604 0.2609)" class="st3" width="7.06" height="1.18"/>
				
					<rect x="85.55" y="57.13" transform="matrix(1 -2.926200e-03 2.926200e-03 1 -0.1685 0.2609)" class="st3" width="7.06" height="1.18"/>
				
					<rect x="85.55" y="59.92" transform="matrix(1 -2.926145e-03 2.926145e-03 1 -0.1767 0.2609)" class="st3" width="7.06" height="1.18"/>
				
					<rect x="85.56" y="62.71" transform="matrix(1 -2.926199e-03 2.926199e-03 1 -0.1848 0.261)" class="st3" width="7.06" height="1.18"/>
				
					<rect x="85.57" y="65.5" transform="matrix(1 -2.926146e-03 2.926146e-03 1 -0.193 0.261)" class="st3" width="7.06" height="1.18"/>
				
					<rect x="85.59" y="68.28" transform="matrix(1 -2.926145e-03 2.926145e-03 1 -0.2012 0.2611)" class="st3" width="7.06" height="1.18"/>
				
					<rect x="85.34" y="71.07" transform="matrix(1 -2.927078e-03 2.927078e-03 1 -0.2094 0.2612)" class="st3" width="7.56" height="1.18"/>
				
					<rect x="85.35" y="73.86" transform="matrix(1 -2.927129e-03 2.927129e-03 1 -0.2175 0.2612)" class="st3" width="7.56" height="1.18"/>
				
					<rect x="85.05" y="76.65" transform="matrix(1 -2.932146e-03 2.932146e-03 1 -0.2261 0.2617)" class="st3" width="8.17" height="1.18"/>
				
					<rect x="84.74" y="79.44" transform="matrix(1 -2.921397e-03 2.921397e-03 1 -0.2334 0.2608)" class="st3" width="8.79" height="1.18"/>
				
					<rect x="84.44" y="82.21" transform="matrix(1 -2.926172e-03 2.926172e-03 1 -0.2419 0.2612)" class="st3" width="9.42" height="1.18"/>
				
					<rect x="84.2" y="85" transform="matrix(1 -2.926882e-03 2.926882e-03 1 -0.2501 0.2613)" class="st3" width="9.92" height="1.18"/>
				
					<rect x="83.78" y="87.79" transform="matrix(1 -2.924885e-03 2.924885e-03 1 -0.2581 0.2612)" class="st3" width="10.78" height="1.18"/>
				
					<rect x="83.54" y="90.58" transform="matrix(1 -2.925566e-03 2.925566e-03 1 -0.2663 0.2613)" class="st3" width="11.28" height="1.18"/>
				
					<rect x="83.11" y="93.37" transform="matrix(1 -2.934797e-03 2.934797e-03 1 -0.2754 0.2621)" class="st3" width="12.14" height="1.18"/>
				
					<rect x="102.69" y="68.23" transform="matrix(1 -2.930319e-03 2.930319e-03 1 -0.2421 0.3111)" class="st3" width="6.69" height="29.12"/>
				
					<rect x="103.57" y="65.44" transform="matrix(1 -2.933410e-03 2.933410e-03 1 -0.1989 0.3112)" class="st3" width="4.83" height="5.01"/>
				
					<rect x="104.83" y="61.04" transform="matrix(1 -2.947440e-03 2.947440e-03 1 -0.1877 0.3126)" class="st3" width="2.29" height="5.58"/>
				
					<rect x="110.13" y="69.69" transform="matrix(1 -2.930359e-03 2.930359e-03 1 -0.2442 0.3378)" class="st3" width="10.04" height="27.63"/>
				
					<rect x="111.2" y="64.24" transform="matrix(1 -2.919834e-03 2.919834e-03 1 -0.1998 0.3362)" class="st3" width="7.71" height="8.7"/>
				
					<rect x="112.01" y="57.65" transform="matrix(1 -2.918984e-03 2.918984e-03 1 -0.1791 0.3301)" class="st3" width="1.96" height="7.78"/>
				
					<rect x="116.27" y="57.64" transform="matrix(1 -2.944450e-03 2.944450e-03 1 -0.1807 0.3454)" class="st3" width="1.89" height="7.78"/>
				
					<rect x="112.98" y="59.84" transform="matrix(1 -2.904396e-03 2.904396e-03 1 -0.175 0.3356)" class="st3" width="4.97" height="1.18"/>
				
					<rect x="112.52" y="53.84" transform="matrix(1 -3.054806e-03 3.054806e-03 1 -0.1698 0.3453)" class="st3" width="0.87" height="3.81"/>
				
					<rect x="116.76" y="53.83" transform="matrix(1 -2.902068e-03 2.902068e-03 1 -0.1612 0.3403)" class="st3" width="0.87" height="3.81"/>
				
					<rect x="115.55" y="76.56" transform="matrix(1 -2.926804e-03 2.926804e-03 1 -0.2539 0.3501)" class="st6" width="7.87" height="20.75"/>
				
					<rect x="116.38" y="73.33" transform="matrix(1 -2.930188e-03 2.930188e-03 1 -0.2199 0.3503)" class="st6" width="6.15" height="3.81"/>
				
					<rect x="127.23" y="75.21" transform="matrix(1 -2.919834e-03 2.919834e-03 1 -0.2513 0.3831)" class="st3" width="7.71" height="22.07"/>
				
					<rect x="131.88" y="82.7" transform="matrix(1 -2.931817e-03 2.931817e-03 1 -0.2632 0.4015)" class="st4" width="9.85" height="14.56"/>
			</g>
		</g>
	</g>
	<g>
		<path class="st0" d="M8.45,88.12c0-0.74-0.27-0.47-0.31-0.58C8.22,88.78,8.53,88.09,8.45,88.12z"/>
		<polygon class="st0" points="10.11,100.16 9.97,99.97 10.56,101.67 		"/>
		<path class="st0" d="M12.73,111.16c0.16-1.17-1.26-3.9-1.51-5.92l0.03-0.35l-0.58-0.8c0.33,1.19,0.67,2.55,1.09,3.81
			C12.18,109.15,12.54,110.32,12.73,111.16z"/>
		<path class="st0" d="M13.83,117.22c0.03-0.42,0.63,1.17-0.47-1.35c0.02,0.13,0.03,0.18,0.06,0.26
			C13.51,116.37,13.63,116.68,13.83,117.22z"/>
		<path class="st0" d="M13.42,116.13C12.96,115.02,13.56,116.92,13.42,116.13L13.42,116.13z"/>
		<path class="st0" d="M15.7,121.21l-0.81-1.38c0.03,0.35,0.61,1.65,0.31,1.2C15.97,122.5,15.93,122.14,15.7,121.21z"/>
		<path class="st0" d="M16.66,122.43c0,0-0.11-0.18-0.21-0.35c-0.1-0.18-0.2-0.36-0.2-0.36C16.25,121.87,16.32,122.08,16.66,122.43z
			"/>
		<path class="st0" d="M15.37,120.2l0.85,1.52c-0.02-0.25,0.1-0.33-0.38-0.71C16.04,121.09,15.78,120.83,15.37,120.2z"/>
		<path class="st0" d="M15.04,119.27c-0.29-0.84-0.64-1.93,0.12-0.54C13.97,115.96,13.79,116.5,15.04,119.27z"/>
		<path class="st0" d="M13.38,111.57c0,0-0.06-0.29-0.12-0.57c-0.06-0.29-0.1-0.58-0.1-0.58l-0.43-0.92
			C12.92,109.95,13.24,111.68,13.38,111.57z"/>
		<path class="st0" d="M20.24,130.02c0.13,0.03-0.07-0.6-0.02-0.76c0,0-0.18-0.24-0.36-0.46c-0.17-0.24-0.35-0.47-0.35-0.47
			C19.75,128.88,20.32,129.87,20.24,130.02z"/>
		<path class="st0" d="M20.22,129.26l1.09,1.38C20.49,129.32,20.27,129.12,20.22,129.26z"/>
		<path class="st0" d="M17.25,122.44c0,0-0.42-0.58-0.79-1.2c-0.38-0.62-0.75-1.23-0.75-1.23s0.44,0.74,0.88,1.47
			c0.44,0.73,0.92,1.44,0.92,1.44L17.25,122.44z"/>
		<path class="st0" d="M24.04,135.57l-0.78-0.67c0,0,0.33,0.31,0.66,0.62c0.35,0.29,0.69,0.6,0.69,0.6L24.04,135.57z"/>
		<path class="st0" d="M26.86,139.02c-0.63-0.44,0.42,0.98-0.19,0.46c0.83,0.89,1.62,1.57,2.36,2.16
			C28.31,140.98,27.64,140.15,26.86,139.02z"/>
		<path class="st0" d="M30.28,142.63c-0.37-0.33-0.79-0.64-1.24-0.98C29.44,142,29.84,142.33,30.28,142.63z"/>
		<path class="st0" d="M22.94,133.13c0.03,0.15,0.04,0.45,0.57,1.29l-0.17-0.73C23.22,133.52,23.09,133.33,22.94,133.13z"/>
		<path class="st0" d="M23.33,133.67l0.01,0.02c0.43,0.61,0.73,1.03,0.85,1.21C24.09,134.76,23.83,134.39,23.33,133.67z"/>
		<path class="st0" d="M22.85,133c0.03,0.06,0.07,0.09,0.1,0.15C22.93,133.06,22.92,133.03,22.85,133z"/>
		<path class="st0" d="M19.19,126.58c0.65,0.81,1.86,2.55,1.03,0.65C19.68,126.7,20.15,127.79,19.19,126.58z"/>
		<path class="st0" d="M22.64,132.1c0,0-0.26-0.38-0.48-0.79c-0.24-0.39-0.47-0.8-0.47-0.8c-0.04,0.07,0.04,0.42-0.29,0.02
			c0,0,0.31,0.39,0.62,0.79C22.31,131.73,22.64,132.1,22.64,132.1z"/>
		<polygon class="st0" points="23.24,132.78 22.64,132.1 23.02,132.67 		"/>
		<path class="st0" d="M28.31,140.1c0.62,0.53,1.2,1.18,1.91,1.87c-0.7-0.81-1.41-1.64-2.09-2.43
			C27.98,139.48,27.56,139.25,28.31,140.1z"/>
		<path class="st0" d="M25.83,137.02c0.03,0.04,0.09,0.09,0.12,0.13C25.91,137.05,25.85,136.98,25.83,137.02z"/>
		<polygon class="st0" points="37.33,148.65 37.25,148.5 37.19,148.52 		"/>
		<path class="st0" d="M28.07,139.37c-0.48-0.64-0.84-0.96-1.21-1.24c0.42,0.43,0.84,0.9,1.29,1.41
			C28.21,139.56,28.25,139.55,28.07,139.37z"/>
		<path class="st0" d="M32.29,144.49c-0.27-0.34-0.56-0.7-0.88-1.09C31.63,143.77,32.13,144.44,32.29,144.49z"/>
		<path class="st0" d="M26.07,137.41c-0.02-0.03-0.06-0.06-0.08-0.09C26.09,137.57,26.1,137.53,26.07,137.41z"/>
		<path class="st0" d="M26.07,137.41c0.29,0.29,0.54,0.51,0.79,0.72c-0.33-0.36-0.62-0.7-0.9-0.98
			C26,137.25,26.04,137.34,26.07,137.41z"/>
		<path class="st0" d="M40.76,149.04c-0.25,0.11-2.08-0.91-3.23-2.32c-1.45-0.99-1.16,0.39-0.29,1.79c0.12-0.06,0.16-0.1,1.71,0.89
			c-0.45-0.47-2.89-2.84-1.57-2.02c1.91,1.46,1.47,1.3,2.29,2.16c-0.58-0.85,2.7,1.5,2.59,0.76c0,0-0.46-0.26-0.89-0.55
			c-0.44-0.29-0.88-0.57-0.88-0.57C40.5,149.08,41.18,149.46,40.76,149.04z"/>
		<path class="st0" d="M34.62,146.2l-0.57-0.49c0.58,0.63,0.98,1.11,1.71,2.01c1.03,0.73,1.3,0.82,1.42,0.81c0,0-0.7-0.62-1.39-1.23
			c-0.35-0.3-0.7-0.62-0.96-0.84c-0.25-0.24-0.42-0.4-0.42-0.4L34.62,146.2z"/>
		<path class="st0" d="M31.62,143.35c0.6,0.25,2.01,1.37,1.42,0.39c-1.59-1.52-1.25-0.93-2.26-1.78c2.52,2.52-0.82-0.63,0.84,1.35
			c-0.52-0.47-0.97-0.92-1.39-1.34c0.42,0.48,0.82,0.97,1.19,1.43c-0.02-0.03-0.03-0.04-0.04-0.07l-0.01-0.01l0,0
			c-0.08-0.13-0.1-0.19,0-0.04c0.01,0.01,0.04,0.03,0.06,0.04C31.47,143.31,31.54,143.33,31.62,143.35
			c0.67,0.79,0.06,0.17-0.19-0.04c-0.02,0-0.04-0.01-0.06,0l0.01,0.01c0,0,0.64,0.63,1.33,1.2c0.67,0.58,1.35,1.18,1.35,1.18
			C33.54,145.15,32.82,144.52,31.62,143.35z"/>
		<path class="st0" d="M21.72,128.53c0.03,0.1,0.02,0.11,0,0.13C21.87,128.84,21.94,128.89,21.72,128.53z"/>
		<path class="st0" d="M22.36,129.85c-0.17-0.19-0.38-0.31-0.81-1.02c-0.31-0.65,0.11-0.07,0.18-0.15
			c-0.34-0.38-1.11-1.38-0.39,0.02l0.17,0.19c0.69,1.25,1.38,2.99,1.21,2.8C22.7,131.19,22.65,130.77,22.36,129.85z"/>
		<path class="st0" d="M26.74,136.84c0,0,0.47,0.57,0.99,1.1c0.51,0.53,1.02,1.07,1.02,1.07l-0.81-1.29l-0.07,0.16
			C26.85,136.55,26.97,136.93,26.74,136.84z"/>
		<path class="st0" d="M37.5,148.98l-0.49-0.02c0,0,0.39,0.2,0.8,0.38s0.81,0.36,0.81,0.36L37.5,148.98z"/>
		<polygon class="st0" points="40.58,151.34 40.31,151.47 41.24,151.94 		"/>
		<path class="st0" d="M153.82,48.14l-0.48-0.69C153.56,47.78,153.7,47.99,153.82,48.14z"/>
		<path class="st0" d="M156.72,53.5l0.18,0.08C156.72,53.35,156.62,53.27,156.72,53.5z"/>
		<path class="st0" d="M130.25,154.96c1.2-0.48,2.62-0.94,2.33-1.11l-0.49-0.02C131.37,154.36,130.78,154.71,130.25,154.96z"/>
		<path class="st0" d="M164.64,102.43c-0.04,0.11-0.1,0.22-0.15,0.35c0.03,0.31,0.06,0.61,0.08,0.88
			C164.6,103.28,164.64,102.87,164.64,102.43z"/>
		<path class="st0" d="M163.62,101.34l0.46-1.57C163.96,100.12,163.81,100.63,163.62,101.34z"/>
		<path class="st0" d="M131.01,24.34c0,0-0.24-0.08-0.48-0.16c-0.25-0.07-0.49-0.15-0.49-0.15
			C131.3,24.89,130.83,24.39,131.01,24.34z"/>
		<path class="st0" d="M77.01,166.16c1.08,0.25,1.94,0.4,2.71,0.51C78.41,166.34,77.39,165.97,77.01,166.16z"/>
		<path class="st0" d="M157.68,48.73c-0.31-0.44-0.48-0.61-0.53-0.56C157.48,48.62,157.68,48.87,157.68,48.73z"/>
		<path class="st0" d="M82.9,166.93c-0.19-0.03-0.38-0.07-0.57-0.11c-0.81-0.02-1.62-0.01-2.6-0.15
			C80.68,166.92,81.81,167.04,82.9,166.93z"/>
		<path class="st0" d="M24.63,44.74c-0.06,0.07-0.12,0.15-0.18,0.21C24.47,45,24.54,44.9,24.63,44.74z"/>
		<path class="st0" d="M9.48,76.96c0.02-0.36,0.1-0.94,0.16-1.48C9.58,75.74,9.54,76.19,9.48,76.96z"/>
		<path class="st0" d="M53.9,159.48C53.15,159.15,53.77,159.47,53.9,159.48L53.9,159.48z"/>
		<path class="st0" d="M50.86,156.68c0.17,0.04,0.3,0.08,0.36,0.02C51.12,156.73,51,156.72,50.86,156.68z"/>
		<path class="st0" d="M91.03,165.25c0.02,0,0.04,0,0.07,0C90.86,165.2,90.9,165.21,91.03,165.25z"/>
		<path class="st0" d="M52.85,158.82c0.26,0.17,0.56,0.36,0.9,0.55C53.6,159.28,53.33,159.1,52.85,158.82z"/>
		<path class="st0" d="M52.94,159.01c-0.25-0.13-0.44-0.25-0.63-0.35C52.19,158.66,52.26,158.73,52.94,159.01z"/>
		<path class="st0" d="M54.95,159.95c-0.43-0.19-0.83-0.38-1.2-0.57c0.13,0.08,0.19,0.12,0.15,0.11
			C54.12,159.59,54.43,159.72,54.95,159.95z"/>
		<path class="st0" d="M77.76,10.82c-0.06,0-0.11,0-0.17,0C76.8,11.04,77.15,10.97,77.76,10.82z"/>
		<path class="st0" d="M144.51,139.33c-0.02,0.03-0.03,0.04-0.06,0.08c0.02-0.02,0.07-0.06,0.09-0.08H144.51z"/>
		<path class="st0" d="M146.23,137.05c-0.53,1.15-0.99,1.66-1.69,2.27l1.26-0.13L146.23,137.05z"/>
		<path class="st0" d="M145.13,36.46l1.11,1.66c-1.89-1.53-2.92-2.9-1.97-1.28c0.4-0.18,1.74,1.21,2.96,2.71
			c0.61,0.74,1.21,1.5,1.72,2.03c0.48,0.56,0.88,0.91,1.1,0.83l0.61,1.18c-0.21-0.31-0.29-0.33-0.49-0.64
			c1.14,2.3,1.63,1.18,3.33,4.02c0.55,1.01,0.81,1.79,0.34,1.16l1.47,2.1c0.35,0.66,0.12,0.57-0.22-0.08c0,0,0.12,0.21,0.31,0.53
			c0.17,0.33,0.4,0.75,0.64,1.18c0.46,0.85,0.92,1.72,0.92,1.72l-0.03-0.01c0.39,0.43,1.09,1.5,1.44,2.02
			c0.29,0.96-0.29-0.42-0.29-0.13c0,0,0.27,0.47,0.55,0.94c0.28,0.47,0.54,0.96,0.54,0.96c0.06,0.46-0.13,0.28-0.4-0.17
			c-0.29-0.45-0.67-1.17-0.97-1.86c0.01,2.19,0.99,1.53,2.08,5.78c0,0-0.19-0.47-0.42-0.93c-0.21-0.46-0.43-0.92-0.43-0.92
			c0.03,1.38,0.72,2.81,1.15,5.07c-0.01-0.55-0.72-4.6,0.25-2.46c0.15,0.65,0.4,1.47,0.97,2.63c-0.3,0.11,0.11,1.27,0.55,2.74
			l-0.46,0c0.58,1.56,0.7,1.39,1.12,2.3c0.38,1.82,0.16,2.26-0.04,2.74c0.46,2.92,0.15-2.12,0.85,1.33
			c0.16,1.23,0.33,2.27,0.51,3.37c0.19,1.1,0.48,2.25,0.7,3.72c-0.01,1.74-0.28-0.28-0.36,0.35l0.46,1.51
			c0.02,0.38-0.09,0.26-0.15,0.2c0.2,1.29,0.44,0.08,0.62,2.12c0.22,0.27,0.12,1.34-0.04,2.63c-0.2,1.3-0.35,2.83-0.18,4.11
			c-0.17,0.62-0.24-0.31-0.42-0.13c0.1,3.46,0.09,2.95,0.17,5.87c0,0-0.15,0.6-0.29,1.19c-0.15,0.6-0.34,1.18-0.34,1.18
			c0.63-1.72,0.6,0.6,0.55,2.65c0.26-0.61,0.49-1.12,0.62-1.47c0,0-0.09,0.81-0.17,1.62c-0.09,0.81-0.24,1.62-0.24,1.62
			c-0.16,0.37-0.22,0.01-0.28-0.54c-0.01,0.22-0.02,0.44-0.03,0.61c-0.42,1.1-0.52,0.45-0.56-0.4c0.17-0.36,0.35-0.73,0.52-1.08
			c-0.11-0.84-0.27-1.62-0.54-1.5c0.01,0.21-0.01,0.62-0.07,1.06c-0.03-0.21-0.07-0.36-0.13-0.27c-0.07,0.1-0.01,0.45-0.03,0.98
			l-0.62,0.61l0.15,0.21c0,0-0.3,1-0.61,2c-0.31,1-0.69,1.97-0.69,1.97c-0.08,0.74-0.15,1.48-0.22,2.23
			c-0.11,0.74-0.22,1.51-0.35,2.32c-0.25,1.63-0.74,3.44-1.56,5.7c0.17-1.23-0.42-0.45-0.76-0.67c0.88-1.05,1.25-3.46,2.07-5.78
			c-0.45,1.2-0.55,0.87-0.51,0.54c0,0-0.07,0.27-0.16,0.66c-0.09,0.4-0.22,0.93-0.39,1.46c-0.3,1.06-0.62,2.11-0.62,2.11
			c-0.27-0.21-0.56,0.78-1.17,1.75c0.97-0.52-0.91,3.17-1.61,4.83c-0.25,0-0.26-0.49,0.78-2.41c-1.54,1.9-0.67,3.15-2.25,4.99
			c0.26-0.46,0.43-0.7,0.44-0.93c-0.22,0.58-0.74,1.53-1.19,2.23c-0.45,0.7-0.85,1.12-0.74,0.78l0.28-0.45
			c-0.49,0.73-1.1,1.66-1.73,2.66c-0.66,0.98-1.36,2.01-2,2.98c-1.33,1.89-2.41,3.52-2.37,3.89c-0.08-0.02-0.22-0.79-0.18-1.02
			c0,0-0.15,0.38-0.4,0.94c-0.25,0.56-0.58,1.32-0.92,2.07c-0.33,0.76-0.71,1.51-1,2.06c-0.28,0.56-0.47,0.93-0.47,0.93
			c0.03-0.73-2.26,0.01-0.45-2.3c-0.64,0.55-1.36,1.28-2.52,2.63c0.46-0.34,1.52-0.51,0.99,0.08c-1.94,1.1-1.27,0.87-3.53,2.3
			c0.72-0.48,0.51,0.7-0.54,1.59c0.09-0.22-0.57-0.49-0.26-0.88c0,0-0.52,0.7-1.03,1.39c-0.53,0.69-1.09,1.35-1.09,1.35
			c0.58-0.63-0.28-0.58-1-0.28c0.18-0.06-0.39,0.39-1.09,0.93c-0.72,0.52-1.59,1.1-1.92,1.39l1.26-0.7
			c-3.16,2.12-2.48,3.05-5.77,5.04c0.33-0.37,0.49-1.38-1.21-0.49c-0.55,0.78-2.51,3.58-5.53,5.27l-0.69,0.08
			c0,0-0.57,0.33-1.15,0.66c-0.57,0.34-1.17,0.62-1.17,0.62c1.39-1.17,4.97-4.18,6.82-5.75c-1.34,0.52-0.47-0.04-2.35,0.96
			c-0.75,0.16,0.89-0.81,1.44-1.1c0,0-1.11,0.54-2.21,1.07c-0.55,0.28-1.12,0.51-1.55,0.69c-0.43,0.18-0.71,0.3-0.71,0.3
			c0.19,0.16-0.62,0.65-1.44,1.14c-0.84,0.45-1.7,0.89-1.54,1.02c0,0,0.3-0.15,0.75-0.38c0.46-0.21,1.06-0.53,1.64-0.88
			c1.18-0.66,2.35-1.33,2.35-1.33c0.39,0.27-2.27,2.53-5.64,3.71c-0.9,0.17,0.35-0.99,0.21-1.1c-0.35,0.35-3.04,1.43-3.38,1.42
			l1.34-0.71c-1.89,0.48-2.84,1.61-5.24,1.83c-0.79,0.22-2.48,0.06-2.55,0.34c1.41,0.19,2.07,1.65,1.28,2.23
			c-0.29,0.04-4.37,0.53-5.35,0.39c-1.41-0.15,1.82-1.29,0.63-1.43c-0.02,0.12-0.73,0.4-1.02,0.51c-0.87,0.06,0.28-0.44-1.54-0.04
			c-0.24,0.49-3.77,0.45-0.82,0.49c-1.8,0.34-1.93,0.21-4.06,0.4c0.71,0.21-1.83,1.18-3.7,1.37c0.1-0.11-0.31-0.26-0.52-0.31
			c-0.94,0.01-1.78,0.01-2.55,0.01c-0.78-0.04-1.5-0.09-2.2-0.12c-1.42-0.07-2.8-0.2-4.54-0.35c-0.31-0.12-1.99-0.39-1.25-0.53
			c-0.51,0.02-0.98,0.11-2.06-0.01c-2.02-0.64,2.39,0.24,0.87-0.43c-0.16,0.22-2.81,0.07-4.35-0.09c0.2,0.22,1.07,0.44,2.09,0.52
			c1.02,0.08,2.19,0.09,2.96,0.11c-0.02,0.28-0.72,0.48-1.88,0.58c-1.17,0.13-2.79,0.08-4.64-0.12c-2.93-0.42-1.18-0.61-1.71-0.62
			c-1.35-0.33-2.32-0.51-3.09-0.6c-0.76-0.13-1.34-0.17-1.88-0.21c-1.08-0.09-2.06-0.17-4.19-1.11c-1.62-0.92,0.16-0.7-0.15-1.07
			c1.16,0.31,2,0.67,2.77,0.98c0.76,0.29,1.45,0.57,2.23,0.79l-1.88-0.7c0.76,0.09,2.33,0.44,3.14,0.78
			c-0.35-0.18-1.08-0.43-2.03-0.73c-0.97-0.28-2.16-0.65-3.41-1.1c-1.27-0.4-2.59-0.91-3.83-1.44c-1.26-0.48-2.41-1.06-3.34-1.56
			c-0.73-0.2-1.98-0.62-1.47-0.24l1.25,0.51c1.01,0.76-2.48-0.67-0.98,0.15c-0.88-0.26-1.78-0.62-2.77-1.01
			c-0.99-0.39-2.02-0.9-3.09-1.63l-0.21-0.6c-0.01,0.12,1.33,1.05,2.02,1.28c-1.01-0.38-3.15-2.37-4.38-2.59c0,0,0.34,0.3,0.69,0.6
			c0.34,0.31,0.7,0.58,0.7,0.58c-1.66-0.78-3.85-1.61-5.62-3.06c0.63,0.93,0.45,0.27,1.53,1.59c-0.88-1.24,4.95,3.17,3.35,1.44
			c1.18,1.28,2.36,1.68,4.09,3.08c0-0.15-0.57-0.58,1.11,0.35c0.09,0,0.3,0.06,0.43,0.09c0.04,0.03,0.07,0.04,0.11,0.07
			c-0.03-0.02-0.06-0.04-0.09-0.07c0.08,0.02,0.09,0.02-0.03-0.02c-0.38-0.26-0.69-0.49-0.79-0.63c0.49,0.07,1.42,0.48,2.35,0.85
			c0.94,0.36,1.89,0.74,2.38,0.88c1.01,0.52-0.49-0.06,0.01,0.33c0,0,0.37,0.1,0.75,0.2c0.38,0.09,0.76,0.17,0.76,0.17
			c0.02,0.33,2.64,1.56,0.07,0.74l2.26,0.9c1.28,0.64,3.14,1.33,4.33,1.57c1.09,0.37,2.88,0.46,1.86,0.42c0,0,0.93,0.21,1.86,0.42
			c0.93,0.17,1.88,0.34,1.88,0.34l0.02,0.08c1.82,0.47,3.76,0.64,5.72,0.93c1.99,0.18,4.01,0.48,6.14,0.87
			c0.63,0.01,1.27,0.02,2.02,0.04c0.75,0,1.6,0.01,2.65,0.08l0.4,0.27c1.62-0.06,4.89,0.17,5.58-0.15c0.89,0.25,2.88,0.22,4.98-0.11
			c2.1-0.27,4.31-0.78,5.72-0.98l0.04-0.35c0.98-0.15,1.9-0.43,2.89-0.69c0.99-0.26,2.02-0.57,3.17-0.99l-0.22-0.25
			c0.97-0.42,2.28-0.7,3.72-1.12c0.72-0.2,1.48-0.43,2.26-0.64c0.76-0.25,1.54-0.55,2.3-0.85c-0.17,0.19-0.96,0.47-1.54,0.63
			c3.99-0.75,7.47-3.76,10.8-5.06c0.72-0.54,1.29-0.83,1.88-1.09c-0.07,0.04-0.13,0.09-0.18,0.12c0.08-0.04,0.2-0.11,0.31-0.18
			c0.37-0.15,0.74-0.31,1.15-0.52c-0.36,0.16-0.69,0.29-0.97,0.42c0.6-0.35,1.44-0.97,2.27-1.59l0.54,0.03
			c0.07-0.04,0.12-0.09,0.19-0.13c0.91-0.45,0.6-0.56,0.01-0.47c0.4-0.31,0.75-0.65,1-0.92c0.96-0.07,2.1-1.66,3.28-1.94
			c0.19-0.33,1.17-1.16,2.1-2.01c0.9-0.9,1.75-1.81,1.78-2.2c0.08,0.03,0.33-0.13-0.09,0.22c0.91-0.69,1.77-1.44,2.39-2.25
			l0.63-0.04c0,0,0.35-0.53,0.71-1.06c0.33-0.54,0.66-1.09,0.66-1.09c1.21-0.92,1.75-1.28,0.94,0.02c1.1-1.48,1.53-2.07,1.92-2.6
			c0.39-0.54,0.76-1.01,1.56-2.34l0.11,0.28c0.67-0.88,1.47-2.47,2.05-2.86c0.92-0.84,2.72-3.31,4.59-6.31
			c1.81-3.04,3.67-6.58,5.12-9.41c-0.61,0.4-0.21-0.22,0.24-1.03c0.44-0.81,0.96-1.8,0.73-2.02c0.3-0.28,0.72-1.07,0.49-0.06
			c0.54-1.53,0.92-2.69,1.33-3.7c0.39-1.02,0.64-1.97,0.7-3.1c0.28-0.3,0.07,0.74,0.26,0.45c0.03-0.26,0.12-1.03,0.33-1.34
			c0.19-0.29,0.02,0.49-0.04,1.01c0.45-1.61,0.52-2.53,0.43-3.09c-0.09-0.56-0.33-0.76-0.55-0.94c0.63-1.56,0.75-2.39,0.61-3.64
			c0.27-0.54,0.62-1.46,0.33,0.56c0.3-1.11,1.29-6.93,0.83-7.09c0.13-0.35,0.15-1.6,0.12-1.9c0.24-2.56,0.18-2.8,0.22-5.33
			l-0.09,0.7c-0.46-1-0.11-2.09-0.24-4.13l0.06,0.06c0.11-2.34-0.06-2.84-0.1-3.34c-0.1-0.49-0.08-0.98-0.19-3.29l-0.28,0.29
			c-0.37-0.17-0.39-1.19-0.42-2.5c-0.06-1.3-0.15-2.9-0.52-4.19v0.99c-0.22-0.7-0.24-1.73-0.21-2.79c0.02-1.06,0.12-2.15-0.07-2.87
			c-0.03-0.33,0.25,0.46,0.39,0.89c-0.66-3.85-0.54-0.38-1.42-3.13c0.06-0.57,0.76,0.48,0.21-1.38c-0.08-0.48-0.7-1.78-1.37-3.25
			c-0.76-1.45-1.48-3.13-1.87-4.41c0.09,0.61,0.17,1.19-0.51,0.03c-0.85-1.84-1.8-5.3-3.2-6.64c-0.09-0.25-0.1-0.36-0.07-0.38
			c-0.46-0.64-1.11-1.73-1.83-2.69c-0.71-0.97-1.39-1.84-1.78-2.16c0.04-0.9-1.44-2.84-2.95-4.51c-1.47-1.7-2.96-3.13-2.56-3.44
			c0,0-0.79-0.91-1.62-1.79c-0.84-0.85-1.69-1.72-1.69-1.72l0.16,0.02c-2.11-2.25-3.13-2.78-4.06-3.34
			c-0.49-0.52-0.03-0.25,0.04-0.25c-1.64-1.54-2.53-2.41-3.49-3.05c-0.94-0.65-1.82-1.25-3.52-2.1l-0.12-0.49
			c-0.89-0.47-5.1-4.1-9.24-5.78c0.06-0.01,0.17-0.03,0.51,0.09c-2.29-0.98-4.88-2.45-7.24-3.52c-2.35-1.1-4.45-1.79-5.5-1.51
			c0,0-0.79-0.21-1.61-0.35c-0.81-0.15-1.61-0.3-1.61-0.3c4.02,1.23-0.74,0.33,0.87,0.99c-1.59-0.39-4.01-1.46-2.03-1.01l0.29,0.15
			c0.9-0.47-5.04-1.43-4.85-1.78c-8.17-1.55-16.37-2.14-24.17-1.3c0,0,0.24,0.09,0.47,0.18c0.24,0.09,0.47,0.2,0.47,0.2
			s-0.67,0.06-1.35,0.15c-0.67,0.08-1.35,0.16-1.35,0.16c-0.72-0.02-1-0.25,0.93-0.48c-1.06-0.15-3.2,0.65-3.24,0.8
			c-3.78,0.48,1.37-0.82,0.22-0.63l-1.56,0.31l0.36-0.01c-1.23,0.45-1.32,0.58-3.59,1.11c-1.46,0.24-0.81-0.12-1.38,0
			c0-0.03-0.2,0-0.88,0.19c0,0-0.83,0.21-1.66,0.44C65.83,10.92,65,11.16,65,11.16l1.43-0.01c-1.42,0.6-3.09,0.89-1.46,0.84
			c-1.2,0.02-4.26,0.96-7.12,2.15c-1.43,0.57-2.79,1.26-3.9,1.75c-1.09,0.53-1.91,0.97-2.25,1.07c-0.89,0.6-1.79,1.16-2.72,1.75
			c-0.94,0.58-1.98,1.15-3.07,1.86c0.58-0.28,1.14-0.12-0.76,1.03c0.18-1.21-3.62,1.94-5.41,2.59c0.76-0.34-0.47,0.67-1.61,1.63
			c-1.12,0.96-2.08,1.94-0.93,1.33c-1.45,1.17-0.3-0.18-1.51,0.6c-3.11,3.19-7.27,6.67-10.56,11.15c0.04,0.13,0.75-0.48,0.16,0.55
			c0,0-0.58,0.47-1.1,0.99c-0.54,0.51-1.08,1.02-1.08,1.02c-0.56,0.94-0.07,1.17-1.46,2.63c0.24-0.18,0.58-0.46,0.22,0.18
			c-3.17,4.37-5.62,9.38-7.56,14.56c-1.94,5.19-3.38,10.53-4.77,15.9c0.48-1.44,0.33-0.45,0.15,0.67c0.18-0.72,0.28,0.06,0.46-0.06
			c0,0-0.25,1.12-0.51,2.24c-0.12,0.56-0.25,1.12-0.35,1.55c-0.09,0.43-0.13,0.71-0.13,0.71c0.19,0.44,0.1,1.66,0.02,2.84
			c-0.09,1.18-0.07,2.33,0.12,2.56L9.27,83.8c0.22,0.98,0.51,0.3,0.83-0.55c0.36-0.85,0.74-1.9,1.05-1.73
			c-0.1-0.54-0.08-1.15,0.01-1.82c0.11-0.67,0.3-1.39,0.48-2.16c0.34-1.53,0.8-3.19,0.7-4.97c0.26-0.73,0.09,0.67,0.3,0.3
			c-0.13-0.91,0.07-1.96,0.62-3.85l0.01,0.24c0.63-2.68,1.21-4.56,1.96-6.48c0.36-0.96,0.73-1.93,1.23-3
			c0.47-1.08,0.97-2.28,1.66-3.65l-0.47,0.29c0.58-1.19,0.79-1.41,1.11-1.94c0.19-1.6-1.55,3.38-1.46,1.91
			c0.33-0.34,0.73-1.05,1.17-1.92c0.45-0.88,0.99-1.89,1.51-2.9c1.07-2,2.21-3.89,2.83-4.19c1.1-1.71-0.63,0.31,0.47-1.41l0.46-0.35
			l0.07-0.57c0.74-1.11,1.38-1.5,1.53-1.45c-0.2,0.25-0.49,0.78-0.67,1.07c0.6-0.64,1.28-1.64,1.87-2.54
			c0.6-0.9,1.15-1.65,1.35-1.87l-1.29,1.47c3.14-4.61,8-9.37,11.85-13.12l-0.4,0.16c1.45-1.47,2.18-1.89,2.89-2.41
			c0.71-0.52,1.51-0.99,3.32-2.35l-0.11,0.12c0.64-0.66,1.63-1.37,2.68-2.02c-0.87,0.76,1.98-0.88,0.83,0.09
			c3.68-2.53,1.75-1.35,4.07-3.26l0.72-0.09c0.8-0.64,0.8-0.84,2.83-1.86c-1.61,0.96,1.47-0.26-0.3,0.85
			c1.14-0.37,2.08-0.76,2.91-1.16c0.83-0.37,1.56-0.71,2.2-1.02c1.28-0.65,2.33-1.07,3.49-1.05c1.83-1.36-4,0.99-2.89,0.47
			c-0.52,0.09-0.15-0.2,0.54-0.57c0.69-0.34,1.7-0.74,2.42-0.94c0.72-0.25,1.41-0.25,2.36-0.29c0.97-0.02,2.16-0.25,4.01-0.65
			c-0.37,0.08-0.38,0.13-0.75,0.22c1.43-0.12,2.64-0.92,4.43-0.92c0.89-0.57,2.23-0.38,2.42-0.94l-3.42,0.74
			c0.96-0.25,1.87-0.6,2.96-0.93c1.09-0.33,2.36-0.54,4.01-0.61c-0.25,0.13-1.19,0.4-1.84,0.56c0.97,0.04,1.81-0.37,2.82-0.28
			c-0.11,0.26-1.17,0.4-2.44,0.6c-0.64,0.09-1.34,0.18-1.99,0.29c-0.65,0.15-1.28,0.31-1.79,0.51c1.02-0.01,3.89-1,2.92-0.28
			c0.71-0.46,1.64-0.55,2.7-0.65c1.07-0.04,2.26-0.07,3.52-0.45l-0.15,0.33c0.4-0.1,1.24-0.27,1.98-0.28l-1.34,0.45
			c2.06-0.39,3.99,0.16,5.97,0.06c-4.15-0.07-0.93-0.43-2.7-0.64c5.17-0.34,2.96,0.78,8.67,1.06c-0.78-0.03-2.89-0.4-1.66-0.47
			c1.09,0.11,2.51,0.42,3.15,0.67c3.78,0.4-0.54-0.39,1.09-0.38c1.24,0.52,1.88,0.12,3.55,0.29l-0.04,0.31
			c4.23,1.03,1.27-0.43,5.06,0.65l-1.72,0.07c0,0,0.51,0.09,1.01,0.17c0.51,0.08,1,0.19,1,0.19l-0.49,0.25
			c2.19,0.35,2.87,0.53,4.89,1.33c-0.4-0.37,0.45-0.46,2.29,0.15c1.18,0.63-0.79,0.01,1.78,0.96c-0.65-0.02-1.35-0.08-2.38-0.72
			c-0.15,0.06-0.64,0-0.8,0.06c1.28,0.62,3.31,1.27,4.23,1.62c-0.35-0.15-0.76-0.33-0.97-0.46c0,0,0.96,0.26,1.92,0.52
			c0.94,0.3,1.9,0.61,1.9,0.61c0.52,0.36,0.02,0.25-0.46,0.13c0.74,0.3,1.33,0.36,2.38,0.88c-0.38,0.1-0.43,0.35-1.99-0.21
			c0,0,0.22,0.08,0.55,0.2c0.34,0.11,0.78,0.27,1.2,0.46c0.87,0.36,1.74,0.72,1.74,0.72c0.18,0.2,1.56,1.16,1.09,1.01
			c0.87,0.58,2.03,1.09,3.26,1.68c1.2,0.64,2.51,1.28,3.58,2.16c0.15,0.04,0.4,0.17,0.91,0.47c0.52,0.39,1.01,0.78,1.52,1.17
			c0.48,0.4,0.96,0.82,1.44,1.24c1,0.81,2.03,1.65,3.31,2.54c0,0,0.26,0.37,0.51,0.74c0.26,0.36,0.49,0.75,0.49,0.75
			c1.82,1.57-1.33-2.06,1.72,0.57c2.17,1.86,0.49,1.01,1.11,1.81c0.57,0.43,1.37,1,2.21,1.74c0.84,0.74,1.68,1.71,2.39,2.81
			C146.08,37.59,145.69,37.04,145.13,36.46z M160.37,61.81c-0.24-0.53-0.83-1.53-0.82-1.99C160.14,60.3,160.16,60.84,160.37,61.81z
			 M163.06,106.63c0.01-0.44,0.2-1.09,0.49-1.8C163.45,105.37,163.32,105.98,163.06,106.63z M62.36,162.63c0.02,0,0.04,0,0.07,0.01
			C63.65,163.18,63.22,162.98,62.36,162.63z M59.79,161.55c-0.28-0.06-0.27-0.01-0.18,0.07c0.21-0.01,0.79,0.22,1.45,0.49
			C60.9,161.98,60.59,161.79,59.79,161.55z M68.88,10.32l0.54-0.04C68.26,10.64,68.57,10.48,68.88,10.32z"/>
		<path class="st0" d="M163.74,101.48c0.08-0.16,0.15-0.19,0.21-0.21C163.95,101.03,163.88,101.02,163.74,101.48z"/>
		<path class="st0" d="M131.19,24.4l-0.07-0.06c-0.06-0.01-0.08-0.01-0.1,0L131.19,24.4z"/>
		<path class="st0" d="M101.61,162.86c0.55-0.06,0.87-0.06,1.08-0.02C102.7,162.76,102.44,162.73,101.61,162.86z"/>
		<path class="st0" d="M46.33,155.54c0,0,0.38,0.24,0.79,0.43c0.39,0.2,0.8,0.4,0.8,0.4c-0.75-0.42-1-0.62-1.34-0.91
			C46.57,155.56,46.8,155.83,46.33,155.54z"/>
		<path class="st0" d="M35.3,144.73c-0.21-0.15-0.39-0.37-0.61-0.52l-0.06,0.16C35.43,145.12,36.06,145.54,35.3,144.73z"/>
		<path class="st0" d="M45.5,153.75c0.03-0.31-0.98-0.79-2-1.47l0.18,0.12C43.17,152.51,44.31,153.18,45.5,153.75z"/>
		<path class="st0" d="M43.27,152.12c-0.31-0.21-0.64-0.43-0.93-0.65C42.12,151.5,42.68,151.76,43.27,152.12z"/>
		<path class="st0" d="M56.46,160.39c-0.52-0.3-0.47,0.16-0.74-0.08C54.97,160.38,59.5,161.54,56.46,160.39z"/>
		<polygon class="st0" points="45.15,152.48 45.34,153 46.06,153.13 		"/>
		<path class="st0" d="M53.41,157.51l-1.71-0.97c0,0.07-0.24-0.02-0.52-0.13C52.25,156.95,53.41,157.62,53.41,157.51z"/>
		<path class="st0" d="M51.18,156.39c-0.55-0.29-1.07-0.61-1.41-0.72C50.08,155.83,50.71,156.2,51.18,156.39z"/>
		<path class="st0" d="M47.45,153.83l0.45,0.37l1.18,0.71c0,0-0.42-0.26-0.83-0.53C47.84,154.12,47.45,153.83,47.45,153.83z"/>
		<path class="st0" d="M73.32,164.27l2.12,0.28c0.24-0.08-0.33-0.25-1.12-0.34C73.8,164.19,73.02,164.1,73.32,164.27z"/>
		<path class="st0" d="M67.26,161.9c0.53,0.22,0.55,0.3,0.83,0.49l0.17-0.38L67.26,161.9z"/>
		<path class="st0" d="M73.27,163.24c0.24-0.08,3.07,0.2,0.44-0.22C73.49,163.1,71.39,162.79,73.27,163.24z"/>
		<polygon class="st0" points="105.02,163.33 104.51,163.46 104.72,164.1 		"/>
		<path class="st0" d="M130.03,151.02c-2.17,1.2-0.26,0.67-2.26,1.7c-0.4,0.45,1.64-0.83,1.2-0.4
			C130.14,151.37,130.85,151.02,130.03,151.02z"/>
		<path class="st0" d="M128.97,152.32c-0.18,0.16-0.38,0.33-0.58,0.51C128.72,152.55,128.88,152.41,128.97,152.32z"/>
		<path class="st0" d="M8.55,82.97c0,0-0.08,0.42-0.11,0.82c-0.04,0.42-0.09,0.83-0.09,0.83l0.25-1.06L8.55,82.97z"/>
		<path class="st0" d="M8.95,86.16l-0.44,0.38l0.37,0.99C8.88,87.16,8.85,86.44,8.95,86.16z"/>
		<path class="st0" d="M160.89,66.27l0.13,0.09c0.04-0.27-0.06-0.63-0.25-1.34L160.89,66.27z"/>
		<polygon class="st0" points="152.41,46.65 152.6,46.98 152.56,46.18 		"/>
		<path class="st0" d="M140.71,33.05c0.53,0.51,1.18,1.07,1.68,1.61C141.26,33.54,140.9,32.58,140.71,33.05z"/>
	</g>
	<g>
		<path class="st0" d="M148.79,25.5c0.57,0.57,0.55,0.18,0.67,0.22C148.44,24.84,148.77,25.58,148.79,25.5z"/>
		<polygon class="st0" points="138.19,17.41 138.45,17.44 136.67,16.56 		"/>
		<path class="st0" d="M127.61,10.89c0.8,0.99,4.01,2.06,5.78,3.43l0.25,0.28l1.06,0.2c-1.17-0.67-2.51-1.46-3.8-2.12
			C129.6,12.02,128.42,11.38,127.61,10.89z"/>
		<path class="st0" d="M122.01,7.13c0.3,0.34-1.39-0.43,1.42,0.67c-0.12-0.08-0.17-0.1-0.24-0.16
			C122.93,7.54,122.58,7.39,122.01,7.13z"/>
		<path class="st0" d="M123.18,7.65C124.41,8.17,122.45,7.17,123.18,7.65L123.18,7.65z"/>
		<path class="st0" d="M117.47,5.47l1.69,0.46c-0.3-0.22-1.75-0.8-1.18-0.67C116.27,4.72,116.57,4.95,117.47,5.47z"/>
		<path class="st0" d="M115.79,5.25c0,0,0.22,0.06,0.44,0.1c0.21,0.06,0.44,0.12,0.44,0.12C116.54,5.37,116.32,5.27,115.79,5.25z"/>
		<path class="st0" d="M118.52,6l-1.84-0.53c0.21,0.16,0.18,0.31,0.84,0.26C117.32,5.81,117.72,5.81,118.52,6z"/>
		<path class="st0" d="M119.5,6.45c0.89,0.43,2,0.99,0.34,0.48C122.91,8.16,122.62,7.63,119.5,6.45z"/>
		<path class="st0" d="M126.82,11.04c0,0,0.27,0.17,0.55,0.35c0.27,0.17,0.53,0.37,0.53,0.37l1.05,0.39
			C128.43,11.93,126.82,10.86,126.82,11.04z"/>
		<path class="st0" d="M107.1,2.19c-0.12,0.08,0.52,0.38,0.61,0.54c0,0,0.33,0.03,0.64,0.09c0.31,0.06,0.64,0.11,0.64,0.11
			C108.37,2.66,107.16,2.36,107.1,2.19z"/>
		<path class="st0" d="M107.72,2.73l-1.91-0.24C107.47,2.87,107.8,2.85,107.72,2.73z"/>
		<path class="st0" d="M115.33,5.65c0,0,0.78,0.13,1.54,0.34c0.76,0.19,1.53,0.38,1.53,0.38s-0.91-0.25-1.82-0.48
			c-0.91-0.24-1.83-0.42-1.83-0.42L115.33,5.65z"/>
		<path class="st0" d="M99.86,0.83l1.11-0.06c0,0-0.49,0.01-0.99,0.01C99.49,0.82,99,0.84,99,0.84L99.86,0.83z"/>
		<path class="st0" d="M95,0.34c0.83-0.13-1.08-0.4-0.21-0.46c-1.34-0.06-2.48,0.01-3.51,0.12C92.35-0.04,93.51,0.08,95,0.34z"/>
		<path class="st0" d="M89.54,0.19c0.54-0.03,1.1-0.1,1.72-0.18C90.69,0.03,90.12,0.08,89.54,0.19z"/>
		<path class="st0" d="M102.61,1.82c-0.13-0.08-0.39-0.29-1.45-0.53l0.7,0.4C102.09,1.73,102.34,1.77,102.61,1.82z"/>
		<path class="st0" d="M101.89,1.7l-0.02-0.01c-0.81-0.15-1.37-0.24-1.61-0.28C100.46,1.45,100.94,1.54,101.89,1.7z"/>
		<path class="st0" d="M102.79,1.85c-0.07-0.01-0.12-0.02-0.19-0.03C102.67,1.86,102.71,1.87,102.79,1.85z"/>
		<path class="st0" d="M110.62,3.95c-1.14-0.13-3.42-0.57-1.3,0.25C110.14,4.21,108.93,3.75,110.62,3.95z"/>
		<path class="st0" d="M103.65,2.36c0,0,0.49,0.1,0.99,0.22c0.49,0.12,0.99,0.25,0.99,0.25c-0.02-0.08-0.36-0.27,0.2-0.22
			c0,0-0.54-0.07-1.09-0.13C104.19,2.39,103.65,2.36,103.65,2.36z"/>
		<polygon class="st0" points="102.65,2.28 103.65,2.36 102.91,2.21 		"/>
		<path class="st0" d="M93.03,0.59c-0.89,0.06-1.84,0.01-2.93,0.02c1.17,0.06,2.36,0.18,3.51,0.26C93.77,0.79,94.28,0.67,93.03,0.59
			z"/>
		<path class="st0" d="M97.35,1.04c-0.06,0-0.13,0-0.19-0.01C97.27,1.07,97.36,1.1,97.35,1.04z"/>
		<polygon class="st0" points="79.39,0.94 79.57,0.98 79.6,0.93 		"/>
		<path class="st0" d="M93.79,0.94c0.87,0.11,1.39,0.08,1.9,0.03c-0.65-0.02-1.35-0.04-2.09-0.1C93.52,0.91,93.51,0.93,93.79,0.94z"
			/>
		<path class="st0" d="M86.54,0.29c0.46,0.04,0.98,0.08,1.52,0.15C87.62,0.32,86.7,0.21,86.54,0.29z"/>
		<path class="st0" d="M96.86,0.93c0.04,0,0.09,0,0.13,0C96.72,0.84,96.75,0.87,96.86,0.93z"/>
		<path class="st0" d="M96.86,0.93c-0.45-0.01-0.81,0.01-1.17,0.03c0.53,0.03,1.02,0.07,1.46,0.08C97.04,1.01,96.94,0.96,96.86,0.93
			z"/>
		<path class="st0" d="M76.41,3.12c0.11-0.25,2.34-0.85,4.32-0.67c1.9-0.34,0.61-1.11-1.15-1.46c-0.04,0.13-0.04,0.19-2.02,0.6
			c0.71,0,4.45-0.07,2.79,0.29C77.73,2.21,78.19,2.01,76.89,2c1.11,0.18-3.27,0.89-2.62,1.33c0,0,0.55-0.16,1.12-0.26
			c0.56-0.11,1.12-0.22,1.12-0.22C76.58,2.91,75.77,3.13,76.41,3.12z"/>
		<path class="st0" d="M83.39,0.74l0.83-0.06c-0.94-0.03-1.63-0.08-2.89-0.19c-1.37,0.24-1.64,0.35-1.73,0.44
			c0,0,1.02-0.07,2.03-0.13c0.51-0.03,1.02-0.07,1.39-0.09c0.38-0.01,0.64-0.01,0.64-0.01L83.39,0.74z"/>
		<path class="st0" d="M87.95,0.61c-0.65,0.25-2.62,0.46-1.41,0.72c2.41-0.04,1.69-0.22,3.14-0.34c-3.91-0.01,1.12-0.13-1.7-0.36
			C88.76,0.6,89.44,0.6,90.1,0.6c-0.71-0.04-1.38-0.1-2.02-0.17c0.03,0.01,0.06,0.01,0.09,0.02h0.02l0,0
			c0.17,0.03,0.22,0.07,0.03,0.03c-0.01,0-0.06,0-0.08,0C88.09,0.55,88.02,0.58,87.95,0.61c-1.14-0.08-0.18-0.08,0.18-0.1
			c0.01-0.01,0.04-0.02,0.04-0.04h-0.01c0,0-0.99,0.01-1.97,0.09c-0.98,0.07-1.97,0.13-1.97,0.13C85.06,0.71,86.09,0.64,87.95,0.61z
			"/>
		<path class="st0" d="M107.17,4.29c-0.11-0.04-0.1-0.07-0.1-0.09C106.81,4.18,106.71,4.18,107.17,4.29z"/>
		<path class="st0" d="M105.64,3.78c0.28,0.02,0.54-0.04,1.43,0.18c0.75,0.25-0.03,0.13-0.01,0.24c0.55,0.03,1.93,0.24,0.27-0.29
			l-0.28-0.02c-1.51-0.43-3.41-1.2-3.14-1.18C104.33,3.05,104.69,3.32,105.64,3.78z"/>
		<path class="st0" d="M96.79,1.81c0,0-0.81-0.08-1.62-0.1s-1.62-0.04-1.62-0.04l1.63,0.36l-0.07-0.16
			C96.93,2.1,96.55,1.91,96.79,1.81z"/>
		<path class="st0" d="M79.01,0.83l0.4-0.34c0,0-0.46,0.13-0.92,0.3s-0.92,0.33-0.92,0.33L79.01,0.83z"/>
		<polygon class="st0" points="74.78,1.38 74.9,1.11 73.81,1.45 		"/>
		<path class="st0" d="M66.92,169.67l0.91,0.17C67.41,169.75,67.12,169.69,66.92,169.67z"/>
		<path class="st0" d="M60.48,167.76l-0.2,0.07C60.6,167.86,60.74,167.85,60.48,167.76z"/>
		<path class="st0" d="M2.37,68.16c-0.53,1.32-1.24,2.79-0.91,2.68l0.37-0.37C1.98,69.5,2.18,68.77,2.37,68.16z"/>
		<path class="st0" d="M16.32,135.73c-0.06-0.12-0.1-0.25-0.16-0.38c-0.26-0.22-0.51-0.44-0.72-0.64
			C15.71,135.02,15.98,135.38,16.32,135.73z"/>
		<path class="st0" d="M17.86,135.85l0.88,1.57C18.56,137.05,18.28,136.55,17.86,135.85z"/>
		<path class="st0" d="M103.24,170.47c0,0,0.25-0.11,0.51-0.24c0.25-0.12,0.49-0.26,0.49-0.26
			C102.58,170.31,103.34,170.3,103.24,170.47z"/>
		<path class="st0" d="M35,18.14c-1.02,0.65-1.81,1.21-2.48,1.72C33.78,19.1,34.85,18.57,35,18.14z"/>
		<path class="st0" d="M63.53,171.92c0.58,0.1,0.84,0.11,0.84,0.04C63.77,171.86,63.43,171.82,63.53,171.92z"/>
		<path class="st0" d="M29.86,22.13c0.18-0.12,0.35-0.25,0.53-0.37c0.64-0.61,1.27-1.25,2.14-1.9
			C31.6,20.43,30.63,21.21,29.86,22.13z"/>
		<path class="st0" d="M170.22,71.67c-0.01-0.1-0.02-0.21-0.03-0.3C170.14,71.34,170.18,71.48,170.22,71.67z"/>
		<path class="st0" d="M156.68,34.95c0.26,0.3,0.65,0.81,1.02,1.28C157.55,35.98,157.24,35.59,156.68,34.95z"/>
		<path class="st0" d="M58.13,5.4C58.97,5.09,58.25,5.32,58.13,5.4L58.13,5.4z"/>
		<path class="st0" d="M62.64,5.12c-0.17,0.09-0.29,0.17-0.3,0.25C62.39,5.28,62.49,5.19,62.64,5.12z"/>
		<path class="st0" d="M24.72,29.62c-0.02,0.02-0.03,0.03-0.06,0.06C24.89,29.53,24.84,29.55,24.72,29.62z"/>
		<path class="st0" d="M59.47,5.1c-0.34,0.07-0.72,0.17-1.12,0.28C58.52,5.32,58.86,5.25,59.47,5.1z"/>
		<path class="st0" d="M59.24,5.02c0.3-0.09,0.54-0.16,0.76-0.21C60.1,4.73,60,4.73,59.24,5.02z"/>
		<path class="st0" d="M56.96,5.86c0.48-0.19,0.93-0.35,1.38-0.49c-0.17,0.04-0.25,0.06-0.2,0.03C57.88,5.5,57.53,5.64,56.96,5.86z"
			/>
		<path class="st0" d="M155.19,139.45c0.04-0.04,0.09-0.09,0.13-0.13C155.77,138.54,155.55,138.87,155.19,139.45z"/>
		<path class="st0" d="M3.16,91.38c-0.01-0.04-0.01-0.07-0.01-0.1c0,0.04,0,0.09-0.01,0.13L3.16,91.38z"/>
		<path class="st0" d="M3.57,94.49c-0.45-1.3-0.49-2.07-0.43-3.08c0,0-0.2,0.27-0.4,0.54s-0.39,0.54-0.39,0.54L3.57,94.49z"/>
		<path class="st0" d="M82.8,172.01l-2.17-0.4c2.66-0.24,4.54,0.02,2.52-0.47c-0.17,0.42-2.29,0.37-4.41,0.15
			c-1.06-0.11-2.1-0.22-2.92-0.26c-0.81-0.07-1.39-0.04-1.51,0.17l-1.39-0.43c0.4,0.08,0.48,0.03,0.89,0.11
			c-2.69-0.87-2.17,0.28-5.71-0.6c-1.21-0.36-2.03-0.74-1.17-0.61l-2.78-0.51c-0.79-0.24-0.55-0.33,0.24-0.1
			c0,0-0.26-0.07-0.65-0.17c-0.38-0.11-0.9-0.27-1.42-0.43c-1.03-0.31-2.06-0.62-2.06-0.62l0.03-0.01c-0.63-0.04-2-0.36-2.68-0.49
			c-0.98-0.51,0.55,0.1,0.33-0.1c0,0-0.57-0.16-1.16-0.31s-1.16-0.33-1.16-0.33c-0.4-0.3-0.12-0.3,0.44-0.16
			c0.57,0.12,1.44,0.39,2.2,0.7c-1.75-1.61-1.96-0.44-6.14-2.86c0,0,0.52,0.21,1.05,0.4c0.53,0.19,1.05,0.39,1.05,0.39
			c-1.14-1-2.77-1.61-4.88-3c0.45,0.4,4.18,2.95,1.78,2.01c-0.62-0.38-1.47-0.82-2.8-1.29c0.13-0.29-1.09-0.88-2.59-1.69l0.31-0.31
			c-1.66-0.78-1.62-0.57-2.64-0.97c-1.72-1.11-1.9-1.61-2.14-2.12c-2.64-1.91,1.56,1.72-1.66-0.42c-0.54-0.43-1.05-0.8-1.55-1.15
			c-0.49-0.37-0.97-0.73-1.47-1.08c-1-0.71-2.11-1.39-3.43-2.38c-1.36-1.36,0.43,0.02-0.02-0.52l-1.51-0.84
			c-0.31-0.28-0.13-0.27-0.06-0.26c-1.16-0.85-0.37,0.25-2.1-1.21c-0.37-0.04-1.12-0.94-2.01-2.08c-0.87-1.16-1.96-2.46-3.07-3.34
			c-0.36-0.6,0.42,0.08,0.39-0.19c-2.74-2.65-2.34-2.26-4.65-4.49c0,0-0.36-0.57-0.72-1.15c-0.35-0.57-0.66-1.17-0.66-1.17
			c0.88,1.8-0.88-0.03-2.42-1.7c0.28,0.66,0.52,1.24,0.7,1.61c0,0-0.56-0.7-1.12-1.39c-0.55-0.71-1.07-1.44-1.07-1.44
			c-0.17-0.4,0.15-0.18,0.61,0.22c-0.16-0.18-0.31-0.36-0.44-0.49c-0.55-1.17,0.01-0.73,0.7-0.09c0.16,0.42,0.31,0.82,0.46,1.23
			c0.72,0.57,1.42,1.08,1.52,0.79c-0.17-0.16-0.46-0.49-0.75-0.88c0.19,0.15,0.33,0.24,0.3,0.12c-0.02-0.12-0.34-0.36-0.72-0.8
			l-0.03-0.93l-0.26-0.07c0,0-0.55-1.01-1.1-2.02c-0.54-1.01-1.01-2.06-1.01-2.06c-0.52-0.65-1.01-1.28-1.53-1.93
			c-0.48-0.67-0.97-1.36-1.5-2.09c-1.06-1.47-2.06-3.27-3.16-5.68c0.79,1.09,0.63,0.04,1.03-0.03c0.06,0.75,0.53,1.65,1.07,2.7
			c0.53,1.05,1.24,2.19,1.81,3.42c-0.58-1.28-0.27-1.09-0.06-0.8c0,0-0.16-0.26-0.39-0.64c-0.25-0.38-0.54-0.91-0.82-1.44
			c-0.57-1.07-1.15-2.14-1.15-2.14c0.35-0.03-0.19-1.03-0.48-2.26c-0.28,1.14-1.72-3.19-2.45-5.04c0.18-0.18,0.54,0.19,1.23,2.48
			c-0.33-2.66-1.86-3-2.1-5.64c0.16,0.56,0.21,0.88,0.38,1.07c-0.28-0.63-0.6-1.78-0.8-2.66c-0.19-0.89-0.22-1.54-0.06-1.18
			l0.13,0.57c-0.2-0.96-0.46-2.15-0.73-3.42c-0.25-1.28-0.51-2.63-0.75-3.88c-0.43-2.51-0.84-4.61-1.14-4.88
			c0.07-0.04,0.71,0.45,0.87,0.66c0,0-0.18-0.42-0.39-1.05c-0.22-0.64-0.53-1.48-0.83-2.34c-0.31-0.85-0.56-1.72-0.76-2.38
			c-0.19-0.65-0.33-1.09-0.33-1.09c0.49,0.6,1.59-1.77,1.94,1.44c0.07-0.92,0.04-2.07-0.08-4.01C2.96,87.92,2.33,88.87,2.29,88
			c0.61-2.37,0.29-1.65,0.88-4.55C3,84.38,2.31,83.3,2.43,81.8c0.1,0.25,0.75-0.07,0.8,0.48c0,0-0.12-0.94-0.25-1.89
			c-0.1-0.94-0.17-1.9-0.17-1.9c0.02,0.94,0.61,0.22,0.91-0.57c-0.09,0.18,0-0.62,0.12-1.57c0.15-0.97,0.37-2.09,0.42-2.59
			l-0.43,1.53c0.79-4.11-0.34-4.29,0.66-8.39c0.01,0.53,0.6,1.43,1.24-0.58c-0.13-1.02-0.65-4.68,0.4-8.34l0.46-0.61
			c0,0,0.19-0.7,0.39-1.39c0.19-0.7,0.44-1.38,0.44-1.38c-0.11,0.97-0.3,2.71-0.52,4.55c-0.21,1.84-0.35,3.81-0.54,5.16
			c0.63-1.45,0.37-0.35,1.07-2.59c0.45-0.72-0.09,1.3-0.29,1.97c0,0,0.45-1.28,0.89-2.56c0.21-0.64,0.48-1.27,0.66-1.74
			c0.19-0.47,0.31-0.79,0.31-0.79c-0.25,0.03,0.01-0.98,0.28-2c0.31-1,0.65-2,0.44-1.98c0,0-0.12,0.35-0.3,0.88
			c-0.19,0.53-0.42,1.24-0.61,1.96c-0.42,1.43-0.82,2.86-0.82,2.86c-0.47,0.11-0.09-3.7,1.62-7.24c0.55-0.84,0.43,1,0.6,0.99
			c0.01-0.54,1.27-3.46,1.54-3.73l-0.51,1.57c1.09-1.86,1.01-3.44,2.66-5.5c0.44-0.79,1.84-2.01,1.7-2.27
			c-1.2,0.97-2.72,0.44-2.52-0.61c0.1-0.12,0.84-1.08,1.64-2.1c0.79-1.03,1.77-2.02,2.15-2.39c1.17-0.99-0.49,2.37,0.52,1.53
			c-0.07-0.11,0.27-0.87,0.43-1.18c0.62-0.72,0.09,0.54,1.2-1.18c-0.16-0.54,2.57-3.28,0.28-1c1.15-1.65,1.34-1.68,2.84-3.49
			c-0.7,0.4,0.58-2.28,1.89-3.87c0,0.17,0.43-0.07,0.63-0.18c0.73-0.74,1.37-1.39,1.97-2c0.63-0.57,1.23-1.1,1.8-1.62
			c0.58-0.52,1.16-1.03,1.77-1.57c0.63-0.53,1.28-1.08,2.02-1.71c0.34-0.16,1.84-1.25,1.36-0.6c0.38-0.4,0.69-0.83,1.62-1.57
			c2.05-1.1-2.05,1.68-0.38,0.97c-0.03-0.28,2.16-2.21,3.49-3.27c-0.33,0-1.16,0.51-2.02,1.25c-0.85,0.73-1.79,1.62-2.41,2.19
			c-0.18-0.21,0.22-0.89,1.06-1.86c0.82-0.99,2.12-2.19,3.74-3.46c2.61-1.94,1.37-0.47,1.79-0.87c1.3-0.79,2.19-1.41,2.88-1.93
			c0.7-0.48,1.18-0.89,1.64-1.26c0.92-0.75,1.74-1.44,4.13-2.37c1.96-0.57,0.39,0.6,0.9,0.63c-1.15,0.65-2.08,1.03-2.91,1.39
			c-0.82,0.38-1.56,0.7-2.34,1.14l2-0.93c-0.67,0.52-2.16,1.45-3.04,1.83c0.4-0.13,1.17-0.52,2.15-1.03
			c0.48-0.26,1.03-0.56,1.62-0.88c0.6-0.29,1.24-0.61,1.89-0.92c0.66-0.31,1.33-0.66,2.01-0.98c0.7-0.29,1.39-0.6,2.08-0.89
			c1.36-0.6,2.69-1.06,3.8-1.39c0.73-0.4,2.02-1.03,1.35-0.92l-1.36,0.57c-1.37,0.21,2.47-1.36,0.67-0.82
			c0.89-0.47,1.87-0.88,2.95-1.34c0.54-0.22,1.11-0.44,1.71-0.64c0.62-0.18,1.26-0.35,1.96-0.49l0.62,0.25
			c-0.09-0.1-1.83,0.25-2.56,0.58c1.09-0.47,4.27-0.65,5.42-1.39c0,0-0.49,0.03-0.99,0.08c-0.51,0.02-0.99,0.1-0.99,0.1
			c1.9-0.66,4.25-1.69,6.76-1.94c-1.2-0.2-0.56,0.13-2.41-0.01c1.63,0.22-6.3,1.38-3.72,1.43c-1.9-0.03-3.13,0.55-5.55,0.85
			c0.11,0.1,0.89-0.02-1.15,0.57c-0.08,0.07-0.28,0.18-0.4,0.26c-0.07,0.01-0.09,0.02-0.13,0.03c0.04-0.01,0.08-0.01,0.11-0.02
			c-0.08,0.04-0.09,0.06,0.04-0.01c0.49-0.1,0.91-0.16,1.09-0.13c-0.45,0.31-1.47,0.7-2.5,1.14c-1.01,0.45-2.05,0.88-2.54,1.16
			C54.47,7.61,56.08,6.9,55.4,7c0,0-0.37,0.2-0.74,0.42c-0.36,0.22-0.73,0.45-0.73,0.45c-0.26-0.21-3.24,0.88-0.61-0.46l-2.44,1.06
			c-1.48,0.52-3.45,1.43-4.58,2.15c-1.12,0.56-2.61,1.84-1.77,1.1c0,0-0.89,0.55-1.77,1.11c-0.85,0.6-1.72,1.19-1.72,1.19
			l-0.07-0.06c-1.78,1.05-3.41,2.41-5.17,3.7c-1.69,1.39-3.5,2.73-5.43,4.1c-0.51,0.48-1.01,0.97-1.61,1.53
			c-0.57,0.58-1.25,1.23-2.12,2l-0.51,0.13c-1.23,1.29-3.91,3.68-4.22,4.44c-0.85,0.52-2.38,2.08-3.74,3.97
			c-0.69,0.93-1.43,1.89-2.03,2.81c-0.61,0.92-1.18,1.75-1.65,2.38l0.21,0.28c-0.64,0.87-1.14,1.81-1.71,2.77
			c-0.57,0.97-1.14,2.01-1.71,3.22h0.34c-0.44,1.07-1.24,2.3-2.01,3.77c-0.39,0.72-0.81,1.48-1.24,2.26
			c-0.39,0.79-0.76,1.62-1.12,2.46c-0.01-0.27,0.38-1.11,0.71-1.68C5.51,55.82,5.04,60.8,3.5,64.43c-0.15,0.98-0.37,1.65-0.62,2.3
			c0.02-0.09,0.03-0.17,0.04-0.24c-0.02,0.1-0.07,0.24-0.11,0.39c-0.17,0.4-0.33,0.83-0.47,1.29c0.16-0.39,0.29-0.76,0.42-1.08
			c-0.19,0.73-0.37,1.88-0.54,2.99L1.8,70.5c-0.01,0.09-0.03,0.16-0.04,0.26c-0.35,1.06-0.03,0.9,0.33,0.37
			c-0.08,0.56-0.08,1.09-0.08,1.5c-0.63,0.8-0.36,2.92-1.01,4.07c0.09,0.39-0.02,1.8-0.1,3.19c-0.01,1.39,0.02,2.77,0.28,3.08
			C1.1,83,1.04,83.33,1.07,82.72c-0.17,1.24-0.25,2.48-0.11,3.61l-0.42,0.53c0,0,0.12,0.69,0.25,1.36c0.16,0.67,0.3,1.36,0.3,1.36
			c-0.2,1.65-0.33,2.35-0.69,0.71c0.28,2,0.39,2.79,0.49,3.51c0.1,0.73,0.18,1.38,0.56,3.04l-0.28-0.13
			c0.16,1.2,0.74,3.07,0.62,3.81c-0.03,1.37,0.47,4.68,1.36,8.45c0.96,3.76,2.27,7.96,3.36,11.27c0.12-0.78,0.31,0.02,0.6,0.99
			c0.3,0.97,0.67,2.14,1,2.14c0,0.44,0.29,1.38-0.3,0.4c0.76,1.61,1.36,2.8,1.86,3.9c0.48,1.1,1.02,2.01,1.86,2.97
			c0.04,0.45-0.61-0.53-0.53-0.17c0.18,0.24,0.7,0.91,0.78,1.28c0.08,0.37-0.39-0.38-0.73-0.83c0.89,1.6,1.54,2.37,2.05,2.74
			c0.48,0.38,0.8,0.37,1.09,0.34c0.38,0.84,0.7,1.45,1.06,1.97c0.37,0.49,0.78,0.9,1.29,1.34c0.22,0.62,0.69,1.6-0.65-0.21
			c0.37,0.51,1.36,2.18,2.48,3.58c1.1,1.42,2.14,2.69,2.36,2.59c0.18,0.37,1.12,1.36,1.38,1.57c1.81,2.18,2.03,2.32,3.96,4.32
			l-0.48-0.61c1.1,0.45,1.71,1.55,3.38,3.04l-0.08-0.01c1.74,1.89,2.26,2.16,2.68,2.51c0.46,0.3,0.82,0.71,2.71,2.39l-0.02-0.42
			c0.39-0.12,1.21,0.63,2.26,1.63c1.07,0.96,2.39,2.1,3.68,2.83l-0.78-0.75c0.71,0.38,1.54,1.15,2.35,1.98
			c0.81,0.82,1.61,1.71,2.3,2.12c0.28,0.22-0.54-0.18-0.99-0.4c3.52,2.44,0.69-0.09,3.5,1.37c0.42,0.47-0.94,0.16,0.93,1.19
			c0.44,0.31,1.91,0.84,3.59,1.48c1.71,0.55,3.56,1.3,4.87,1.98c-0.54-0.38-1.07-0.76,0.35-0.37c2.09,0.76,5.53,2.65,7.66,2.65
			c0.26,0.12,0.36,0.19,0.36,0.24c0.85,0.13,2.2,0.49,3.51,0.69c1.3,0.2,2.52,0.36,3.05,0.33c0.33,0.37,1.17,0.58,2.23,0.79
			c1.06,0.19,2.34,0.35,3.58,0.4c2.46,0.18,4.72,0.17,4.67,0.66c0,0,1.32,0.09,2.64,0.13c1.33,0.01,2.64,0.03,2.64,0.03l-0.13,0.1
			c3.38,0.09,4.58-0.25,5.75-0.53c0.78,0.01,0.22,0.15,0.16,0.2c2.46-0.09,3.83-0.11,5.07-0.35c1.24-0.22,2.38-0.43,4.37-1.06
			l0.48,0.25c1.07-0.3,7.14-0.82,11.66-2.7c-0.03,0.04-0.11,0.15-0.46,0.3c2.54-1,5.69-1.89,8.35-2.9c2.68-0.98,4.83-2.08,5.45-3.06
			c0,0,0.78-0.45,1.52-0.97c0.74-0.51,1.5-1,1.5-1c-4.08,2.18,0.35-0.79-1.41-0.03c0.78-0.47,1.83-0.97,2.47-1.2
			c0.62-0.26,0.83-0.22-0.11,0.36l-0.34,0.12c-0.36,1.01,5.01-2.82,5.12-2.44c7.56-5.14,14.35-11.07,19.75-17.79
			c0,0-0.25,0.12-0.49,0.24c-0.24,0.12-0.51,0.22-0.51,0.22s0.47-0.57,0.93-1.16s0.92-1.17,0.92-1.17c0.56-0.55,0.94-0.61-0.37,1.08
			c0.91-0.72,2-2.98,1.92-3.11c2.54-3.33-0.47,1.68,0.27,0.63l0.97-1.46l-0.27,0.29c0.62-1.29,0.6-1.45,1.96-3.63
			c0.93-1.33,0.7-0.55,1.05-1.08c0.02,0.02,0.16-0.16,0.53-0.83c0,0,0.48-0.81,0.94-1.64c0.47-0.82,0.93-1.64,0.93-1.64l-1.07,1.14
			c0.65-1.54,1.71-3.09,0.51-1.78c0.89-0.97,2.53-4.07,3.82-7.21c0.67-1.55,1.19-3.14,1.68-4.38c0.44-1.26,0.73-2.23,0.91-2.59
			c0.24-1.15,0.51-2.28,0.78-3.47c0.28-1.19,0.65-2.43,0.94-3.82c-0.22,0.67-0.73,0.99-0.17-1.39c0.33,0.53,0.71-0.54,1.01-2
			c0.29-1.46,0.69-3.27,1.08-4.23c-0.31,0.85-0.13-0.89,0-2.51c0.13-1.62,0.11-3.13-0.26-1.75c0.21-2.03,0.34-0.1,0.65-1.64
			c-0.03-4.89,0.45-10.83-0.47-16.85c-0.12-0.08-0.18,0.94-0.51-0.31c0,0,0.08-0.81,0.07-1.62c0.01-0.81,0.01-1.63,0.01-1.63
			c-0.28-1.17-0.79-0.98-0.89-3.18c-0.03,0.33-0.08,0.8-0.28,0.02c-0.96-5.86-2.93-11.64-5.45-17.17
			c-2.52-5.54-5.55-10.82-8.68-16.02c0.75,1.47,0.11,0.6-0.61-0.43c0.43,0.7-0.24,0.16-0.28,0.38c0,0-0.69-1.06-1.37-2.12
			c-0.35-0.53-0.69-1.07-0.94-1.46c-0.26-0.4-0.45-0.65-0.45-0.65c-0.47-0.21-1.36-1.23-2.21-2.2c-0.84-0.99-1.75-1.86-2.08-1.91
			l1.16,1.1c-0.92-0.6-0.6,0.12-0.17,1.02c0.42,0.92,0.94,2.01,0.61,2.1c0.48,0.35,0.94,0.84,1.39,1.44
			c0.44,0.6,0.85,1.32,1.32,2.03c0.94,1.44,1.89,3.08,3.32,4.42c0.37,0.76-0.58-0.47-0.45-0.02c0.8,0.62,1.45,1.6,2.5,3.49
			l-0.19-0.17c0.85,1.26,1.42,2.43,2.01,3.47c0.6,1.05,1.05,2.06,1.51,3.09c0.47,1.02,0.94,2.07,1.41,3.28
			c0.47,1.2,1.02,2.53,1.56,4.14l0.11-0.58c0.48,1.38,0.49,1.7,0.66,2.37c1.05,1.41-1.44-3.85-0.4-2.61
			c0.02,0.52,0.27,1.37,0.61,2.39c0.33,1.03,0.71,2.24,1.09,3.43c0.73,2.38,1.3,4.74,1.1,5.46c0.48,2.19,0.21-0.73,0.7,1.46
			l-0.07,0.62l0.37,0.51c0.29,1.45,0.11,2.24-0.02,2.32c-0.04-0.36-0.21-0.99-0.29-1.36c0.04,0.96,0.29,2.27,0.53,3.43
			c0.24,1.16,0.38,2.18,0.39,2.51c0,0-0.03-0.54-0.07-1.08c-0.03-0.54-0.08-1.08-0.08-1.08c1.12,6.04,1.07,13.54,0.96,19.45
			l0.18-0.44c0,2.27-0.24,3.17-0.38,4.13c-0.15,0.96-0.39,1.94-0.74,4.41v-0.18c0.01,1.01-0.22,2.33-0.53,3.65
			c0.09-1.26-0.82,2.24-0.66,0.58c-0.92,4.82-0.34,2.41-0.71,5.69l-0.46,0.64c-0.15,1.11,0.01,1.27-0.8,3.63
			c0.52-1.99-0.91,1.36-0.37-0.88c-0.58,1.18-1.01,2.23-1.35,3.17c-0.36,0.93-0.67,1.75-0.93,2.51c-0.51,1.51-1,2.64-1.88,3.53
			c-0.43,2.46,2.3-3.9,1.83-2.64c0.33-0.47,0.25,0.03-0.01,0.84c-0.28,0.8-0.76,1.89-1.16,2.62c-0.37,0.75-0.88,1.29-1.57,2.08
			c-0.71,0.78-1.45,1.9-2.59,3.65c0.22-0.35,0.19-0.4,0.42-0.75c-1,1.21-1.36,2.77-2.72,4.17c-0.27,1.11-1.44,2.03-1.19,2.6
			l2.09-3.24c-0.56,0.93-1.01,1.91-1.61,3c-0.6,1.09-1.44,2.25-2.65,3.59c0.09-0.29,0.63-1.23,1.02-1.86
			c-0.78,0.73-1.14,1.69-1.97,2.42c-0.09-0.27,0.61-1.2,1.46-2.34c0.43-0.56,0.9-1.18,1.33-1.79c0.4-0.63,0.76-1.24,1.01-1.77
			c-0.42,0.39-0.94,1.37-1.39,2.05c-0.45,0.67-0.76,1.1-0.64,0.46c-0.22,0.88-0.88,1.69-1.62,2.59c-0.79,0.87-1.7,1.82-2.41,3.08
			l-0.11-0.35c-0.24,0.38-0.78,1.16-1.35,1.74l0.72-1.36c-1.33,1.89-3.22,3.01-4.69,4.62c1.65-1.59,1.9-1.7,1.93-1.56
			c0.03,0.15-0.13,0.55,0.62-0.08c-3.79,4.26-2.84,1.77-7.52,5.98c0.63-0.57,2.55-1.94,1.64-0.96c-0.93,0.76-2.27,1.64-2.96,1.96
			c-3.26,2.62,0.71-0.13-0.58,1.11c-1.35,0.6-1.56,1.35-3.01,2.52l-0.19-0.26c-4.08,2.51-0.69,1.27-4.47,3.4l1.32-1.35
			c0,0-0.46,0.33-0.92,0.65c-0.46,0.34-0.93,0.63-0.93,0.63l0.21-0.54c-2,1.41-2.66,1.8-4.86,2.77c0.6-0.04-0.01,0.65-1.92,1.62
			c-1.39,0.45,0.62-0.6-2.11,0.66c0.54-0.47,1.14-0.94,2.42-1.28c0.08-0.16,0.52-0.48,0.58-0.63c-1.46,0.54-3.56,1.59-4.55,2.03
			c0.38-0.16,0.85-0.34,1.1-0.4c0,0-0.96,0.54-1.91,1.07c-0.98,0.49-1.96,0.98-1.96,0.98c-0.69,0.13-0.2-0.16,0.26-0.43
			c-0.82,0.34-1.32,0.73-2.55,1.16c0.24-0.36,0.08-0.55,1.74-1.33c0,0-0.24,0.11-0.58,0.27c-0.35,0.17-0.82,0.38-1.3,0.57
			c-0.96,0.39-1.92,0.78-1.92,0.78c-0.29-0.01-2.11,0.35-1.63,0.09c-1.12,0.22-2.44,0.73-3.86,1.21c-1.44,0.43-2.96,0.93-4.47,1.09
			c-0.15,0.08-0.45,0.18-1.08,0.33c-0.71,0.09-1.39,0.19-2.08,0.28c-0.69,0.06-1.38,0.11-2.08,0.17c-0.71,0.06-1.42,0.16-2.17,0.25
			c-0.75,0.08-1.54,0.18-2.38,0.34c0,0-0.48-0.08-0.97-0.16c-0.48-0.07-0.97-0.18-0.97-0.18c-2.64,0.18,2.63,0.52-1.79,0.81
			c-3.14,0.22-1.18-0.36-2.27-0.49c-0.78,0.1-1.84,0.26-3.08,0.34c-1.24,0.06-2.64-0.04-4.06-0.31
			C81.17,171.86,81.91,171.99,82.8,172.01z M51.17,164.12c0.6,0.24,1.83,0.57,2.18,0.91C52.54,165.08,52.09,164.7,51.17,164.12z
			 M14.23,131.25c0.33,0.36,0.69,1,1.02,1.78C14.91,132.54,14.54,131.95,14.23,131.25z M49.11,9.51c-0.02,0.02-0.03,0.03-0.06,0.04
			C47.69,10.1,48.18,9.91,49.11,9.51z M51.94,8.34c0.26-0.17,0.22-0.19,0.09-0.18c-0.16,0.16-0.79,0.44-1.51,0.73
			C50.74,8.87,51.14,8.76,51.94,8.34z M162.31,132.82l-0.38,0.46C162.54,132.09,162.42,132.46,162.31,132.82z"/>
		<path class="st0" d="M17.67,135.82c0.06,0.18,0.03,0.26,0.01,0.33C17.87,136.31,17.93,136.29,17.67,135.82z"/>
		<path class="st0" d="M103.05,170.56l0.1-0.01c0.04-0.02,0.08-0.06,0.09-0.08L103.05,170.56z"/>
		<path class="st0" d="M18.24,39.64c-0.38,0.47-0.63,0.72-0.81,0.87C17.49,40.58,17.7,40.39,18.24,39.64z"/>
		<path class="st0" d="M67.08,2.6c0,0-0.48,0.11-0.94,0.27c-0.47,0.15-0.93,0.3-0.93,0.3c0.91-0.26,1.26-0.29,1.73-0.34
			C66.87,2.77,66.47,2.75,67.08,2.6z"/>
		<path class="st0" d="M84.01,2.24c0.28-0.04,0.6-0.02,0.87-0.07L84.8,2.03C83.61,2.07,82.77,2.21,84.01,2.24z"/>
		<path class="st0" d="M69.08,3.26c0.21,0.25,1.36-0.17,2.7-0.42l-0.24,0.04C71.86,2.42,70.45,2.79,69.08,3.26z"/>
		<path class="st0" d="M72.08,2.77c0.4-0.08,0.83-0.16,1.24-0.21C73.45,2.38,72.81,2.6,72.08,2.77z"/>
		<path class="st0" d="M55.43,6.67c0.63-0.17,0.26-0.46,0.64-0.49C56.61,5.58,52.18,8.12,55.43,6.67z"/>
		<polygon class="st0" points="70.33,3.88 69.79,3.66 69.1,4.09 		"/>
		<path class="st0" d="M60,6.43l2.08-0.58c-0.04-0.04,0.2-0.16,0.52-0.29C61.32,5.95,59.92,6.35,60,6.43z"/>
		<path class="st0" d="M62.59,5.56c0.66-0.2,1.3-0.36,1.65-0.52C63.89,5.14,63.11,5.35,62.59,5.56z"/>
		<path class="st0" d="M67.48,4.62l-0.64,0.08l-1.47,0.37c0,0,0.53-0.12,1.05-0.24C66.94,4.69,67.48,4.62,67.48,4.62z"/>
		<path class="st0" d="M39.28,16.65l-1.88,1.43c-0.13,0.22,0.44-0.08,1.12-0.62C38.94,17.06,39.62,16.52,39.28,16.65z"/>
		<path class="st0" d="M45.77,13.69c-0.58,0.25-0.65,0.2-1.02,0.28l0.15,0.39L45.77,13.69z"/>
		<path class="st0" d="M40.04,17.33c-0.12,0.22-2.57,2.2-0.18,0.49C39.98,17.59,41.86,16.21,40.04,17.33z"/>
		<polygon class="st0" points="15.31,42 15.62,41.49 15,41.19 		"/>
		<path class="st0" d="M5.28,70.98C6.02,68.36,5,70.26,5.74,67.9c-0.02-0.66-0.61,1.93-0.6,1.26C4.96,70.8,4.68,71.63,5.28,70.98z"
			/>
		<path class="st0" d="M5.14,69.15c0.02-0.26,0.04-0.54,0.08-0.84C5.17,68.78,5.14,69.01,5.14,69.15z"/>
		<path class="st0" d="M152.72,29.59c0,0-0.26-0.38-0.56-0.72c-0.29-0.35-0.57-0.71-0.57-0.71l0.64,1L152.72,29.59z"/>
		<path class="st0" d="M149.96,27.39l0.01-0.61l-1.03-0.52C149.24,26.55,149.81,27.1,149.96,27.39z"/>
		<path class="st0" d="M47.25,161.11l-0.17,0.02c0.18,0.22,0.54,0.44,1.24,0.84L47.25,161.11z"/>
		<polygon class="st0" points="69.16,169.77 68.77,169.67 69.43,170.21 		"/>
		<path class="st0" d="M88.88,171.3c-0.81,0.02-1.75,0.09-2.56,0.04C88.07,171.35,89.1,171.77,88.88,171.3z"/>
	</g>
	<text transform="matrix(1 -2.929949e-03 2.929949e-03 1 63.4057 123.3756)" class="st7 st9 st10">CHICAGO</text>
	<g>
		<path class="st0" d="M54.57,127.23c-0.07-0.08-0.21,0.16-0.26,0.18C54.49,127.46,54.61,127.16,54.57,127.23z"/>
		<polygon class="st0" points="56.33,127.78 56.23,127.86 56.6,127.79 		"/>
		<path class="st0" d="M57.6,128.77c0.16-0.47-0.51-0.29-0.63-0.61l0.03-0.11l-0.34,0.22C56.97,128.44,57.49,128.51,57.6,128.77z"/>
		<path class="st0" d="M57.68,130.12c0.07-0.18,0.25-0.02-0.13-0.17c0,0.02,0,0.04,0,0.06C57.58,130.03,57.62,130.06,57.68,130.12z"
			/>
		<path class="st0" d="M57.56,130.02C57.41,129.92,57.56,130.21,57.56,130.02L57.56,130.02z"/>
		<path class="st0" d="M58.28,130.38L58,130.39c-0.02,0.11,0.13,0.25,0.02,0.27C58.25,130.71,58.28,130.6,58.28,130.38z"/>
		<path class="st0" d="M58.65,130.22l-0.13-0.01C58.5,130.25,58.51,130.29,58.65,130.22z"/>
		<path class="st0" d="M58.22,130.19l0.29,0.02c0.01-0.08,0.1-0.2-0.12-0.02C58.48,130.08,58.37,130.16,58.22,130.19z"/>
		<path class="st0" d="M58.14,130.05c-0.04-0.16-0.15-0.3,0.13-0.3C57.89,129.56,57.75,129.86,58.14,130.05z"/>
		<path class="st0" d="M57.95,128.43l-0.04-0.21l-0.21,0.04C57.8,128.23,57.87,128.56,57.95,128.43z"/>
		<path class="st0" d="M59.3,131.38c0.07-0.08,0.09-0.27,0.15-0.38h-0.2C59.28,131.1,59.38,131.24,59.3,131.38z"/>
		<path class="st0" d="M59.45,131h0.3C59.58,130.85,59.5,130.89,59.45,131z"/>
		<polygon class="st0" points="58.98,129.8 58.43,129.87 59.05,129.85 		"/>
		<polygon class="st0" points="60.09,131.93 59.84,132.04 60.24,131.88 		"/>
		<path class="st0" d="M60.64,132.24c-0.19,0.1-0.06,0.36-0.21,0.39c0.16,0.07,0.37,0.01,0.57-0.04
			C60.83,132.59,60.71,132.49,60.64,132.24z"/>
		<path class="st0" d="M61.3,132.52c-0.09,0-0.19,0.03-0.3,0.07C61.09,132.59,61.18,132.58,61.3,132.52z"/>
		<path class="st0" d="M60.08,131.28c-0.02,0.06-0.08,0.21,0,0.35l0.08-0.29L60.08,131.28z"/>
		<path class="st0" d="M60.15,131.32L60.15,131.32c0.08,0.08,0.13,0.12,0.17,0.15C60.3,131.44,60.24,131.4,60.15,131.32z"/>
		<path class="st0" d="M60.05,131.25l0.02,0.01C60.08,131.24,60.09,131.23,60.05,131.25z"/>
		<path class="st0" d="M59.38,130.39c0.21-0.04,0.55-0.02,0.45-0.38C59.63,130.11,59.69,130.31,59.38,130.39z"/>
		<path class="st0" d="M60.15,130.89l-0.18-0.2c-0.03,0.07-0.06,0.18-0.16,0.2H60.15z"/>
		<polygon class="st0" points="60.3,130.89 60.15,130.89 60.22,130.97 		"/>
		<path class="st0" d="M61.05,132.06c0.17-0.04,0.28,0.01,0.4,0.07c-0.1-0.12-0.22-0.22-0.35-0.31
			C61.05,131.88,60.91,131.98,61.05,132.06z"/>
		<path class="st0" d="M60.63,131.68h0.03C60.66,131.66,60.65,131.64,60.63,131.68z"/>
		<polygon class="st0" points="62.66,132.85 62.66,132.79 62.64,132.83 		"/>
		<path class="st0" d="M61.12,131.76c-0.07-0.11-0.16-0.09-0.26-0.06c0.09,0.02,0.17,0.06,0.25,0.11
			C61.14,131.79,61.17,131.77,61.12,131.76z"/>
		<path class="st0" d="M61.71,132.61c-0.02-0.08-0.06-0.16-0.09-0.24C61.63,132.48,61.65,132.66,61.71,132.61z"/>
		<path class="st0" d="M60.65,131.77c-0.01,0-0.02,0-0.02,0C60.63,131.84,60.64,131.82,60.65,131.77z"/>
		<path class="st0" d="M60.65,131.77c0.07,0,0.15-0.03,0.21-0.06c-0.07-0.02-0.13-0.03-0.2-0.02
			C60.66,131.7,60.66,131.74,60.65,131.77z"/>
		<path class="st0" d="M63.94,131.5c-0.15,0.21-0.53,0.27-0.6-0.1c-0.31,0.04-0.62,0.87-0.67,1.39c0.07-0.09,0.12-0.18,0.43-0.18
			c-0.01-0.17-0.33-0.58-0.01-0.67c0.36,0.06,0.19,0.22,0.27,0.43c0.04-0.35,0.62-0.19,0.79-0.64h-0.34
			C63.83,131.65,63.98,131.59,63.94,131.5z"/>
		<path class="st0" d="M62.26,132.51l-0.11-0.02c0.08,0.1,0.1,0.24,0.13,0.49c0.22-0.02,0.3-0.08,0.36-0.15l-0.44-0.3L62.26,132.51z
			"/>
		<path class="st0" d="M61.73,132.24c0.22-0.2,0.51-0.17,0.54-0.52c-0.28-0.15-0.31,0.09-0.54,0.1c0.47,0.2-0.21,0.06,0.02,0.38
			c-0.11-0.01-0.2-0.04-0.28-0.08c0.06,0.08,0.11,0.16,0.16,0.25v-0.02l0,0l0,0c0-0.04,0-0.07,0.01-0.03h0.01
			C61.67,132.29,61.69,132.27,61.73,132.24c0.09,0.12-0.02,0.08-0.08,0.08l-0.02,0.03l0,0l0.52,0.12
			C62.07,132.4,61.95,132.33,61.73,132.24z"/>
		<path class="st0" d="M60.39,129.65c0,0.03-0.01,0.04-0.02,0.07C60.41,129.7,60.44,129.69,60.39,129.65z"/>
		<path class="st0" d="M60.47,129.9c-0.06,0.01-0.15,0.09-0.22,0c-0.03-0.12,0.08-0.11,0.12-0.19c-0.1,0.02-0.33,0.03-0.21,0.27
			l0.06-0.01c0.11,0.19,0.13,0.64,0.08,0.65C60.38,130.37,60.44,130.19,60.47,129.9z"/>
		<path class="st0" d="M61.12,131.03l0.43,0.12l-0.04-0.33l-0.07,0.13C61.27,130.77,61.21,130.95,61.12,131.03z"/>
		<polygon class="st0" points="62.63,133 62.43,133.22 62.85,132.99 		"/>
		<polygon class="st0" points="63.12,133.24 62.98,133.46 63.18,133.4 		"/>
		<path class="st0" d="M92.93,136.56l0.1-0.09C92.98,136.5,92.95,136.54,92.93,136.56z"/>
		<path class="st0" d="M92.08,136.64v0.13C92.11,136.7,92.12,136.65,92.08,136.64z"/>
		<path class="st0" d="M75.68,138.57c0.11,0.28,0.21,0.71,0.27,0.42l0.02-0.29C75.83,138.72,75.75,138.66,75.68,138.57z"/>
		<path class="st0" d="M85.06,138.39l-0.04-0.09c-0.04,0.09-0.09,0.18-0.13,0.27C84.92,138.52,84.99,138.45,85.06,138.39z"/>
		<path class="st0" d="M85.24,137.21l0.21,0.2C85.41,137.35,85.34,137.28,85.24,137.21z"/>
		<path class="st0" d="M97.41,135.37l0.06-0.31C97.27,135.1,97.39,135.22,97.41,135.37z"/>
		<path class="st0" d="M68.22,135.78c0.1,0.17,0.19,0.26,0.29,0.31C68.4,135.87,68.36,135.58,68.22,135.78z"/>
		<path class="st0" d="M92.99,139.63c0.07-0.06,0.09-0.12,0.08-0.19C93.01,139.49,92.97,139.56,92.99,139.63z"/>
		<path class="st0" d="M68.92,136.28c-0.01-0.03-0.03-0.06-0.04-0.09c-0.12,0-0.25-0.01-0.37-0.09
			C68.59,136.27,68.7,136.4,68.92,136.28z"/>
		<path class="st0" d="M112.73,128.52c0.02,0,0.03,0,0.06,0.01C112.76,128.5,112.75,128.5,112.73,128.52z"/>
		<path class="st0" d="M118.52,127.69c-0.02,0.04-0.09,0.1-0.15,0.16C118.41,127.84,118.46,127.79,118.52,127.69z"/>
		<path class="st0" d="M65.01,134.46C64.9,134.41,64.98,134.47,65.01,134.46L65.01,134.46z"/>
		<path class="st0" d="M65.04,133.2c0.03-0.01,0.08-0.04,0.11-0.1C65.11,133.14,65.08,133.18,65.04,133.2z"/>
		<path class="st0" d="M70.69,135.09L70.69,135.09C70.69,135.03,70.69,135.04,70.69,135.09z"/>
		<path class="st0" d="M64.91,134.26c0.02,0.06,0.06,0.1,0.09,0.15C65,134.37,64.97,134.32,64.91,134.26z"/>
		<path class="st0" d="M64.88,134.39c-0.03-0.03-0.06-0.06-0.08-0.07C64.75,134.35,64.75,134.38,64.88,134.39z"/>
		<path class="st0" d="M65.17,134.51c-0.07-0.02-0.11-0.07-0.16-0.11c0.01,0.02,0.01,0.04,0,0.06
			C65.04,134.47,65.09,134.48,65.17,134.51z"/>
		<path class="st0" d="M105.17,133.69c0.01,0,0.02,0.01,0.03,0.01C105.25,133.55,105.22,133.59,105.17,133.69z"/>
		<polygon class="st0" points="79.28,136.37 79.26,136.38 79.28,136.39 		"/>
		<path class="st0" d="M79.71,136.23c-0.24,0.31-0.33,0.26-0.43,0.16l-0.03,0.84L79.71,136.23z"/>
		<path class="st0" d="M94.92,136.14l-0.31-0.2c0.25-0.47,0.51-0.37,0.19-0.69c0.12,0.89-1.02,0.27-0.91,1.17l-0.21-0.16
			c0.06,0,0.06-0.06,0.1-0.06c-0.42-0.37-0.16,0.69-0.63,0.64c-0.17-0.04-0.3-0.17-0.2-0.28l-0.33,0.26c-0.1,0-0.1-0.17,0-0.16
			l-0.53,0.13v-0.02c-0.06,0.15-0.21,0.38-0.29,0.48c-0.16-0.11,0.06-0.1,0.01-0.21l-0.28,0.25c-0.15-0.21,0.08-0.47,0.29-0.46
			c-0.37-0.87-0.22,0.26-0.88-0.2l0.27-0.15c-0.22-0.49-0.43-0.27-0.76-0.57c0.09,0.17,0.7,0.74,0.39,1
			c-0.1-0.06-0.22-0.09-0.38,0.1c-0.02-0.31-0.19-0.24-0.4-0.2l-0.01-0.43c-0.22,0.13-0.19,0.35-0.31,0.55
			c-0.26-0.02-0.34-0.35-0.4-0.63c-0.42-0.04,0.31,0.51-0.17,0.62c-0.35-0.15-0.58,0.06-1,0.31c-0.25-0.15,0.03-0.26-0.06-0.38
			l-0.21,0.34c-0.06-0.01-0.03-0.11-0.03-0.17c-0.18,0.13-0.01,0.43-0.29,0.54c-0.08,0.46-0.58-0.69-0.94-0.16
			c-0.09-0.12,0.04-0.26,0.02-0.43c-0.49,0.35-0.42,0.25-0.83,0.72l-0.33-0.29c0.24,0.34-0.1,0.69-0.4,0.98
			c0.08,0.16,0.16,0.3,0.2,0.37l-0.47,0.19c-0.06-0.08,0-0.21,0.09-0.38c-0.03,0.03-0.07,0.07-0.09,0.09
			c-0.16-0.17-0.06-0.4,0.08-0.63c0.04,0.09,0.1,0.18,0.15,0.27c0.12-0.25,0.25-0.53,0.24-0.78c-0.03,0.04-0.09,0.09-0.16,0.1
			c0.03-0.07,0.06-0.12,0.04-0.17s-0.07,0.04-0.15,0.15l-0.08-0.48l-0.03,0.18l-0.56-0.34c-0.45,0.44-0.89,1.12-1.59,1.25
			c0.2-0.33,0.1-0.56,0.16-0.97c0.13,0.47,0.53-0.13,0.87-0.02c-0.18-0.06-0.11-0.25-0.07-0.31l-0.66,0.36
			c0.04-0.34-0.1-0.27-0.25-0.43c0.04,0.67-0.51,0.37-0.78,0.54c0.01-0.22,0.1-0.44,0.39-0.35c-0.27-0.54-0.53,0.71-0.81,0.25
			c0.08,0,0.11,0.04,0.16-0.07c-0.2,0.17-0.61-0.04-0.47-0.22l0.08,0.01c-0.48-0.13-1.48-0.22-1.66,0.29
			c0.01-0.07,0.19-0.65,0.24-0.76c0,0-0.3,0.42-0.61,0.84c-0.31,0.42-0.63,0.83-0.63,0.83c0.17-0.46,0.11-1.65,0.57-1.83
			c-0.1-0.09-0.22-0.2-0.51-0.08c0.07,0.08,0.06,0.73-0.07,0.74c-0.18-0.58-0.15-0.33-0.42-0.85c0.09,0.12-0.2,0.84-0.39,0.78
			c0.06-0.1,0.16-0.73,0.24-0.8l-0.64,0.63c0.15-0.1,0.17-0.61,0.11-0.83c0.01,0.16-0.39-0.12-0.53-0.09l0.15,0.22
			c-0.48-0.26-0.78,0.87-1.29,0.69c0.1-0.13,0.4-0.87,0.17-1.03c-0.21,0.34-1.03,1.62-1.61,1.77l-0.02-0.24l-0.42,0.15
			c0.4-0.48,1.37-1.46,1.83-1.82c-0.15-0.22,0.02-0.26-0.27-0.33c-0.04-0.22,0.25-0.26,0.33-0.25l-0.62-0.31
			c-0.1,0.44-0.64,0.28-0.73,0.64l0.87-0.22c-0.09,0.43-0.8,1.11-1.25,0.85c-0.07-0.21,0.34-0.72,0.37-0.87
			c-0.1,0.12-0.53,0.12-0.54,0l0.27-0.16c-0.2-0.25-0.61,0.4-0.79-0.1c-0.1-0.07-0.12-0.65-0.24-0.42c0,0.54-0.48,2.03-0.73,2.35
			c-0.03-0.04-0.43-0.66-0.46-0.94c-0.04-0.44,0.61-0.8,0.56-1.17c-0.04,0.11-0.2,0.21-0.26,0.25c-0.08-0.13,0.18-0.34-0.09-0.37
			c-0.2,0.4-0.48-0.21-0.25,0.31c-0.29,0.03-0.22-0.17-0.52-0.27c-0.02,0.31-0.62,0.81-0.91,0.83c0.06-0.1,0.06-0.26,0.06-0.34
			c-0.47-0.25-0.66-0.55-1.11-0.75c0-0.12-0.17-0.34,0.01-0.47c-0.1,0.04-0.22,0.16-0.36,0.11c-0.11-0.47,0.34,0.08,0.33-0.44
			c-0.12,0.24-0.51,0.18-0.78,0.24c-0.11,0.39,0.43,0.27,0.7,0.2c-0.22,0.51-0.82,0.89-1.42,0.91c-0.44-0.06-0.01-0.4-0.11-0.36
			c-0.65-0.45-1.02,0.57-1.44-0.09c-0.07-0.44,0.3-0.64,0.37-0.89c0.36,0.03,0.36,0.44,0.57,0.53l-0.18-0.28
			c0.15-0.06,0.39-0.03,0.45,0.11c-0.06-0.38-1.15-0.65-1.55-1.19c-0.15,0.06-0.37,0.08-0.36,0.25l0.19,0.04
			c0.02,0.34-0.51,0.19-0.36,0.42c-0.33,0.06-0.74,0.2-0.98-0.1l0.13-0.39c-0.06,0.11,0.09,0.33,0.25,0.26
			c-0.22,0.09-0.21-0.75-0.62-0.37l0.08,0.37c-0.33,0.04-0.82,0.26-1.03-0.02c-0.07,0.43,0.09,0,0.06,0.53
			c0.11-0.61,0.71,0.45,0.73-0.25c-0.07,0.6,0.25,0.42,0.3,0.96c0.06-0.12,0.02-0.28,0.24-0.09c0.03-0.03,0.08-0.06,0.11-0.08
			l0.01,0.02l-0.01-0.02c0.02-0.01,0.02-0.01,0-0.01c-0.03-0.08-0.04-0.17-0.02-0.25c0.27-0.21,0.65,0,0.85-0.08
			c0.11,0.13-0.13,0.1-0.12,0.27l0.3-0.11c-0.12,0.27,0.16,0.64-0.27,0.62l0.3,0.17c0.1,0.24,0.33,0.43,0.54,0.39
			c0.12,0.13,0.52-0.11,0.28,0.03l0.56,0.08l-0.02,0.07c0.46,0.28,1.21,0,1.55,0.74c0.19,0,0.4-0.01,0.65,0.19l-0.04,0.26
			c0.25,0.01,0.55,0.52,0.74,0.3c-0.03,0.76,1.01,0.55,1.35,0.81l0.13-0.31c0.26,0.11,0.55,0.11,0.92,0.1l0.08-0.29
			c0.36-0.13,0.66,0.46,1.11,0.58c-0.07,0.1-0.17,0.03-0.22-0.07c0.34,0.83,1.29-0.13,1.64,0.48c0.16-0.07,0.24-0.01,0.3,0.09
			c-0.01,0-0.02,0-0.03,0.01c0.01,0.01,0.03,0.01,0.04,0.02c0.04,0.07,0.08,0.13,0.13,0.2c-0.03-0.09-0.07-0.16-0.1-0.19
			c0.1,0.02,0.25,0.02,0.42-0.01l-0.02,0.33c0.01,0,0.02,0,0.03,0c0.11,0.16,0.15-0.11,0.13-0.37c0.09-0.03,0.17-0.08,0.24-0.13
			c-0.01,0.53,0.42-0.07,0.44,0.51c0.16-0.22,0.78-0.03,0.97-0.57c-0.01,0.07,0.02,0.11-0.06,0.1c0.15,0.1,0.29,0.19,0.47,0.07
			l-0.02,0.42l0.46-0.46c0.16,0.28,0.22,0.45-0.06,0.71c0.61-0.36,0.45-0.09,0.97-0.47l-0.07,0.26c0.16,0.02,0.46-0.27,0.52-0.04
			c0.27,0.54,1.71,0.31,2.55,0.9c-0.09-0.79,0.38,0.4,0.48-0.2c0.03,0.18,0.16,0.29-0.01,0.45c0.48-0.15,0.67,0.34,1.05-0.13
			c0.04,0.19-0.12,0.26-0.08,0.37c0.04-0.03,0.16-0.15,0.2-0.03c0.04,0.11-0.08,0.15-0.16,0.22c0.48,0,0.57-0.55,0.63-1.08
			c0.22,0.27,0.35,0.24,0.53-0.09c0.08,0.18,0.2,0.37-0.09,0.4c0.16,0.06,1,0.3,1.03-0.12c0.04,0.11,0.22,0.03,0.27-0.01
			c0.37,0.03,0.4,0.07,0.76,0.03l-0.1-0.07c0.15-0.51,0.3-0.11,0.6-0.17l-0.01,0.06c0.67,0.37,0.28-0.16,0.96,0.24l-0.04-0.31
			c0.03-0.69,0.6,0.37,0.97,0.09l-0.15-0.17c0.19-0.25,0.63,0.9,0.85,0.97c0.06,0.06-0.07,0.1-0.13,0.15
			c0.58,0.37,0.04-0.42,0.45-0.54c0.09,0.22-0.06,0.57,0.22,0.6c0.16,0.19,0.74-0.81,1.17-0.42c-0.1-0.16-0.2-0.33-0.02-0.47
			c0.28-0.09,0.87,0.56,1.07-0.01c0.04,0.04,0.07,0.09,0.07,0.12c0.2-0.16,0.7-0.33,0.78-0.64c0.38,1.05,1.27-0.76,1.45,0.24
			l0.67-0.17v0.1c0.45-0.03,0.55-0.3,0.65-0.57c0.11,0.04,0.07,0.16,0.07,0.2c0.67,0.06,0.73,0,1.14-0.62l0.13,0.3
			c0.09-0.2,1.03,0.26,1.54-0.28c0,0.03,0.01,0.1-0.02,0.16c0.57-0.55,1.92,0.38,1.8-0.85l0.35-0.43c-0.6,0.1-0.08-0.52-0.38-0.63
			c0.2-0.15,0.69,0.15,0.44,0.29l-0.07-0.04c0.1,0.62,0.78-0.03,0.91,0.37c1.1-0.45,2.32-0.55,3.35-1l-0.31-0.39l0.37-0.13
			c0.13,0.06,0.28,0.29,0.02,0.38c0.25,0.19,0.34-0.4,0.29-0.49c0.58-0.04,0.04,0.6,0.2,0.54l0.19-0.12l-0.07-0.03
			c0.09-0.26,0.01-0.45,0.33-0.57c0.24-0.01,0.22,0.22,0.3,0.2c0.01,0.03,0.04,0.03,0.12-0.04l0.46-0.18l-0.35-0.26
			c0.11-0.27,0.42-0.19,0.02-0.47c0.61,0.46,1.73-0.62,2-0.54c0.13-0.39,0.4-0.52,0.74-0.67c-0.12-0.02-0.38-0.37-0.08-0.48
			c0.34,0.83,0.7,0.03,1.25,0.45c-0.42-0.25,0.73-0.55,0.11-0.89c0.27-0.08,0.19,0.28,0.47,0.35c0.35-0.64,1.32-0.55,1.91-1.1
			c-0.06-0.1-0.26-0.18-0.22-0.42l0.67,0.25c0.1-0.13-0.27-0.63,0.2-0.46c-0.09-0.06-0.22-0.15-0.16-0.24
			c1.61-0.44,2.24-2.23,4.11-2.44c-0.31-0.03-0.21-0.15-0.1-0.26c-0.11,0.03-0.19-0.21-0.3-0.33l0.79-0.11
			c-0.2-0.4,0.51-0.51,0.27-0.87l-0.1,0.2c-0.13-0.55-1.03-0.54-1.43-1.05c0.16,0.62-1.12-0.1-0.97,0.81
			c-0.17-0.03-0.07-0.21-0.2-0.29c0.08,0.28,0,0.43-0.28,0.51l-0.02-0.07c-0.56,0.54-0.99,0.54-1.78,0.92l0.24,0.21
			c-0.17,0.08-0.26,0.02-0.38,0.01c0.11,0.51,0.43-0.29,0.6,0.24c-0.57-0.35-1.08,0.78-1.63,0.28c-0.24,0.17,0.28,0.25,0.04,0.42
			l-0.18-0.11l0.09,0.25c-0.18,0.07-0.39-0.08-0.49-0.21c0.04-0.01,0.08-0.11,0.11-0.15c-0.33-0.06-0.52,0.45-0.63,0.44l0.29-0.06
			c-0.54,0.6-1.48,0.89-1.91,1.63l0.12,0.1c-0.36,0.53-0.48,0.1-0.97,0.53v-0.04c-0.03,0.19-0.15,0.35-0.3,0.42
			c0.06-0.24-0.43-0.13-0.34-0.42c-0.4,0.56-0.16,0.35-0.26,1.03l-0.2-0.17c-0.02,0.26,0.02,0.37-0.22,0.58
			c0.13-0.31-0.36-0.24-0.22-0.62c-0.83-0.16-0.63,0.94-1.26,0.38c0.03,0.74,0.69,0.08,0.6,0.28c0.24,0.13,0,0.56-0.21,0.6
			c-0.2,0.08-0.72-0.62-1.19-0.37c0.04-0.02,0.03-0.07,0.08-0.09c-0.26-0.07-0.25,0.39-0.6,0.24c0.04,0.43-0.3,0.11-0.11,0.6
			l0.4-0.31c-0.19,0.24-0.18,0.9-0.73,0.82c-0.01-0.11,0.06-0.29,0.11-0.4c-0.19-0.09-0.19,0.2-0.38,0.11
			c-0.18-0.49,0.51-0.35,0.61-0.83c-0.22-0.15-0.36,0.57-0.45,0c0.1,0.74-0.52,0.12-0.62,0.78l-0.1-0.3
			c-0.03,0.07-0.08,0.25-0.18,0.29l0.01-0.45c-0.12,0.44-0.63-0.06-0.82,0.21c0.54-0.22,0.27,0.3,0.58,0.43
			c-0.52,0.65-0.7-0.61-1.38-0.18c0.08-0.08,0.45,0.02,0.35,0.22c-0.17,0-0.39-0.04-0.54-0.16c-0.47,0.26,0.19,0.27,0.04,0.54
			c-0.3-0.29-0.19,0.25-0.37,0.44l-0.11-0.3c-0.64,0,0.07,0.67-0.54,0.63l0.08-0.49l-0.24,0.2l-0.07-0.36
			c-0.2,0.36-0.33,0.33-0.64,0.33c0.13,0.19,0.15,0.56-0.11,0.66c-0.24-0.12,0-0.33-0.35-0.16c0.02-0.21,0.03-0.48,0.28-0.26
			c-0.01-0.1,0.02-0.21,0-0.33c-0.26-0.15-0.48,0.12-0.62,0.16c0.06,0,0.12,0,0.17,0.03l-0.4,0.57c-0.12-0.09-0.08-0.2-0.04-0.31
			c-0.1,0.07-0.13,0.22-0.28,0.3c-0.03-0.26-0.11-0.52,0.07-0.7l-0.42,0.42c-0.07-0.1-0.35-0.22-0.3-0.34
			c-0.31-0.07-0.55,0.7-0.98,0.58c-0.01,0.06-0.03,0.11-0.1,0.17c-0.37,0.02-0.75-0.21-1.09,0.24l-0.34-0.4
			c-0.3,0.18,0.45,0.49-0.07,0.8c-0.36,0.24-0.22-0.36-0.38-0.45c-0.15,0.27-0.39,0.8-0.82,0.48
			C94.71,136.14,94.82,136.2,94.92,136.14z M90.84,136.93c0.08-0.08,0.21-0.3,0.29-0.12C91.07,137.19,90.98,137.02,90.84,136.93z
			 M84.46,137.73c0.07-0.1,0.16-0.04,0.26,0.09C84.64,137.84,84.55,137.82,84.46,137.73z M66.28,134.81l0.01-0.01
			C66.41,135,66.37,134.93,66.28,134.81z M65.99,134.5c-0.06,0.02-0.08,0.07-0.08,0.11c0.06-0.06,0.15-0.02,0.22,0.04
			C66.15,134.57,66.12,134.49,65.99,134.5z M107.18,135.12l-0.1-0.04C107.19,134.92,107.19,135.02,107.18,135.12z"/>
		<path class="st0" d="M85.21,137.35c0.02,0.06,0.02,0.11,0.02,0.18C85.28,137.47,85.28,137.41,85.21,137.35z"/>
		<path class="st0" d="M97.4,135.42h0.01c0-0.02,0-0.04,0-0.06L97.4,135.42z"/>
		<path class="st0" d="M72.57,134.47c0.06,0.07,0.08,0.13,0.08,0.2C72.68,134.6,72.67,134.54,72.57,134.47z"/>
		<path class="st0" d="M63.86,134l0.26,0.06c-0.11-0.04-0.11-0.13-0.15-0.21C63.94,133.92,63.93,134.03,63.86,134z"/>
		<path class="st0" d="M62.99,131.18c-0.06,0.01-0.07-0.03-0.12-0.02l-0.07,0.13C62.93,131.35,63.09,131.31,62.99,131.18z"/>
		<path class="st0" d="M64.18,132.95c0.11-0.25-0.07-0.25-0.24-0.29c0.01,0,0.02,0.01,0.02,0.01
			C63.74,132.97,63.97,132.96,64.18,132.95z"/>
		<path class="st0" d="M63.9,132.65c-0.06-0.02-0.1-0.04-0.15-0.08C63.66,132.69,63.8,132.64,63.9,132.65z"/>
		<path class="st0" d="M65.46,134.44c-0.04-0.1-0.2,0.28-0.2,0.16C65.01,134.85,65.96,134.49,65.46,134.44z"/>
		<polygon class="st0" points="64.49,132.11 64.39,132.43 64.61,132.25 		"/>
		<path class="st0" d="M65.58,133l-0.2-0.21c-0.02,0.06-0.07,0.07-0.12,0.07C65.4,132.94,65.54,133.09,65.58,133z"/>
		<path class="st0" d="M65.26,132.85c-0.08-0.04-0.16-0.08-0.22-0.06C65.08,132.82,65.17,132.85,65.26,132.85z"/>
		<polygon class="st0" points="64.88,132.22 64.91,132.32 65.07,132.45 		"/>
		<path class="st0" d="M68.23,134.41l0.31,0.03c0.08-0.09,0.03-0.19-0.09-0.19C68.35,134.3,68.23,134.29,68.23,134.41z"/>
		<path class="st0" d="M67.8,133.18c0.04,0.1,0.01,0.17,0.01,0.29L68,133.1L67.8,133.18z"/>
		<path class="st0" d="M68.62,133.49c0.08-0.09,0.54-0.12,0.18-0.25C68.72,133.33,68.42,133.29,68.62,133.49z"/>
		<polygon class="st0" points="72.61,135.68 72.53,135.66 72.31,136.3 		"/>
		<path class="st0" d="M76.84,135.33c-0.29-0.25-0.19,0.38-0.44,0.1c-0.12,0.13,0.2,0.22,0.09,0.34
			C76.74,135.66,76.82,135.78,76.84,135.33z"/>
		<path class="st0" d="M76.49,135.77c-0.03,0.01-0.08,0.03-0.13,0.07C76.43,135.82,76.47,135.8,76.49,135.77z"/>
		<polygon class="st0" points="119.41,127.36 119.7,127.3 119.43,127.24 		"/>
		<path class="st0" d="M119.41,126.68l0.34,0.27l-0.16-0.39C119.57,126.61,119.52,126.72,119.41,126.68z"/>
		<path class="st0" d="M90.16,136.11l-0.01,0.1c0.04,0.11,0.09,0.11,0.2,0.12L90.16,136.11z"/>
		<polygon class="st0" points="93.14,136.11 93.1,136.11 93.24,136.48 		"/>
		<path class="st0" d="M95.51,135.18c-0.1,0-0.2,0.12-0.3,0.12C95.41,135.19,95.64,135.65,95.51,135.18z"/>
	</g>
	<g>
		<g>
			<path class="st2" d="M70.16,18.89c0.09-1.45,0.81-1.64,1.59-0.4l1.09,1.71c0.79,1.23,2.57,1.93,3.99,1.57l1.97-0.51
				c1.42-0.36,1.81,0.26,0.88,1.38l-1.29,1.56c-0.93,1.12-1.05,3.05-0.27,4.28l1.09,1.71c0.79,1.23,0.31,1.8-1.05,1.26l-1.89-0.74
				c-1.36-0.54-3.23-0.06-4.15,1.07l-1.29,1.56c-0.93,1.12-1.62,0.85-1.52-0.61l0.12-2.02c0.09-1.45-0.94-3.08-2.3-3.62l-1.89-0.74
				c-1.36-0.54-1.3-1.27,0.1-1.63l1.97-0.51c1.42-0.36,2.64-1.86,2.73-3.31L70.16,18.89z"/>
		</g>
		<g>
			<path class="st2" d="M41.64,35.7c0.09-1.45,0.81-1.64,1.59-0.4l0.75,1.18c0.79,1.23,2.57,1.93,3.99,1.57l1.36-0.35
				c1.42-0.36,1.81,0.26,0.88,1.38l-0.9,1.08c-0.93,1.12-1.05,3.05-0.27,4.28l0.75,1.18c0.79,1.23,0.31,1.8-1.05,1.26l-1.3-0.52
				c-1.36-0.54-3.23-0.06-4.15,1.07l-0.9,1.08c-0.93,1.12-1.62,0.85-1.52-0.61l0.09-1.41c0.09-1.45-0.94-3.08-2.3-3.62l-1.3-0.52
				c-1.36-0.54-1.3-1.27,0.1-1.63l1.36-0.35c1.42-0.36,2.64-1.86,2.73-3.31L41.64,35.7z"/>
		</g>
		<g>
			<path class="st2" d="M103.58,20.34c0.09-1.45,0.81-1.64,1.59-0.4l0.75,1.18c0.79,1.23,2.57,1.93,3.99,1.57l1.36-0.35
				c1.42-0.36,1.81,0.26,0.88,1.38l-0.9,1.08c-0.93,1.12-1.05,3.05-0.27,4.28l0.75,1.18c0.79,1.23,0.31,1.8-1.05,1.26l-1.3-0.52
				c-1.36-0.54-3.23-0.06-4.15,1.07l-0.9,1.08c-0.93,1.12-1.62,0.85-1.52-0.61l0.09-1.41c0.09-1.45-0.94-3.08-2.3-3.62l-1.3-0.52
				c-1.36-0.54-1.3-1.27,0.1-1.63l1.36-0.35c1.42-0.36,2.64-1.86,2.73-3.31L103.58,20.34z"/>
		</g>
		<g>
			<path class="st2" d="M126.92,34.05c0.09-1.45,0.81-1.64,1.59-0.4l0.75,1.18c0.79,1.23,2.57,1.93,3.99,1.57l1.36-0.35
				c1.42-0.36,1.81,0.26,0.88,1.38l-0.9,1.08c-0.93,1.12-1.05,3.05-0.27,4.28l0.75,1.18c0.79,1.23,0.31,1.8-1.05,1.26l-1.3-0.52
				c-1.36-0.54-3.23-0.06-4.15,1.07l-0.9,1.08c-0.93,1.12-1.62,0.85-1.52-0.61l0.09-1.41c0.09-1.45-0.94-3.08-2.3-3.62l-1.3-0.52
				c-1.36-0.54-1.3-1.27,0.1-1.63l1.36-0.35c1.42-0.36,2.64-1.86,2.73-3.31L126.92,34.05z"/>
		</g>
	</g>
	<g>
		<g>
			<path class="st2" d="M105.57,156.37c-0.11,1.45-0.82,1.63-1.59,0.39l-1.07-1.73c-0.76-1.24-2.55-1.97-3.97-1.62l-1.97,0.48
				c-1.42,0.35-1.8-0.28-0.87-1.39l1.32-1.55c0.94-1.11,1.08-3.04,0.31-4.27l-1.07-1.73c-0.76-1.24-0.29-1.8,1.06-1.25l1.88,0.76
				c1.35,0.55,3.23,0.09,4.16-1.02l1.32-1.55c0.94-1.11,1.62-0.83,1.52,0.62l-0.15,2.02c-0.11,1.45,0.91,3.09,2.26,3.64l1.88,0.76
				c1.35,0.55,1.29,1.28-0.12,1.63l-1.97,0.48c-1.42,0.35-2.66,1.82-2.77,3.27L105.57,156.37z"/>
		</g>
		<g>
			<path class="st2" d="M134.29,139.88c-0.11,1.45-0.82,1.63-1.59,0.39l-0.74-1.19c-0.76-1.24-2.55-1.97-3.97-1.62l-1.36,0.34
				c-1.42,0.35-1.8-0.28-0.87-1.39l0.91-1.07c0.94-1.11,1.08-3.04,0.31-4.27l-0.74-1.19c-0.76-1.24-0.29-1.8,1.06-1.25l1.3,0.53
				c1.35,0.55,3.23,0.09,4.16-1.02l0.91-1.07c0.94-1.11,1.62-0.83,1.52,0.62l-0.1,1.41c-0.11,1.45,0.91,3.09,2.26,3.64l1.3,0.53
				c1.35,0.55,1.29,1.28-0.12,1.63l-1.36,0.34c-1.42,0.35-2.66,1.82-2.77,3.27L134.29,139.88z"/>
		</g>
		<g>
			<path class="st2" d="M72.16,154.54c-0.1,1.45-0.82,1.63-1.59,0.39l-0.74-1.19c-0.76-1.24-2.55-1.97-3.97-1.62l-1.36,0.34
				c-1.42,0.35-1.8-0.28-0.87-1.39l0.91-1.07c0.94-1.11,1.08-3.04,0.31-4.27l-0.74-1.19c-0.76-1.24-0.29-1.8,1.06-1.25l1.3,0.53
				c1.35,0.55,3.23,0.09,4.16-1.02l0.91-1.07c0.94-1.11,1.62-0.83,1.52,0.62l-0.1,1.41c-0.11,1.45,0.91,3.09,2.26,3.64l1.3,0.53
				c1.35,0.55,1.29,1.28-0.12,1.63l-1.36,0.34c-1.42,0.35-2.66,1.82-2.77,3.27L72.16,154.54z"/>
		</g>
		<g>
			<path class="st2" d="M48.98,140.57c-0.11,1.45-0.82,1.63-1.59,0.39l-0.74-1.19c-0.76-1.24-2.55-1.97-3.97-1.62l-1.36,0.34
				c-1.42,0.35-1.8-0.28-0.87-1.39l0.91-1.07c0.94-1.11,1.08-3.04,0.31-4.27l-0.74-1.19c-0.76-1.24-0.29-1.8,1.06-1.25l1.3,0.53
				c1.35,0.55,3.23,0.09,4.16-1.02l0.91-1.07c0.94-1.11,1.62-0.83,1.52,0.62l-0.1,1.41c-0.11,1.45,0.91,3.09,2.26,3.64l1.3,0.53
				c1.35,0.55,1.29,1.28-0.12,1.63l-1.36,0.34c-1.42,0.35-2.66,1.82-2.77,3.27L48.98,140.57z"/>
		</g>
	</g>
</g>
</svg>
